<?xml version="1.0" encoding="UTF-8"?>
<svg width="98px" height="82px" viewBox="0 0 98 82" version="1.1" xmlns="http://www.w3.org/2000/svg" xmlns:xlink="http://www.w3.org/1999/xlink">
    <!-- Generator: Sketch 60.1 (88133) - https://sketch.com -->
    <title>Rectangle</title>
    <desc>Created with Sketch.</desc>
    <g id="Page-1" stroke="none" stroke-width="1" fill="none" fill-rule="evenodd">
        <path d="M8.5638852,28 L20.4361148,28 C21.3276335,28 21.6509198,28.0928256 21.9768457,28.2671327 C22.3027716,28.4414398 22.5585602,28.6972284 22.7328673,29.0231543 C22.9071744,29.3490802 23,29.6723665 23,30.5638852 L23,79.4361148 C23,80.3276335 22.9071744,80.6509198 22.7328673,80.9768457 C22.5585602,81.3027716 22.3027716,81.5585602 21.9768457,81.7328673 C21.6509198,81.9071744 21.3276335,82 20.4361148,82 L8.5638852,82 C7.67236646,82 7.34908022,81.9071744 7.0231543,81.7328673 C6.69722837,81.5585602 6.4414398,81.3027716 6.2671327,80.9768457 C6.09282561,80.6509198 6,80.3276335 6,79.4361148 L6,30.5638852 C6,29.6723665 6.09282561,29.3490802 6.2671327,29.0231543 C6.4414398,28.6972284 6.69722837,28.4414398 7.0231543,28.2671327 C7.34908022,28.0928256 7.67236646,28 8.5638852,28 Z" id="Rectangle" fill="#548A55"></path>
        <path d="M25.5638852,-1.03584031e-16 L37.4361148,1.03584031e-16 C38.3276335,-6.01853049e-17 38.6509198,0.0928256111 38.9768457,0.267132704 C39.3027716,0.441439796 39.5585602,0.697228371 39.7328673,1.0231543 C39.9071744,1.34908022 40,1.67236646 40,2.5638852 L40,79.4361148 C40,80.3276335 39.9071744,80.6509198 39.7328673,80.9768457 C39.5585602,81.3027716 39.3027716,81.5585602 38.9768457,81.7328673 C38.6509198,81.9071744 38.3276335,82 37.4361148,82 L25.5638852,82 C24.6723665,82 24.3490802,81.9071744 24.0231543,81.7328673 C23.6972284,81.5585602 23.4414398,81.3027716 23.2671327,80.9768457 C23.0928256,80.6509198 23,80.3276335 23,79.4361148 L23,2.5638852 C23,1.67236646 23.0928256,1.34908022 23.2671327,1.0231543 C23.4414398,0.697228371 23.6972284,0.441439796 24.0231543,0.267132704 C24.3490802,0.0928256111 24.6723665,6.01853049e-17 25.5638852,-1.03584031e-16 Z" id="Rectangle-Copy-2" fill="#D85F5D"></path>
        <path d="M42.5638852,11 L54.4361148,11 C55.3276335,11 55.6509198,11.0928256 55.9768457,11.2671327 C56.3027716,11.4414398 56.5585602,11.6972284 56.7328673,12.0231543 C56.9071744,12.3490802 57,12.6723665 57,13.5638852 L57,79.4361148 C57,80.3276335 56.9071744,80.6509198 56.7328673,80.9768457 C56.5585602,81.3027716 56.3027716,81.5585602 55.9768457,81.7328673 C55.6509198,81.9071744 55.3276335,82 54.4361148,82 L42.5638852,82 C41.6723665,82 41.3490802,81.9071744 41.0231543,81.7328673 C40.6972284,81.5585602 40.4414398,81.3027716 40.2671327,80.9768457 C40.0928256,80.6509198 40,80.3276335 40,79.4361148 L40,13.5638852 C40,12.6723665 40.0928256,12.3490802 40.2671327,12.0231543 C40.4414398,11.6972284 40.6972284,11.4414398 41.0231543,11.2671327 C41.3490802,11.0928256 41.6723665,11 42.5638852,11 Z" id="Rectangle-Copy-8" fill="#F0D347"></path>
        <g id="Group-4" transform="translate(77.500000, 49.500000) rotate(-24.000000) translate(-77.500000, -49.500000) translate(69.000000, 18.000000)">
            <path d="M1.2819426,-5.17920154e-17 L15.7180574,5.17920154e-17 C16.1638168,-3.00926524e-17 16.3254599,0.0464128056 16.4884229,0.133566352 C16.6513858,0.220719898 16.7792801,0.348614185 16.8664336,0.511577148 C16.9535872,0.674540111 17,0.83618323 17,1.2819426 L17,61.7180574 C17,62.1638168 16.9535872,62.3254599 16.8664336,62.4884229 C16.7792801,62.6513858 16.6513858,62.7792801 16.4884229,62.8664336 C16.3254599,62.9535872 16.1638168,63 15.7180574,63 L1.2819426,63 C0.83618323,63 0.674540111,62.9535872 0.511577148,62.8664336 C0.348614185,62.7792801 0.220719898,62.6513858 0.133566352,62.4884229 C0.0464128056,62.3254599 2.00617683e-17,62.1638168 -3.45280103e-17,61.7180574 L3.45280103e-17,1.2819426 C-2.00617683e-17,0.83618323 0.0464128056,0.674540111 0.133566352,0.511577148 C0.220719898,0.348614185 0.348614185,0.220719898 0.511577148,0.133566352 C0.674540111,0.0464128056 0.83618323,3.00926524e-17 1.2819426,-5.17920154e-17 Z" id="Rectangle-Copy-9" fill="#587AB6"></path>
            <path d="M14.5638852,13 L17,13 L17,13 L17,63 L14.5638852,63 C13.6723665,63 13.3490802,62.9071744 13.0231543,62.7328673 C12.6972284,62.5585602 12.4414398,62.3027716 12.2671327,61.9768457 C12.0928256,61.6509198 12,61.3276335 12,60.4361148 L12,15.5638852 C12,14.6723665 12.0928256,14.3490802 12.2671327,14.0231543 C12.4414398,13.6972284 12.6972284,13.4414398 13.0231543,13.2671327 C13.3490802,13.0928256 13.6723665,13 14.5638852,13 Z" id="Rectangle-Copy-14" fill="#37517F"></path>
            <path d="M1,59 L17,59 L17,63 L3.5638852,63 C2.67236646,63 2.34908022,62.9071744 2.0231543,62.7328673 C1.69722837,62.5585602 1.4414398,62.3027716 1.2671327,61.9768457 C1.09282561,61.6509198 1,61.3276335 1,60.4361148 L1,59 L1,59 Z" id="Rectangle-Copy-15" fill="#37517F"></path>
            <path d="M9,22 C10.1045695,22 11,22.8954305 11,24 L11,47 C11,48.1045695 10.1045695,49 9,49 C7.8954305,49 7,48.1045695 7,47 L7,24 C7,22.8954305 7.8954305,22 9,22 Z" id="Rectangle-Copy-22" fill="#3B3B9B"></path>
            <path d="M9,13 C10.1045695,13 11,13.8954305 11,15 L11,18 C11,19.1045695 10.1045695,20 9,20 C7.8954305,20 7,19.1045695 7,18 L7,15 C7,13.8954305 7.8954305,13 9,13 Z" id="Rectangle-Copy-23" fill="#3B3B9B"></path>
        </g>
        <path d="M20.5638852,32 L23,32 L23,32 L23,82 L20.5638852,82 C19.6723665,82 19.3490802,81.9071744 19.0231543,81.7328673 C18.6972284,81.5585602 18.4414398,81.3027716 18.2671327,80.9768457 C18.0928256,80.6509198 18,80.3276335 18,79.4361148 L18,34.5638852 C18,33.6723665 18.0928256,33.3490802 18.2671327,33.0231543 C18.4414398,32.6972284 18.6972284,32.4414398 19.0231543,32.2671327 C19.3490802,32.0928256 19.6723665,32 20.5638852,32 Z" id="Rectangle" fill="#1F6620"></path>
        <path d="M37.5638852,15 L40,15 L40,15 L40,82 L37.5638852,82 C36.6723665,82 36.3490802,81.9071744 36.0231543,81.7328673 C35.6972284,81.5585602 35.4414398,81.3027716 35.2671327,80.9768457 C35.0928256,80.6509198 35,80.3276335 35,79.4361148 L35,17.5638852 C35,16.6723665 35.0928256,16.3490802 35.2671327,16.0231543 C35.4414398,15.6972284 35.6972284,15.4414398 36.0231543,15.2671327 C36.3490802,15.0928256 36.6723665,15 37.5638852,15 Z" id="Rectangle-Copy-10" fill="#983E3D"></path>
        <path d="M54.5638852,22 L57,22 L57,22 L57,82 L54.5638852,82 C53.6723665,82 53.3490802,81.9071744 53.0231543,81.7328673 C52.6972284,81.5585602 52.4414398,81.3027716 52.2671327,80.9768457 C52.0928256,80.6509198 52,80.3276335 52,79.4361148 L52,24.5638852 C52,23.6723665 52.0928256,23.3490802 52.2671327,23.0231543 C52.4414398,22.6972284 52.6972284,22.4414398 53.0231543,22.2671327 C53.3490802,22.0928256 53.6723665,22 54.5638852,22 Z" id="Rectangle-Copy-12" fill="#CFB11F"></path>
        <path d="M7,78 L23,78 L23,82 L9.5638852,82 C8.67236646,82 8.34908022,81.9071744 8.0231543,81.7328673 C7.69722837,81.5585602 7.4414398,81.3027716 7.2671327,80.9768457 C7.09282561,80.6509198 7,80.3276335 7,79.4361148 L7,78 L7,78 Z" id="Rectangle" fill="#1F6620"></path>
        <path d="M24,78 L40,78 L40,82 L26.5638852,82 C25.6723665,82 25.3490802,81.9071744 25.0231543,81.7328673 C24.6972284,81.5585602 24.4414398,81.3027716 24.2671327,80.9768457 C24.0928256,80.6509198 24,80.3276335 24,79.4361148 L24,78 L24,78 Z" id="Rectangle-Copy-11" fill="#983E3D"></path>
        <path d="M41,78 L57,78 L57,82 L43.5638852,82 C42.6723665,82 42.3490802,81.9071744 42.0231543,81.7328673 C41.6972284,81.5585602 41.4414398,81.3027716 41.2671327,80.9768457 C41.0928256,80.6509198 41,80.3276335 41,79.4361148 L41,78 L41,78 Z" id="Rectangle-Copy-13" fill="#CFB11F"></path>
        <path d="M15,52 C16.1045695,52 17,52.8954305 17,54 L17,69 C17,70.1045695 16.1045695,71 15,71 C13.8954305,71 13,70.1045695 13,69 L13,54 C13,52.8954305 13.8954305,52 15,52 Z" id="Rectangle" fill="#D8D8D8"></path>
        <path d="M32,28 C33.1045695,28 34,28.8954305 34,30 L34,45 C34,46.1045695 33.1045695,47 32,47 C30.8954305,47 30,46.1045695 30,45 L30,30 C30,28.8954305 30.8954305,28 32,28 Z" id="Rectangle-Copy-19" fill="#D8D8D8"></path>
        <path d="M49,28 C50.1045695,28 51,28.8954305 51,30 L51,45 C51,46.1045695 50.1045695,47 49,47 C47.8954305,47 47,46.1045695 47,45 L47,30 C47,28.8954305 47.8954305,28 49,28 Z" id="Rectangle-Copy-20" fill="#DB8732"></path>
        <path d="M49,51 C50.1045695,51 51,51.8954305 51,53 L51,68 C51,69.1045695 50.1045695,70 49,70 C47.8954305,70 47,69.1045695 47,68 L47,53 C47,51.8954305 47.8954305,51 49,51 Z" id="Rectangle-Copy-21" fill="#DB8732"></path>
        <path d="M15,38 C16.1045695,38 17,38.8954305 17,40 L17,47 C17,48.1045695 16.1045695,49 15,49 C13.8954305,49 13,48.1045695 13,47 L13,40 C13,38.8954305 13.8954305,38 15,38 Z" id="Rectangle-Copy-16" fill="#D8D8D8"></path>
        <path d="M32,55 C33.1045695,55 34,55.8954305 34,57 L34,64 C34,65.1045695 33.1045695,66 32,66 C30.8954305,66 30,65.1045695 30,64 L30,57 C30,55.8954305 30.8954305,55 32,55 Z" id="Rectangle-Copy-18" fill="#D8D8D8"></path>
        <path d="M32,10 C33.1045695,10 34,10.8954305 34,12 L34,19 C34,20.1045695 33.1045695,21 32,21 C30.8954305,21 30,20.1045695 30,19 L30,12 C30,10.8954305 30.8954305,10 32,10 Z" id="Rectangle-Copy-17" fill="#D8D8D8"></path>
    </g>
</svg>