<?xml version="1.0" encoding="UTF-8"?>
<svg width="1400px" height="1400px" viewBox="0 0 1400 1400" version="1.1" xmlns="http://www.w3.org/2000/svg" xmlns:xlink="http://www.w3.org/1999/xlink">
    <!-- Generator: Sketch 60.1 (88133) - https://sketch.com -->
    <title>Officer Isometric Workspace Vector</title>
    <desc>Created with Sketch.</desc>
    <defs>
        <linearGradient x1="0%" y1="0%" x2="100%" y2="100%" id="linearGradient-1">
            <stop stop-color="#FFCC99" offset="0%"></stop>
            <stop stop-color="#FF99D1" offset="100%"></stop>
        </linearGradient>
        <linearGradient x1="-86.5993445%" y1="-21.1721039%" x2="112.898721%" y2="92.9452548%" id="linearGradient-2">
            <stop stop-color="#E69F86" offset="0%"></stop>
            <stop stop-color="#D56CC7" offset="100%"></stop>
        </linearGradient>
        <linearGradient x1="-301.416108%" y1="-207.772781%" x2="249.272551%" y2="208.767503%" id="linearGradient-3">
            <stop stop-color="#E69F86" offset="0%"></stop>
            <stop stop-color="#D56CC7" offset="100%"></stop>
        </linearGradient>
        <linearGradient x1="-156.493473%" y1="-62.9846679%" x2="533.694801%" y2="332.499321%" id="linearGradient-4">
            <stop stop-color="#E69F86" offset="0%"></stop>
            <stop stop-color="#D56CC7" offset="100%"></stop>
        </linearGradient>
        <linearGradient x1="-252.602586%" y1="-130.59921%" x2="118.342806%" y2="93.4677032%" id="linearGradient-5">
            <stop stop-color="#E69F86" offset="0%"></stop>
            <stop stop-color="#D56CC7" offset="100%"></stop>
        </linearGradient>
        <linearGradient x1="-176.780082%" y1="-84.0262729%" x2="393.867284%" y2="255.798711%" id="linearGradient-6">
            <stop stop-color="#E69F86" offset="0%"></stop>
            <stop stop-color="#D56CC7" offset="100%"></stop>
        </linearGradient>
    </defs>
    <g id="Page-1" stroke="none" stroke-width="1" fill="none" fill-rule="evenodd">
        <g id="Officer-Isometric-Workspace-Vector">
            <rect id="Rectangle" fill="url(#linearGradient-1)" x="0" y="0" width="1400" height="1400"></rect>
            <g id="Group" transform="translate(255.000000, 143.000000)">
                <polygon id="Path" fill="url(#linearGradient-2)" points="823.6 694.5 533.4 862.1 442.7 844.2 732.8 676.7 732.8 635.5 767.4 615.6 767.4 504.3 771.9 505.2 1068.2 674.5 1041.6 689.8"></polygon>
                <g id="Path">
                    <g transform="translate(290.000000, 0.000000)">
                        <polygon fill="#1A1A1A" points="0.3 20 442.8 275.4 442.8 635.5 0.3 380"></polygon>
                        <polygon fill="#4D4D4D" points="477.4 255.5 442.8 275.4 442.8 635.5 477.4 615.6"></polygon>
                        <polygon fill="#B3B3B3" points="477.4 255.5 442.8 275.4 0.3 20 34.9 0"></polygon>
                        <polygon fill="#333333" points="19.4 54.9 423.7 288.3 423.7 600.6 19.4 367.2"></polygon>
                    </g>
                    <g transform="translate(0.000000, 380.000000)">
                        <g>
                            <polygon fill="#999999" points="0.2 167.5 442.7 423 442.7 464.2 0.2 208.7"></polygon>
                            <polygon fill="#666666" points="732.8 255.5 442.7 423 442.7 464.2 732.8 296.7"></polygon>
                            <polygon fill="#CCCCCC" points="732.8 255.5 442.7 423 0.2 167.5 290.3 0"></polygon>
                            <polygon fill="#4D4D4D" points="6.3 181.6 36.3 198.8 36.3 215.1 6.3 197.8"></polygon>
                            <polygon fill="#4D4D4D" points="48.1 205.7 78 223 78 239.2 48.1 221.9"></polygon>
                            <path d="M410.7,420.5 C415,423 418.5,428.5 418.5,432.9 C418.5,437.2 415,438.7 410.7,436.2 C406.4,433.7 402.9,428.2 402.9,423.9 C402.9,419.4 406.4,418 410.7,420.5 L410.7,420.5 Z" fill="#4D4D4D"></path>
                            <path d="M382.8,402.9 C387.1,405.4 390.6,410.9 390.6,415.2 C390.6,419.5 387.1,421 382.8,418.5 C378.5,416 375,410.5 375,406.2 C375,401.9 378.5,400.3 382.8,402.9 L382.8,402.9 Z" fill="#4D4D4D"></path>
                            <polygon fill="#333333" points="722 273.1 672.9 301.5 672.9 320.8 722 292.5"></polygon>
                        </g>
                        <g transform="translate(127.000000, 35.000000)">
                            <polygon fill="#FFFFFF" points="541.8 229.7 398.3 312.6 0.8 83.1 144.4 0.2"></polygon>
                            <polygon fill="#333333" points="489.8 153.5 461.7 169.8 202 19.8 230.1 3.6"></polygon>
                            <polygon fill="#FFFFFF" points="247.8 234.2 160.6 284.5 36.1 212.6 123.2 162.3"></polygon>
                            <g transform="translate(20.000000, 6.000000)">
                                <g transform="translate(91.000000, 0.000000)">
                                    <g>
                                        <polygon fill="#666666" points="0.7 15 39.8 37.6 39.8 41.2 0.7 18.7"></polygon>
                                        <polygon fill="#4D4D4D" points="65.4 22.8 39.8 37.6 39.8 41.2 65.4 26.4"></polygon>
                                        <polygon fill="#808080" points="65.4 22.8 39.8 37.6 0.7 15 26.3 0.3"></polygon>
                                    </g>
                                    <g transform="translate(49.000000, 28.000000)">
                                        <polygon fill="#666666" points="0.8 15.4 39.8 37.9 39.8 41.5 0.8 19"></polygon>
                                        <polygon fill="#4D4D4D" points="65.4 23.1 39.8 37.9 39.8 41.5 65.4 26.7"></polygon>
                                        <polygon fill="#808080" points="65.4 23.1 39.8 37.9 0.8 15.4 26.4 0.6"></polygon>
                                    </g>
                                    <g transform="translate(98.000000, 56.000000)">
                                        <polygon fill="#666666" points="0.8 15.7 39.9 38.2 39.9 41.8 0.8 19.3"></polygon>
                                        <polygon fill="#4D4D4D" points="65.5 23.4 39.9 38.2 39.9 41.8 65.5 27.1"></polygon>
                                        <polygon fill="#808080" points="65.5 23.4 39.9 38.2 0.8 15.7 26.4 0.9"></polygon>
                                    </g>
                                    <g transform="translate(147.000000, 85.000000)">
                                        <polygon fill="#666666" points="0.9 15 39.9 37.5 39.9 41.2 0.9 18.6"></polygon>
                                        <polygon fill="#4D4D4D" points="65.5 22.8 39.9 37.5 39.9 41.2 65.5 26.4"></polygon>
                                        <polygon fill="#808080" points="65.5 22.8 39.9 37.5 0.9 15 26.5 0.2"></polygon>
                                    </g>
                                    <g transform="translate(197.000000, 113.000000)">
                                        <polygon fill="#666666" points="0 15.3 39 37.8 39 41.5 0 18.9"></polygon>
                                        <polygon fill="#4D4D4D" points="64.6 23.1 39 37.8 39 41.5 64.6 26.7"></polygon>
                                        <polygon fill="#808080" points="64.6 23.1 39 37.8 0 15.3 25.5 0.5"></polygon>
                                    </g>
                                    <g transform="translate(246.000000, 141.000000)">
                                        <polygon fill="#666666" points="0 15.6 39 38.2 39 41.8 0 19.3"></polygon>
                                        <polygon fill="#4D4D4D" points="64.6 23.4 39 38.2 39 41.8 64.6 27"></polygon>
                                        <polygon fill="#808080" points="64.6 23.4 39 38.2 0 15.6 25.6 0.8"></polygon>
                                    </g>
                                    <g transform="translate(295.000000, 170.000000)">
                                        <polygon fill="#666666" points="0.1 14.9 39.1 37.5 39.1 41.1 0.1 18.6"></polygon>
                                        <polygon fill="#4D4D4D" points="64.7 22.7 39.1 37.5 39.1 41.1 64.7 26.3"></polygon>
                                        <polygon fill="#808080" points="64.7 22.7 39.1 37.5 0.1 14.9 25.6 0.2"></polygon>
                                    </g>
                                    <g transform="translate(344.000000, 198.000000)">
                                        <polygon fill="#666666" points="0.1 15.3 39.1 37.8 39.1 41.4 0.1 18.9"></polygon>
                                        <polygon fill="#4D4D4D" points="64.7 23 39.1 37.8 39.1 41.4 64.7 26.7"></polygon>
                                        <polygon fill="#808080" points="64.7 23 39.1 37.8 0.1 15.3 25.7 0.5"></polygon>
                                    </g>
                                </g>
                                <g transform="translate(61.000000, 17.000000)">
                                    <g>
                                        <polygon fill="#666666" points="0.3 15.6 39.4 38.1 39.4 41.8 0.3 19.2"></polygon>
                                        <polygon fill="#4D4D4D" points="65 23.3 39.4 38.1 39.4 41.8 65 27"></polygon>
                                        <polygon fill="#808080" points="65 23.3 39.4 38.1 0.3 15.6 25.9 0.8"></polygon>
                                    </g>
                                    <g transform="translate(49.000000, 29.000000)">
                                        <polygon fill="#666666" points="0.4 14.9 39.4 37.4 39.4 41.1 0.4 18.5"></polygon>
                                        <polygon fill="#4D4D4D" points="65 22.7 39.4 37.4 39.4 41.1 65 26.3"></polygon>
                                        <polygon fill="#808080" points="65 22.7 39.4 37.4 0.4 14.9 26 0.1"></polygon>
                                    </g>
                                    <g transform="translate(98.000000, 57.000000)">
                                        <polygon fill="#666666" points="0.4 15.2 39.5 37.7 39.5 41.4 0.4 18.8"></polygon>
                                        <polygon fill="#4D4D4D" points="65.1 23 39.5 37.7 39.5 41.4 65.1 26.6"></polygon>
                                        <polygon fill="#808080" points="65.1 23 39.5 37.7 0.4 15.2 26 0.4"></polygon>
                                    </g>
                                    <g transform="translate(147.000000, 85.000000)">
                                        <polygon fill="#666666" points="0.5 15.6 39.5 38.1 39.5 41.7 0.5 19.2"></polygon>
                                        <polygon fill="#4D4D4D" points="65.1 23.3 39.5 38.1 39.5 41.7 65.1 26.9"></polygon>
                                        <polygon fill="#808080" points="65.1 23.3 39.5 38.1 0.5 15.6 26.1 0.8"></polygon>
                                    </g>
                                    <g transform="translate(196.000000, 114.000000)">
                                        <polygon fill="#666666" points="0.5 14.9 39.6 37.4 39.6 41 0.5 18.5"></polygon>
                                        <polygon fill="#4D4D4D" points="65.2 22.6 39.6 37.4 39.6 41 65.2 26.2"></polygon>
                                        <polygon fill="#808080" points="65.2 22.6 39.6 37.4 0.5 14.9 26.1 0.1"></polygon>
                                    </g>
                                    <g transform="translate(245.000000, 142.000000)">
                                        <polygon fill="#666666" points="0.6 15.2 39.6 37.7 39.6 41.4 0.6 18.8"></polygon>
                                        <polygon fill="#4D4D4D" points="65.2 23 39.6 37.7 39.6 41.4 65.2 26.6"></polygon>
                                        <polygon fill="#808080" points="65.2 23 39.6 37.7 0.6 15.2 26.2 0.4"></polygon>
                                    </g>
                                    <g transform="translate(294.000000, 170.000000)">
                                        <polygon fill="#666666" points="0.6 15.5 39.7 38 39.7 41.7 0.6 19.1"></polygon>
                                        <polygon fill="#4D4D4D" points="65.3 23.3 39.7 38 39.7 41.7 65.3 26.9"></polygon>
                                        <polygon fill="#808080" points="65.3 23.3 39.7 38 0.6 15.5 26.2 0.7"></polygon>
                                    </g>
                                    <g transform="translate(343.000000, 199.000000)">
                                        <polygon fill="#666666" points="0.7 14.8 39.7 37.4 39.7 41 0.7 18.5"></polygon>
                                        <polygon fill="#4D4D4D" points="65.3 22.6 39.7 37.4 39.7 41 65.3 26.2"></polygon>
                                        <polygon fill="#808080" points="65.3 22.6 39.7 37.4 0.7 14.8 26.3 0"></polygon>
                                    </g>
                                </g>
                                <g transform="translate(30.000000, 35.000000)">
                                    <g>
                                        <polygon fill="#666666" points="0.9 15.1 40 37.7 40 41.3 0.9 18.8"></polygon>
                                        <polygon fill="#4D4D4D" points="65.6 22.9 40 37.7 40 41.3 65.6 26.5"></polygon>
                                        <polygon fill="#808080" points="65.6 22.9 40 37.7 0.9 15.1 26.5 0.4"></polygon>
                                    </g>
                                    <g transform="translate(50.000000, 28.000000)">
                                        <polygon fill="#666666" points="0 15.5 39 38 39 41.6 0 19.1"></polygon>
                                        <polygon fill="#4D4D4D" points="64.6 23.2 39 38 39 41.6 64.6 26.9"></polygon>
                                        <polygon fill="#808080" points="64.6 23.2 39 38 0 15.5 25.6 0.7"></polygon>
                                    </g>
                                    <g transform="translate(99.000000, 57.000000)">
                                        <polygon fill="#666666" points="0 14.8 39.1 37.3 39.1 41 0 18.4"></polygon>
                                        <polygon fill="#4D4D4D" points="64.7 22.5 39.1 37.3 39.1 41 64.7 26.2"></polygon>
                                        <polygon fill="#808080" points="64.7 22.5 39.1 37.3 0 14.8 25.6 0"></polygon>
                                    </g>
                                    <g transform="translate(148.000000, 85.000000)">
                                        <polygon fill="#666666" points="0.1 15.1 39.1 37.6 39.1 41.3 0.1 18.7"></polygon>
                                        <polygon fill="#4D4D4D" points="64.7 22.9 39.1 37.6 39.1 41.3 64.7 26.5"></polygon>
                                        <polygon fill="#808080" points="64.7 22.9 39.1 37.6 0.1 15.1 25.7 0.3"></polygon>
                                    </g>
                                    <g transform="translate(197.000000, 113.000000)">
                                        <polygon fill="#666666" points="0.1 15.4 39.2 37.9 39.2 41.6 0.1 19"></polygon>
                                        <polygon fill="#4D4D4D" points="64.8 23.2 39.2 37.9 39.2 41.6 64.8 26.8"></polygon>
                                        <polygon fill="#808080" points="64.8 23.2 39.2 37.9 0.1 15.4 25.7 0.6"></polygon>
                                    </g>
                                    <g transform="translate(246.000000, 142.000000)">
                                        <polygon fill="#666666" points="0.2 14.7 39.2 37.3 39.2 40.9 0.2 18.4"></polygon>
                                        <polygon fill="#4D4D4D" points="64.8 22.5 39.2 37.3 39.2 40.9 64.8 26.1"></polygon>
                                        <polygon fill="#808080" points="64.8 22.5 39.2 37.3 0.2 14.7 25.8 0"></polygon>
                                    </g>
                                    <g transform="translate(295.000000, 170.000000)">
                                        <polygon fill="#666666" points="0.2 15.1 39.3 37.6 39.3 41.2 0.2 18.7"></polygon>
                                        <polygon fill="#4D4D4D" points="64.9 22.8 39.3 37.6 39.3 41.2 64.9 26.4"></polygon>
                                        <polygon fill="#808080" points="64.9 22.8 39.3 37.6 0.2 15.1 25.8 0.3"></polygon>
                                    </g>
                                    <g transform="translate(344.000000, 198.000000)">
                                        <polygon fill="#666666" points="0.3 15.4 39.3 37.9 39.3 41.5 0.3 19"></polygon>
                                        <polygon fill="#4D4D4D" points="64.9 23.1 39.3 37.9 39.3 41.5 64.9 26.8"></polygon>
                                        <polygon fill="#808080" points="64.9 23.1 39.3 37.9 0.3 15.4 25.9 0.6"></polygon>
                                    </g>
                                </g>
                                <g transform="translate(0.000000, 52.000000)">
                                    <g>
                                        <polygon fill="#666666" points="0.5 15.7 39.6 38.2 39.6 41.9 0.5 19.3"></polygon>
                                        <polygon fill="#4D4D4D" points="65.1 23.5 39.6 38.2 39.6 41.9 65.1 27.1"></polygon>
                                        <polygon fill="#808080" points="65.1 23.5 39.6 38.2 0.5 15.7 26.1 0.9"></polygon>
                                    </g>
                                    <g transform="translate(49.000000, 29.000000)">
                                        <polygon fill="#666666" points="0.6 15 39.6 37.5 39.6 41.2 0.6 18.6"></polygon>
                                        <polygon fill="#4D4D4D" points="65.2 22.8 39.6 37.5 39.6 41.2 65.2 26.4"></polygon>
                                        <polygon fill="#808080" points="65.2 22.8 39.6 37.5 0.6 15 26.2 0.2"></polygon>
                                    </g>
                                    <g transform="translate(98.000000, 57.000000)">
                                        <polygon fill="#666666" points="0.6 15.3 186.8 122.8 186.8 126.5 0.6 19"></polygon>
                                        <polygon fill="#4D4D4D" points="212.4 108.1 186.8 122.8 186.8 126.5 212.4 111.7"></polygon>
                                        <polygon fill="#808080" points="212.4 108.1 186.8 122.8 0.6 15.3 26.2 0.6"></polygon>
                                    </g>
                                    <g transform="translate(294.000000, 170.000000)">
                                        <polygon fill="#666666" points="0.8 15.6 39.9 38.1 39.9 41.8 0.8 19.2"></polygon>
                                        <polygon fill="#4D4D4D" points="65.5 23.4 39.9 38.1 39.9 41.8 65.5 27"></polygon>
                                        <polygon fill="#808080" points="65.5 23.4 39.9 38.1 0.8 15.6 26.4 0.8"></polygon>
                                    </g>
                                    <g transform="translate(343.000000, 199.000000)">
                                        <polygon fill="#666666" points="0.9 14.9 39.9 37.5 39.9 41.1 0.9 18.6"></polygon>
                                        <polygon fill="#4D4D4D" points="65.5 22.7 39.9 37.5 39.9 41.1 65.5 26.3"></polygon>
                                        <polygon fill="#808080" points="65.5 22.7 39.9 37.5 0.9 14.9 26.5 0.1"></polygon>
                                    </g>
                                </g>
                            </g>
                        </g>
                    </g>
                </g>
            </g>
            <g id="Group" transform="translate(364.000000, 1088.000000)">
                <polygon id="Path" fill="url(#linearGradient-3)" points="328.6 71.6 121.9 190.9 102 187 299.2 73.1 299.2 59.1 230.7 19.5 238.6 20.1"></polygon>
                <g id="Path">
                    <g>
                        <polygon fill="#CCCCCC" points="0.8 114.6 102 173 102 187 0.8 128.6"></polygon>
                        <polygon fill="#999999" points="299.2 59.1 102 173 102 187 299.2 73.1"></polygon>
                        <polygon fill="#FFFFFF" points="299.2 59.1 102 173 0.8 114.6 198.1 0.7"></polygon>
                        <polygon fill="#333333" points="273.2 67.3 121.4 155 32.1 103.4 183.9 15.7"></polygon>
                        <path d="M58.6,137.9 C64.4,137.9 69.2,135.5 69.2,132.6 C69.2,129.7 64.4,127.3 58.6,127.3 C52.8,127.3 48,129.7 48,132.6 C48,135.6 52.8,137.9 58.6,137.9 L58.6,137.9 Z" fill="#CCCCCC"></path>
                        <polygon fill="#808080" points="76.5 162.9 93.1 172.4 93.1 177.7 76.5 168.2"></polygon>
                    </g>
                    <g transform="translate(261.000000, 74.000000)">
                        <polygon fill="#FFFFFF" points="19.6 0.1 0.5 11.1 2 12.1 21.2 1"></polygon>
                        <polygon fill="#CCCCCC" points="0.5 11.1 2 12.1 2 18.3 0.5 17.4"></polygon>
                        <polygon fill="#B3B3B3" points="21.2 1 2 12.1 2 18.3 21.2 7.2"></polygon>
                    </g>
                </g>
            </g>
            <g id="Group" transform="translate(179.000000, 355.000000)">
                <polygon id="Path" fill="url(#linearGradient-4)" points="270.6 219.4 180.6 271.4 89.8 253.5 179.8 201.5 179.8 167.8 180.6 168"></polygon>
                <g id="Path">
                    <g transform="translate(0.000000, 37.000000)">
                        <polygon fill="#CC6633" points="0.7 52.4 89.8 103.9 89.8 216.5 0.7 165"></polygon>
                        <polygon fill="#AB4A24" points="179.8 51.9 89.8 103.9 89.8 216.5 179.8 164.5"></polygon>
                        <polygon fill="#F5944F" points="179.8 51.9 89.8 103.9 0.7 52.4 90.7 0.5"></polygon>
                        <polygon fill="#FFFF99" points="0.7 74.6 89.8 126 89.8 135.6 0.7 84.1"></polygon>
                        <polygon fill="#D9C36C" points="179 74.6 89.8 126 89.8 135.6 179 84.1"></polygon>
                        <polygon fill="#996633" points="156.8 52 89.9 90.6 23.7 52.4 90.6 13.8"></polygon>
                    </g>
                    <g transform="translate(16.000000, 0.000000)">
                        <path d="M77.5,118.1 L28.8,90 C25.5,65 18.2,43.7 0,32.6 C12,35.1 23.2,40.1 30.5,55.9 C26.7,33.5 28.5,18.2 33.1,6.5 C48.4,11.2 58.1,23 65.4,37.8 C65.1,22.6 71,10 83.5,0.1 C95,10.4 100.5,24.6 100.8,42.3 C115.4,26 135.6,22.4 159.2,26.3 C153.4,40.6 145.6,54 132.3,64.6 C146.4,58.3 160.4,58.3 174.5,64.2 C156.3,63.2 139.9,70 126.5,89.7 L77.5,118.1 Z" fill="#CCFF66"></path>
                        <path d="M77.5,118.1 C68.8,98.6 57.4,81 31.6,73.9 C43.4,72.7 54.6,73.3 65.3,76.7 C53.3,63.5 49.4,45.9 50.3,25.6 C67.4,28.1 79.6,39.5 87.3,59 C89.5,35.1 100.4,19.4 119,11.3 C126.8,25.2 129.4,41.2 126.1,59.7 C136.5,51.2 150.4,47.2 169.7,50.2 C148.5,56.8 134.4,70.1 126.7,89.6 L77.5,118.1 Z" fill="#51AD67"></path>
                    </g>
                </g>
            </g>
            <g id="Group" transform="translate(1084.000000, 398.000000)">
                <polygon id="Path" fill="#66FFCC" points="0.3 9.2 160.2 101.5 160.2 236.6 138.3 224 96.3 235.4 110.6 208 0.3 144.3"></polygon>
                <polygon id="Path" fill="#3CD6A3" points="174.9 93 160.2 101.5 160.2 236.6 174.9 228.1"></polygon>
                <polygon id="Path" fill="#C4FFEB" points="174.9 93 160.2 101.5 0.3 9.2 15 0.6"></polygon>
                <polygon id="Path" fill="#FFFFFF" points="14.6 37.6 145.9 113.5 145.9 210.1 14.6 134.2"></polygon>
                <path d="M34,88.6 L57.1,102 L57.1,119 L34,105.7 L34,88.6 Z M103.3,128.7 L126.4,142.1 L126.4,159.1 L103.3,145.7 L103.3,128.7 Z M68.7,108.7 L91.8,122 L91.8,139 L68.7,125.7 L68.7,108.7 Z" id="Shape" fill="#666666"></path>
            </g>
            <g id="Group" transform="translate(893.000000, 121.000000)">
                <polygon id="Path" fill="#FF944D" points="0.7 8.6 160.6 100.9 160.6 236.1 53.3 174.1 49.3 211.6 25.6 158.1 0.7 143.7"></polygon>
                <path d="M175.4,92.4 L160.6,100.9 L160.6,236 L175.4,227.5 L175.4,92.4 Z M66.3,181.6 L64,203.1 L49.2,211.6 L53.2,174.1 L66.3,181.6 Z" id="Shape" fill="#DA6D24"></path>
                <polygon id="Path" fill="#FFC8A4" points="175.4 92.4 160.6 100.9 0.7 8.6 15.5 0.1"></polygon>
                <polygon id="Path" fill="#FFFFFF" points="15 37.1 146.4 112.9 146.4 209.5 15 133.7"></polygon>
                <path d="M43.7,74.5 L116.5,116.6 L80.1,122.4 L43.7,74.5 Z M117.9,121.4 L117.9,172.2 L43.4,129.2 L43.4,79.9 L79.7,127.5 L117.9,121.4 Z" id="Shape" fill="#FF6666"></path>
            </g>
            <g id="Group" transform="translate(436.000000, 181.000000)">
                <polygon id="Path" fill="#964CFF" points="0.5 9 160.4 101.3 160.4 236.5 0.5 144.1"></polygon>
                <polygon id="Path" fill="#6F24D9" points="175.1 92.8 160.4 101.3 160.4 236.5 175.1 228"></polygon>
                <polygon id="Path" fill="#C9A3FF" points="175.1 92.8 160.4 101.3 0.5 9 15.2 0.5"></polygon>
                <polygon id="Path" fill="#FFFFFF" points="14.8 37.5 146.1 113.3 146.1 209.9 14.8 134.1"></polygon>
                <path d="M87,134.8 C95.4,127.6 109.6,114.1 96.6,101.9 C93.3,98.9 88.6,94.1 85.5,94.7 C80.4,95.7 77.9,100.8 77.2,105.9 C77,107.9 82.5,109.8 83.3,112.1 C84.7,116.6 82.8,122 78.3,125.8 C73.8,129.6 67.8,131.1 63.1,129.4 C60.6,128.5 59.2,123.1 57,123.2 C51.5,123.3 45.9,125.2 44.3,129.8 C43.4,132.6 48,137.4 51,140.7 C62.9,154 78.6,142.1 87,134.8 L87,134.8 Z" id="Path" fill="#33CC66"></path>
            </g>
            <g id="Group" transform="translate(696.000000, 908.000000)">
                <polygon id="Path" fill="url(#linearGradient-5)" points="553.4 169.1 256.8 340.1 217 332.3 504 166.7 504 159.3 497 155.3 497 136.9"></polygon>
                <g>
                    <polygon id="Path" fill="#CCCCCC" points="16 179.4 212.4 292.8 212.4 322.4 16 209"></polygon>
                    <polygon id="Path" fill="#999999" points="497 128.4 212.4 292.8 212.4 322.4 497 158"></polygon>
                    <path d="M504.1,121.8 L217.1,287.5 L7,166.2 L294,0.6 L504.1,121.8 Z M504,159.3 L217,325 L212.3,322.3 L497,158 L497,155.3 L504,159.3 Z" id="Shape" fill="#4B73FF"></path>
                    <path d="M7,166.2 L217,287.5 L217,295.5 L16,179.4 L16,209 L217,325 L217,332.2 L7,211 C-2.7,197.6 -0.4,169.2 7,166.2 L7,166.2 Z" id="Path" fill="#244BD8"></path>
                    <path d="M504,121.8 L217,287.5 L217,295.5 L504,129.7 L504,121.8 Z M217,325.1 L217,332.3 L504,166.7 L504,159.3 L217,325.1 Z" id="Shape" fill="#1E3DAF"></path>
                    <path d="M452.5,92.1 L165.6,257.8 L181.1,266.7 L468,101 L452.5,92.1 Z M426.5,77 L139.6,242.7 L155.1,251.6 L442,86 L426.5,77 Z" id="Shape" fill="#66FFCC"></path>
                </g>
            </g>
            <g id="Group" transform="translate(123.000000, 865.000000)">
                <path d="M236.9,23.7 L55.2,128.7 L24.2,135.6 L35.3,124.8 L218.6,19 L215,6.5 L226.3,5.4 C238.9,4.8 250.2,16.4 236.9,23.7 L236.9,23.7 Z" id="Path" fill="url(#linearGradient-6)"></path>
                <g id="Path">
                    <path d="M218.6,5.9 L35.3,111.7 L35.3,124.7 L218.6,18.9 C220.7,15 221.1,10.8 218.6,5.9 L218.6,5.9 Z" fill="#333333"></path>
                    <path d="M218.6,5.9 L35.3,111.7 L26.5,106.6 L209.8,0.8 C213.5,0.9 216.4,2.7 218.6,5.9 L218.6,5.9 Z" fill="#666666"></path>
                    <path d="M26.5,106.6 C39.3,107.6 39.4,118.9 35.3,124.7 L0.6,132.4 L26.5,106.6 Z" fill="#1A1A1A"></path>
                </g>
            </g>
            <g id="Group" transform="translate(100.000000, 893.000000)">
                <polygon id="Path" fill="#FFFFFF" points="492.7 113 194.8 285 0.4 172.7 298.2 0.7"></polygon>
                <path d="M434.3,118.1 L427.5,122.1 L290,42.6 L296.8,38.7 L434.3,118.1 Z M243.9,153.3 L237.6,156.9 L151.7,107.3 L158,103.7 L243.9,153.3 Z M321.2,183.4 L314.9,187 L164.3,100 L170.6,96.4 L321.2,183.4 Z M333.8,176.1 L327.5,179.7 L176.9,92.8 L183.2,89.2 L333.8,176.1 Z M346.4,168.9 L340.1,172.5 L202.5,93.1 L208.8,89.5 L346.4,168.9 Z M244,80.8 L237.7,84.4 L214.6,71 L220.9,67.4 L244,80.8 Z M384.1,147.1 L377.8,150.7 L227.2,63.8 L233.5,60.2 L384.1,147.1 Z M396.6,139.8 L390.3,143.4 L239.7,56.5 L246,52.9 L396.6,139.8 Z M409.2,132.6 L402.9,136.2 L252.3,49.2 L258.6,45.6 L409.2,132.6 Z M421.8,125.4 L415.5,129 L264.9,42 L271.2,38.4 L421.8,125.4 Z" id="Shape" fill="#808080"></path>
            </g>
        </g>
    </g>
</svg>