<?xml version="1.0" encoding="UTF-8"?>
<svg width="1000px" height="1000px" viewBox="0 0 1000 1000" version="1.1" xmlns="http://www.w3.org/2000/svg" xmlns:xlink="http://www.w3.org/1999/xlink">
    <!-- Generator: Sketch 60.1 (88133) - https://sketch.com -->
    <title>projects2</title>
    <desc>Created with Sketch.</desc>
    <g id="Page-1" stroke="none" stroke-width="1" fill="none" fill-rule="evenodd">
        <g id="projects2">
            <g id="Layer_3" fill="#FFFFFF" fill-rule="nonzero">
                <rect id="Rectangle" x="0" y="0" width="1000" height="1000"></rect>
            </g>
            <g id="Layer_2" transform="translate(30.051404, 40.350024)">
                <g id="Group">
                    <g transform="translate(333.458071, 744.826784)" fill="#D1DEE5" fill-rule="nonzero" id="Path">
                        <path d="M173.228218,69.0339456 L33.3458071,1.29969774 L1.49981141,2.34945362 L20.9973598,27.5435945 L159.279972,97.2773774 C167.32896,101.326436 177.077734,97.8272495 180.727275,89.629156 L180.727275,89.629156 C184.176841,81.8309695 180.827263,72.7330853 173.228218,69.0339456 Z"></path>
                        <path d="M182.077105,83.1806557 C182.077105,85.3301558 181.627162,87.4796559 180.727275,89.5791676 C177.077734,97.7772611 167.278966,101.276447 159.279972,97.227389 L20.9973598,27.4936061 L1.49981141,2.29946524 L16.247957,1.84956987 L25.5467877,13.8967682 L163.8294,83.630551 C170.02862,86.7298303 177.227715,85.3801442 181.927124,80.831202 C182.027112,81.5810277 182.077105,82.3808417 182.077105,83.1806557 Z"></path>
                        <path d="M15.0481078,1.84956987 C15.0481078,1.84956987 17.3478187,10.1476401 9.64878675,12.8970007 L0.899886847,3.99906998 C-0.499937137,2.54940711 0.649918279,0.149965124 2.69966054,0.349918624 L15.0481078,1.84956987 Z"></path>
                    </g>
                    <line x1="250.568493" y1="278.635201" x2="239.21992" y2="272.236689" id="Path"></line>
                    <ellipse id="Oval" fill="#D1DEE5" fill-rule="nonzero" transform="translate(255.617838, 670.805989) rotate(-72.152085) translate(-255.617838, -670.805989) " cx="255.617838" cy="670.805989" rx="37.242753" ry="67.3427377"></ellipse>
                    <path d="M692.512923,585.963729 L329.80853,675.74285 C322.859403,677.442455 315.560321,675.342944 310.610943,670.194141 L293.06315,651.848407 C282.464483,640.800977 287.81381,622.455243 302.661943,618.756103 L665.366336,528.976982 C672.315462,527.277377 679.614545,529.376889 684.563922,534.525692 L702.111716,552.871425 C712.660389,563.968844 707.361056,582.314578 692.512923,585.963729 Z" id="Path" fill="#D1DEE5" fill-rule="nonzero"></path>
                    <polygon id="Path" fill="#E1E1E0" fill-rule="nonzero" points="405.848968 602.359916 601.724339 554.471053 555.830109 535.025575 359.154839 582.914439"></polygon>
                    <polygon id="Path" fill="#9A9A99" fill-rule="nonzero" points="442.844316 584.264125 427.646227 573.266682 428.446127 528.42711 442.844316 525.077889"></polygon>
                    <path d="M896.637256,167.860963 L896.637256,246.792606 C896.637256,249.691932 895.787363,252.391304 894.287551,254.69077 L793.950168,180.25808 C795.849929,177.108812 798.899546,174.759358 802.649074,173.759591 L878.489538,153.864218 C887.688381,151.464776 896.637256,158.363171 896.637256,167.860963 Z" id="Path" fill="#DD9F41" fill-rule="nonzero"></path>
                    <path d="M894.287551,254.69077 C892.38779,257.640084 889.388167,259.889561 885.838614,260.789351 L809.99815,280.734713 C800.8493,283.134155 791.850432,276.235759 791.850432,266.737968 L791.850432,187.756336 C791.850432,185.056963 792.600338,182.457568 793.950168,180.25808 L894.287551,254.69077 Z" id="Path" fill="#BC8836" fill-rule="nonzero"></path>
                    <path d="M688.813388,212.600558 L284.31425,290.082539 C281.564596,290.732388 279.164898,292.032086 277.165149,293.831667 L250.5185,278.685189 C253.968066,274.486166 258.717469,271.386887 264.316765,270.087189 L644.518958,181.207859 C647.868536,180.408045 651.918027,180.408045 656.167493,181.15787 C666.816154,183.107417 675.965003,189.955824 681.264337,199.403627 L688.813388,212.600558 Z" id="Path" fill="#BBB9B8" fill-rule="nonzero"></path>
                    <path d="M281.464608,561.519414 L262.816953,558.070216 C249.618613,552.621483 244.219292,537.774936 244.268942,526.627528 L244.919204,294.531504 C244.919204,288.582888 247.01894,283.034178 250.618487,278.635201 L277.265136,293.781679 C274.115532,296.681004 272.165778,300.880028 272.165778,305.42897 L281.464608,561.519414 Z" id="Path" fill="#9A9A99" fill-rule="nonzero"></path>
                    <polygon id="Path" fill="#BBB9B8" fill-rule="nonzero" points="543.481662 501.583353 542.431794 531.876308 542.331807 535.175541 541.481913 561.519414 442.844316 584.264125 442.844316 524.528017"></polygon>
                    <polygon id="Path" fill="#BBB9B8" fill-rule="nonzero" points="601.724339 554.471053 601.724339 572.966752 405.698987 621.505464 405.848968 602.359916"></polygon>
                    <polygon id="Path" fill="#9A9A99" fill-rule="nonzero" points="359.154839 582.914439 359.154839 599.060684 405.698987 621.505464 405.848968 602.359916"></polygon>
                    <path d="M705.811251,434.448965 L836.194856,404.45594 C844.943756,402.456405 851.142976,394.658219 851.142976,385.7103 L851.142976,297.280865" id="Path" stroke="#A5A2A0" stroke-width="12.7425" stroke-linecap="round" stroke-linejoin="round" stroke-dasharray="38.0451"></path>
                    <path d="M220.37229,551.721693 L76.3404009,584.863985 L76.9403254,484.587305" id="Path" stroke="#A5A2A0" stroke-width="12.7425" stroke-linecap="round" stroke-linejoin="round" stroke-dasharray="38.0451"></path>
                    <path d="M800.549338,194.004883 L800.549338,270.237154 C800.549338,279.385027 809.198251,286.083469 818.047138,283.734015 L891.237935,264.488491 C897.387162,262.888863 901.636627,257.340153 901.636627,250.99163 L901.636627,174.809347 C901.636627,165.661474 892.987715,158.963032 884.138827,161.312485 L810.948031,180.508021 C804.848797,182.107649 800.549338,187.656359 800.549338,194.004883 Z" id="Path" fill="#FEC64A" fill-rule="nonzero"></path>
                    <path d="M117.585215,331.922809 L117.585215,410.854452 C117.585215,413.753778 116.735322,416.45315 115.23551,418.752616 L14.8981267,344.319926 C16.7978878,341.170658 19.8475044,338.821204 23.5970329,337.821437 L99.4374966,317.926064 C108.586346,315.526622 117.585215,322.425017 117.585215,331.922809 Z" id="Path" fill="#1A649B" fill-rule="nonzero"></path>
                    <path d="M115.23551,418.752616 C113.335749,421.70193 110.336126,423.951407 106.786573,424.851197 L30.9461088,444.796559 C21.7972592,447.196001 12.7983907,440.297605 12.7983907,430.799814 L12.7983907,351.818182 C12.7983907,349.11881 13.5482964,346.519414 14.8981267,344.319926 L115.23551,418.752616 Z" id="Path" fill="#0B4B77" fill-rule="nonzero"></path>
                    <path d="M21.4972969,358.066729 L21.4972969,434.299 C21.4972969,443.446873 30.1462094,450.145315 38.9950967,447.795861 L112.185894,428.550337 C118.33512,426.950709 122.584586,421.402 122.584586,415.053476 L122.584586,338.871193 C122.584586,329.72332 113.935674,323.024878 105.086786,325.374332 L31.8959894,344.569867 C25.7967563,346.169495 21.4972969,351.718205 21.4972969,358.066729 Z" id="Path" fill="#207FC3" fill-rule="nonzero"></path>
                    <g transform="translate(185.476678, 76.982097)" fill-rule="nonzero" id="Path">
                        <path d="M105.086786,14.8965357 L105.086786,93.8281795 C105.086786,96.7275052 104.236893,99.4268775 102.737082,101.726343 L2.39969826,27.2436643 C4.29945938,24.0943967 7.34907592,21.744943 11.0986044,20.7451755 L86.9390682,0.849802372 C96.1379115,-1.54963962 105.086786,5.39874448 105.086786,14.8965357 Z" fill="#8FB133"></path>
                        <path d="M102.737082,101.726343 C100.837321,104.675657 97.8376978,106.925134 94.2881441,107.824924 L18.4476804,127.770286 C9.29883076,130.169728 0.299962282,123.271332 0.299962282,113.773541 L0.299962282,34.7919089 C0.299962282,32.0925366 1.04986799,29.4931411 2.39969826,27.2936526 L102.737082,101.726343 Z" fill="#779633"></path>
                        <path d="M8.99886847,40.9904673 L8.99886847,117.222739 C8.99886847,126.370611 17.6477809,133.069054 26.4966683,130.7196 L99.7374589,111.474076 C105.886686,109.874448 110.136151,104.325738 110.136151,97.9772146 L110.136151,21.7949314 C110.136151,12.6470588 101.487239,5.9486166 92.6383516,8.29807022 L19.4475546,27.4936061 C13.2983279,29.0932341 8.99886847,34.6419437 8.99886847,40.9904673 Z" fill="#A1C635"></path>
                        <path d="M61.9422113,98.5270867 C57.0928211,97.7272727 52.393412,95.6777494 48.3439212,92.3285282 L31.4960397,78.2817949 C25.5967814,73.3829342 21.997234,66.5345269 21.3473158,58.8863055 C20.6973975,51.2880725 23.047102,43.8897931 27.946486,38.0411532 C30.7961277,34.6919321 35.8454927,34.2420367 39.1950716,37.0913741 C42.5446504,39.9407115 42.9945938,44.9895373 40.1449521,48.3387584 C37.9952224,50.8881655 36.9453545,54.1374099 37.2453167,57.4366426 C37.545279,60.7858638 39.0950841,63.7851662 41.6947573,65.884678 L58.5926325,79.9314113 C63.6419976,84.1304348 71.1410546,83.6805394 75.5904952,78.8816554 L76.7403506,77.6819344 C79.7399734,74.4826784 84.8393322,74.2827249 88.0389299,77.3320158 C91.2385276,80.3313183 91.4385024,85.4301325 88.3888859,88.6293885 L87.2390305,89.8291095 C80.5898665,97.0274355 71.0410672,99.9767496 61.9422113,98.5270867 Z" fill="#779633"></path>
                        <path d="M69.341281,98.5270867 C64.4918907,97.7272727 59.7924816,95.6777494 55.7429908,92.3285282 L38.8451156,78.2817949 C32.9458574,73.3829342 29.34631,66.5345269 28.6963917,58.8863055 C28.0464734,51.2880725 30.396178,43.8897931 35.2955619,38.0411532 C38.1452036,34.6919321 43.1945687,34.2420367 46.5441475,37.0913741 C49.8937263,39.9407115 50.3436697,44.9895373 47.4940281,48.3387584 C45.3442984,50.8881655 44.2944304,54.1374099 44.5943927,57.4366426 C44.8943549,60.7858638 46.4441601,63.7851662 49.0438332,65.884678 L65.9417084,79.9314113 C70.9910735,84.1304348 78.4901306,83.6805394 82.9395711,78.8816554 L84.0894265,77.6819344 C87.0890493,74.4826784 92.1884081,74.2827249 95.3880058,77.3320158 C98.5876035,80.3313183 98.7875783,85.4301325 95.7379618,88.6293885 L94.5881064,89.8291095 C87.9889362,97.0274355 78.3901431,99.9767496 69.341281,98.5270867 Z" fill="#FFFFFF"></path>
                    </g>
                    <g transform="translate(569.928337, 0.000000)" fill-rule="nonzero" id="Path">
                        <path d="M104.986799,14.4966287 L104.986799,93.4282725 C104.986799,96.3275982 104.136906,99.0269705 102.637094,101.326436 L2.29971083,26.8937456 C4.19947195,23.744478 7.24908849,21.3950244 10.998617,20.3952569 L86.8390808,0.499883748 C96.0379241,-1.94954662 104.986799,4.99883748 104.986799,14.4966287 Z" fill="#C83D20"></path>
                        <path d="M102.637094,101.326436 C100.737333,104.27575 97.7377104,106.525227 94.1881567,107.425017 L18.3476929,127.370379 C9.19884333,129.769821 0.199974855,122.871425 0.199974855,113.373634 L0.199974855,34.3920019 C0.199974855,31.6926296 0.949880561,29.0932341 2.29971083,26.8937456 L102.637094,101.326436 Z" fill="#A5331D"></path>
                        <path d="M8.89888105,40.5905603 L8.89888105,116.822832 C8.89888105,125.970704 17.5477935,132.669147 26.3966809,130.319693 L99.5874778,111.074169 C105.736705,109.474541 109.98617,103.925831 109.98617,97.5773076 L109.98617,21.3950244 C109.98617,12.2471518 101.337258,5.5487096 92.4883704,7.89816322 L19.2975735,27.0936991 C13.1983404,28.6933271 8.89888105,34.2420367 8.89888105,40.5905603 Z" fill="#F0492A"></path>
                    </g>
                    <path d="M61.8422239,317.42618 L61.8422239,184.007208 L169.578677,159.31295" id="Path" stroke="#A5A2A0" stroke-width="12.7425" stroke-linecap="round" stroke-linejoin="round" stroke-dasharray="38.0451"></path>
                    <path d="M698.412181,54.9372239 L847.043492,20.8951407 L847.043492,148.715415" id="Path" stroke="#A5A2A0" stroke-width="12.7425" stroke-linecap="round" stroke-linejoin="round" stroke-dasharray="38.0451"></path>
                    <line x1="317.56007" y1="134.71867" x2="547.931103" y2="80.8811904" id="Path" stroke="#A5A2A0" stroke-width="12.7425" stroke-linecap="round" stroke-linejoin="round" stroke-dasharray="38.0451"></line>
                    <path d="M410.798346,685.490584 C409.798472,685.490584 408.798597,685.190653 407.89871,684.590793 C401.099565,679.791909 395.950213,678.342246 395.900219,678.342246 C393.250552,677.59242 391.650753,674.84306 392.400659,672.193676 C393.100571,669.544292 395.850225,667.944664 398.499892,668.644501 C398.749861,668.69449 405.299037,670.494071 413.647987,676.392699 C415.897705,677.992327 416.447635,681.091607 414.847837,683.391072 C413.897956,684.740758 412.348151,685.490584 410.798346,685.490584 Z" id="Path" fill="#FFFFFF" fill-rule="nonzero"></path>
                    <g transform="translate(179.977369, 618.856080)" fill-rule="nonzero" id="Path">
                        <path d="M139.882411,54.0874215 C139.882411,58.5363869 137.132757,62.4854685 132.983279,64.0850965 L108.63634,73.3329458 C93.088295,79.2315741 75.6904826,77.7819112 61.3422868,69.3838642 L4.04949081,35.8416647 C1.59979884,34.3920019 0.149981141,31.7926064 0.149981141,28.9932574 C0.149981141,28.4433853 0.199974855,27.8435248 0.349955996,27.2936526 C2.24971712,18.6456638 8.29895648,11.5473146 16.5479192,8.29807022 L20.1474666,6.84840735 L23.7970077,5.39874448 L26.0467249,4.49895373 C26.196706,4.44896536 26.3966809,4.34898861 26.546662,4.29900023 C27.7465111,3.84910486 28.9463603,3.39920949 30.1462094,3.04929086 C44.7943675,-1.54963962 60.7423622,-0.349918624 74.5906209,6.49848872 L126.084146,31.8925831 C130.283618,33.9920949 133.733184,37.1913508 136.132883,41.0404557 C138.532581,44.8895606 139.882411,49.3885143 139.882411,54.0874215 Z" fill="#BBB9B8"></path>
                        <path d="M139.882411,54.0874215 C139.882411,58.5363869 137.132757,62.4854685 132.983279,64.0850965 L108.63634,73.3329458 C93.088295,79.2315741 75.6904826,77.7819112 61.3422868,69.3838642 L4.04949081,35.8416647 C1.59979884,34.3920019 0.149981141,31.7926064 0.149981141,28.9932574 C0.149981141,28.4433853 0.199974855,27.8435248 0.349955996,27.2936526 C1.39982398,22.5947454 3.6495411,18.3457336 6.84913878,14.8965357 C7.04911364,15.0465008 7.24908849,15.1964659 7.49905706,15.3464311 L64.791853,48.8886306 C79.1400488,57.2866775 96.5378612,58.7363404 112.085906,52.8377122 L136.432845,43.5898628 C136.782801,43.4398977 137.082763,43.3399209 137.382725,43.1899558 C138.982524,46.4891886 139.882411,50.2383167 139.882411,54.0874215 Z" fill="#9A9A99"></path>
                        <path d="M81.4897534,35.9916299 C81.2897785,36.1915834 81.03981,36.2915601 80.8398351,36.2915601 C80.6398603,36.2915601 80.3898917,36.2415717 80.2399105,36.0416182 C54.5431417,12.5970704 24.5469134,5.64868635 24.2469512,5.59869798 C24.09697,5.5487096 23.9969826,5.49872123 23.8969952,5.44873285 L26.1467123,4.54894211 C26.2966934,4.49895373 26.4966683,4.39897698 26.6466494,4.34898861 C33.8957379,6.3485236 59.2925445,14.4466403 81.4897534,34.7419205 C81.7897157,35.0418507 81.7897157,35.5917229 81.4897534,35.9916299 Z" fill="#002B42"></path>
                        <g transform="translate(36.406261, 4.498954)">
                            <path d="M22.736302,15.0964892 C21.7864214,16.4961637 20.2366163,17.1960009 18.6368174,17.1960009 C17.6369432,17.1960009 16.6370689,16.8960707 15.737182,16.2962102 C8.93803696,11.4973262 3.78868445,10.0476633 3.73869073,10.0476633 C1.0890239,9.29783771 -0.510774935,6.5484771 0.239130771,3.89909323 C0.389111912,3.24924436 0.689074194,2.69937224 1.0890239,2.19948849 C1.58896104,3.74912811 2.83880388,4.99883748 4.53859015,5.49872123 C4.58858387,5.49872123 9.73793638,6.99837247 16.5370814,11.7472681 C17.3869746,12.3471286 18.4368426,12.6470588 19.4367168,12.6470588 C20.9365283,12.6470588 22.4363397,11.9472216 23.4362139,10.6475238 C23.8861574,12.0971867 23.6861825,13.7468031 22.736302,15.0964892 Z" fill="#C0CACE"></path>
                            <path d="M23.3862202,10.6975122 C22.4363397,11.99721 20.8865345,12.6970472 19.3867231,12.6970472 C18.3868489,12.6970472 17.3869746,12.3971169 16.4870877,11.7972565 C9.68794267,6.99837247 4.53859015,5.5487096 4.48859644,5.5487096 C2.78881017,5.09881423 1.53896733,3.79911648 1.03903019,2.24947687 C2.23887932,0.699837247 4.28862158,-0.0999767496 6.28837013,0.449895373 C6.58833242,0.499883748 13.0875152,2.29946524 21.4364654,8.19809347 C22.4363397,8.79795396 23.0862579,9.69774471 23.3862202,10.6975122 Z" fill="#E1E1E0"></path>
                        </g>
                    </g>
                    <g transform="translate(773.402752, 497.384329)" fill-rule="nonzero">
                        <ellipse id="Oval" fill="#D1DEE5" cx="89.3887602" cy="148.765403" rx="77.0403129" ry="38.9909323"></ellipse>
                        <path d="M79.0900551,162.462218 L35.8454927,162.462218 C16.1479695,162.462218 0.199974855,146.515927 0.199974855,126.820507 L0.199974855,20.4952337 L114.735573,20.4952337 L114.735573,126.820507 C114.735573,146.515927 98.7375846,162.462218 79.0900551,162.462218 Z" id="Path" fill="#EE433C"></path>
                        <path d="M75.3405266,162.462218 L35.8454927,162.462218 C16.1479695,162.462218 0.199974855,146.515927 0.199974855,126.820507 L0.199974855,20.4952337 L39.6950087,20.4952337 L39.6950087,126.820507 C39.6950087,146.515927 55.6430034,162.462218 75.3405266,162.462218 Z" id="Path" fill="#DA3D36"></path>
                        <path d="M114.735573,20.4952337 C114.735573,23.1446175 113.285755,25.6940246 110.686082,27.9934899 C102.287138,35.4917461 81.5897408,40.7905138 57.4427771,40.7905138 C33.2958133,40.7905138 12.5984159,35.4917461 4.19947195,27.9934899 C1.59979884,25.6440363 0.149981141,23.1446175 0.149981141,20.4952337 C0.149981141,9.29783771 25.7967563,0.199953499 57.4427771,0.199953499 C89.0887979,0.199953499 114.735573,9.29783771 114.735573,20.4952337 Z" id="Path" fill="#CB3832"></path>
                        <path d="M110.686082,27.9934899 C102.287138,35.4917461 81.5897408,40.7905138 57.4427771,40.7905138 C33.2958133,40.7905138 12.5984159,35.4917461 4.19947195,27.9934899 C12.5984159,20.4952337 33.2958133,15.1964659 57.4427771,15.1964659 C81.5897408,15.1964659 102.287138,20.4952337 110.686082,27.9934899 Z" id="Path" fill="#4A311A"></path>
                        <path d="M140.68231,55.9869798 L140.68231,103.775866 C140.68231,118.072541 129.033775,129.719833 114.735573,129.719833 L114.735573,115.173216 C120.984787,115.173216 126.13414,110.074401 126.13414,103.775866 L126.13414,55.9869798 C126.13414,49.7384329 121.034781,44.5896303 114.735573,44.5896303 L114.735573,30.0430133 C129.033775,30.0430133 140.68231,41.6903046 140.68231,55.9869798 Z" id="Path" fill="#EE433C"></path>
                        <path d="M133.283241,55.9869798 L133.283241,103.775866 C133.283241,115.523134 125.434228,125.470821 114.685579,128.670077 L114.685579,115.173216 C120.934794,115.173216 126.084146,110.074401 126.084146,103.775866 L126.084146,55.9869798 C126.084146,49.7384329 120.984787,44.5896303 114.685579,44.5896303 L114.685579,31.0927691 C125.434228,34.2920251 133.283241,44.2397117 133.283241,55.9869798 Z" id="Path" fill="#DA3D36"></path>
                        <path d="M73.0908095,154.664032 L80.6398603,154.664032 C94.4381253,154.664032 105.586723,143.466636 105.586723,129.719833 L105.586723,59.086259 C105.586723,56.9867473 103.886937,55.2871425 101.787201,55.2871425 L101.787201,55.2871425 C99.6874652,55.2871425 97.9876789,56.9867473 97.9876789,59.086259 L97.9876789,129.719833 C98.0876664,143.466636 86.8890745,154.664032 73.0908095,154.664032 Z" id="Path" fill="#F94E4E"></path>
                        <ellipse id="Oval" fill="#F94E4E" cx="100.537358" cy="45.8893281" rx="5.0993588" ry="5.09881423"></ellipse>
                    </g>
                    <g transform="translate(409.343992, 625.354569)">
                        <path d="M418.251946,96.2276215 C419.301814,93.228319 418.301939,89.629156 414.952361,87.8795629 L276.669748,16.5461521 C269.770616,12.9969774 261.821615,12.0971867 254.322558,14.0467333 L10.0032793,77.2820274 C6.65370043,78.1318298 4.90392045,81.0311555 4.90392045,83.9804697 L4.90392045,83.9804697 L4.90392045,84.1304348 C4.90392045,84.1304348 4.90392045,84.1304348 4.90392045,84.1804232 L4.90392045,95.5777726 C4.90392045,101.926296 8.45347412,107.674959 14.0527701,110.574285 L140.886822,177.108812 C149.285766,181.507789 158.984546,182.70751 168.18339,180.508021 L407.903247,122.671472 C414.152461,121.171821 418.601902,115.623111 418.601902,109.174611 L418.601902,96.1276447 L418.251946,96.2276215 Z" id="Path" fill="#D1DEE5" fill-rule="nonzero"></path>
                        <path d="M144.686344,142.316903 L144.686344,142.466868 L0.0045365031,69.0339456 L0.0045365031,80.2813299 C0.0045365031,86.4299 3.45410275,92.028598 8.90341755,94.8779354 L132.087928,159.512904 C140.236904,163.761916 149.635722,164.961637 158.584596,162.812137 L391.355328,106.675192 C397.454561,105.225529 401.704026,99.8267845 401.704026,93.5782376 L401.704026,80.9311788 L144.686344,142.316903 Z" id="Path" fill="#002237" fill-rule="nonzero"></path>
                        <path d="M396.654661,85.1801907 L155.984923,144.966287 C148.785829,146.765868 141.186784,145.866078 134.587614,142.466868 L3.60408389,74.8825854 C-1.79523719,72.0832365 -0.895350344,64.1350849 5.00390788,62.5854452 L242.174086,1.14973262 C249.473168,-0.749825622 257.1722,0.149965124 263.871358,3.59916299 L398.104479,72.8830505 C403.5038,75.6823994 402.603913,83.7305278 396.654661,85.1801907 Z" id="Path" fill="#002B42" fill-rule="nonzero"></path>
                        <path d="M42.2492246,77.1820507 L139.38701,126.520577 C147.685967,130.7196 157.184772,131.869333 166.233635,129.669844 L362.408967,82.6307835 C367.55832,81.3810742 368.358219,74.4326901 363.65881,72.0332481 L267.070955,23.4445478 C258.871986,19.2955127 249.473168,18.1957684 240.524293,20.2952802 L43.4990675,66.5845152 C38.3997087,67.7842362 37.5498155,74.7826087 42.2492246,77.1820507 Z" id="Path" fill="#FEFEFE" fill-rule="nonzero"></path>
                        <g transform="translate(143.997270, 15.010251)" id="Oval" stroke="#002B42" stroke-linecap="round" stroke-linejoin="round">
                            <path d="M58.9950218,116.03346 C68.1881908,116.03346 75.6403103,90.0700382 75.6403103,58.0423864 C75.6403103,26.0147346 68.1873579,0.0510733115 58.9941888,0.0510733115 C49.8010197,0.0510733115 42.3489002,26.0144955 42.3489002,58.0421473 C42.3489002,90.0697991 49.8018527,116.03346 58.9950218,116.03346 Z" stroke-width="7.39770868" stroke-dasharray="22.08732893712602" transform="translate(58.994605, 58.042267) rotate(-86.135137) translate(-58.994605, -58.042267) "></path>
                            <path d="M58.9950657,74.7327483 C91.0223085,74.7344427 116.984638,67.282705 116.984638,58.0888261 C116.984638,48.8949473 91.0205468,41.4404621 58.993304,41.4387671 C26.9660612,41.4370728 1.0037319,48.8888104 1.0037319,58.0826893 C1.0037319,67.2765682 26.9678229,74.7310534 58.9950657,74.7327483 Z" stroke-width="7.39794098" stroke-dasharray="22.08802252837111" transform="translate(58.994185, 58.085758) rotate(-41.132026) translate(-58.994185, -58.085758) "></path>
                        </g>
                    </g>
                    <g transform="translate(315.460334, 725.331318)" fill-rule="nonzero" id="Path">
                        <path d="M173.228218,69.1339223 L33.3458071,1.34968612 L1.49981141,2.39944199 L20.9973598,27.5935829 L159.279972,97.3273657 C167.32896,101.376424 177.077734,97.8772379 180.727275,89.6791444 L180.727275,89.6791444 C184.226835,81.9309463 180.877256,72.8330621 173.228218,69.1339223 Z" fill="#002B42"></path>
                        <path d="M182.127099,83.2806324 C182.127099,85.4301325 181.677156,87.5796326 180.777269,89.6791444 C177.127728,97.8772379 167.32896,101.376424 159.329966,97.3273657 L21.0473535,27.5935829 L1.54980513,2.39944199 L16.2979507,1.94954662 L25.5967814,13.9967449 L163.879394,83.7305278 C170.078614,86.829807 177.277709,85.4801209 181.977118,80.9311788 C182.077105,81.6810044 182.127099,82.4808184 182.127099,83.2806324 Z" fill="#002237"></path>
                        <path d="M15.0981015,1.94954662 C15.0981015,1.94954662 17.3978124,10.2476168 9.69878047,12.9969774 L0.949880561,4.09904673 C-0.449943424,2.64938386 0.699911992,0.249941874 2.74965426,0.449895373 L15.0981015,1.94954662 Z" fill="#10405B"></path>
                    </g>
                    <path d="M272.06579,305.328993 L272.06579,550.671937 C272.06579,557.670309 278.564973,562.819112 285.364118,561.269472 L678.514683,470.490584 C684.513928,469.090909 688.813388,463.742153 688.813388,457.593583 L688.813388,216.499651 C688.813388,206.451988 679.464563,199.00372 669.665796,201.253197 L284.214263,290.132527 C277.115155,291.732155 272.06579,298.080679 272.06579,305.328993 Z" id="Path" fill="#002B42" fill-rule="nonzero"></path>
                    <polygon id="Path" fill="#FEFEFE" fill-rule="nonzero" points="298.262496 309.078121 298.262496 506.082306 662.566688 422.501744 662.566688 225.647524"></polygon>
                    <path d="M688.813388,438.897931 L688.813388,458.943269 C688.813388,464.342013 685.113853,468.990932 679.864513,470.190653 L285.464105,561.219484 C278.614967,562.819112 272.06579,557.570332 272.06579,550.57196 L272.06579,534.725645 L688.813388,438.897931 Z" id="Path" fill="#E1E1E0" fill-rule="nonzero"></path>
                    <path d="M493.202626,463.964098 C509.022817,463.964098 521.846659,419.241402 521.84548,364.072405 C521.8443,308.903408 509.018544,264.179486 493.198353,264.179486 C477.378162,264.179486 464.554319,308.902182 464.555499,364.071179 C464.556679,419.240177 477.382435,463.964098 493.202626,463.964098 Z" id="Oval" stroke="#002B42" stroke-width="12.7431777" stroke-linecap="round" stroke-linejoin="round" stroke-dasharray="38.04742210288313" transform="translate(493.200489, 364.071792) rotate(-78.194552) translate(-493.200489, -364.071792) "></path>
                    <path d="M493.141529,392.727769 C548.30581,392.730468 593.023895,379.908247 593.023895,364.088537 C593.023895,348.268826 548.303007,335.442229 493.138725,335.439529 C437.974444,335.436831 393.25636,348.259052 393.25636,364.078762 C393.25636,379.898473 437.977247,392.72507 493.141529,392.727769 Z" id="Oval" stroke="#002B42" stroke-width="12.7424394" stroke-linecap="round" stroke-linejoin="round" stroke-dasharray="38.04521780585722" transform="translate(493.140127, 364.083649) rotate(-33.195849) translate(-493.140127, -364.083649) "></path>
                    <ellipse id="Oval" fill="#9A9A99" fill-rule="nonzero" cx="492.888024" cy="498.134155" rx="9.34882447" ry="9.34782609"></ellipse>
                    <ellipse id="Oval" fill="#BBB9B8" fill-rule="nonzero" cx="511.785648" cy="493.435248" rx="4.64941538" ry="4.64891886"></ellipse>
                    <ellipse id="Oval" fill="#BBB9B8" fill-rule="nonzero" cx="474.190375" cy="502.783074" rx="4.64941538" ry="4.64891886"></ellipse>
                    <g transform="translate(0.000000, 673.843292)" fill-rule="nonzero" id="Path">
                        <path d="M0.0999874275,39.2908626 L0.0999874275,61.885608 C0.0999874275,70.8335271 4.39944681,79.1815857 11.6485353,84.430365 L165.329211,194.754708 C171.878388,199.453615 180.127351,201.053243 187.92637,199.203674 L327.25885,165.911416 C337.057618,163.561962 343.956751,154.71402 343.756776,144.616368 L343.40682,124.471053 L179.277457,164.461753 L0.0999874275,39.2908626 Z" fill="#779633"></path>
                        <path d="M340.007247,113.973495 C346.406442,117.772611 344.956625,127.420367 337.707536,129.16996 L300.162257,138.217856 L193.57566,163.911881 C183.876879,166.261335 173.628168,164.361776 165.429199,158.663102 L154.230607,150.914904 L131.833423,135.368519 L125.73419,131.119507 L116.735322,124.87096 L7.24908849,48.8886306 L5.69928337,47.7888863 L3.69953482,46.3892118 C-2.1997234,42.2901651 -0.499937137,33.1922809 6.49918279,31.4926761 L130.98353,1.44966287 C139.832417,-0.699837247 149.181242,0.699837247 157.030255,5.3487561 L162.579557,8.64798884 L165.329211,10.2476168 L182.227087,20.2952802 L199.474918,30.542897 L288.913672,83.5805627 L299.162383,89.6791444 L304.061767,92.5784701 L330.658423,108.324808 L340.007247,113.973495 Z" fill="#A1C635"></path>
                        <path d="M343.656788,137.318066 L184.076854,173.959544 C181.077231,174.659382 178.927501,177.308765 178.927501,180.408045 L178.927501,180.408045 C178.927501,184.657056 182.877005,187.806324 187.076477,186.856545 L340.157228,151.414787 C342.206971,150.914904 343.656788,149.115322 343.656788,146.965822 L343.656788,137.318066 Z" fill="#FFFFFF"></path>
                        <polygon fill="#FEC64A" points="208.823742 35.9916299 42.3446755 73.2829575 42.3446755 106.42525 68.5913752 125.270867 69.5912495 92.7284352 240.01982 54.687282"></polygon>
                        <polygon fill="#BC8836" points="42.3446755 73.2829575 69.5912495 92.7284352 68.5913752 125.270867 42.3446755 106.42525"></polygon>
                    </g>
                    <g transform="translate(234.470517, 832.306440)">
                        <polyline id="Path" points="192.425804 16.1962334 189.076225 17.0460358 148.331349 27.0437108"></polyline>
                        <g transform="translate(102.987050, 0.000000)" fill-rule="nonzero">
                            <path d="M101.087289,32.5924204 C101.087289,37.8911881 97.4377481,42.4901186 92.2883956,43.6898396 L37.8452413,56.3868868 C36.8953607,56.5868403 35.8954865,56.686817 34.9456059,56.686817 L34.9456059,33.0923041 L101.087289,17.7958614 L101.087289,32.5924204 Z" id="Path" fill="#14598B"></path>
                            <path d="M34.9456059,33.0923041 L34.9456059,56.686817 C33.1458322,56.6368286 31.3960522,56.1869333 29.7962534,55.2871425 L6.24921422,42.4401302 C2.59967311,40.4405952 0.299962282,36.5914904 0.299962282,32.4424552 L0.299962282,19.2955127 L33.1458322,33.4422227 L34.9456059,33.0923041 Z" id="Path" fill="#1B68A1"></path>
                            <path d="M97.6377229,21.5449895 L37.7952476,34.6919321 C33.6457693,35.5917229 29.2963163,35.1418275 25.3968066,33.3922344 L2.84964168,23.1946059 C-0.949880561,21.4950012 -0.449943424,15.9462916 3.59954739,14.9465241 L60.0424502,0.999767496 C64.2419222,-0.0499883748 68.6913627,0.349918624 72.6908598,2.04952337 L78.1901683,4.44896536 L78.1901683,6.44850035 L90.288647,11.8972332 L93.5882321,11.0974192 L98.4376223,13.1969309 C102.387126,14.9465241 101.837195,20.6451988 97.6377229,21.5449895 Z" id="Path" fill="#207FC3"></path>
                            <polygon id="Path" fill="#D1DEE5" points="90.4386282 11.99721 50.6936257 21.6949547 38.5451533 15.5463846 36.3454299 14.4466403 75.2905329 5.1488026 75.2905329 5.1488026 78.240162 6.44850035 90.3386407 11.9472216"></polygon>
                            <polygon id="Path" fill="#14598B" points="78.240162 4.44896536 78.240162 6.49848872 38.5451533 15.5463846 36.3454299 14.4466403 75.2905329 5.1488026"></polygon>
                            <ellipse id="Oval" fill="#869096" transform="translate(51.371201, 16.957811) rotate(-40.217854) translate(-51.371201, -16.957811) " cx="51.3712005" cy="16.9578113" rx="1.79970566" ry="2.04962841"></ellipse>
                            <path d="M84.0394328,9.09788421 C83.9394454,9.34782609 83.7394705,9.49779121 83.4895019,9.59776796 L55.4430285,17.2959777 C55.3430411,17.2959777 55.2930474,17.3459661 55.19306,17.3459661 C54.7931103,17.3459661 54.4431543,17.0960242 54.3431668,16.6961172 C54.1931857,16.2462218 54.493148,15.7463381 54.9430914,15.5963729 L81.9896905,8.19809347 L84.0394328,9.09788421 Z" id="Path" fill="#656F73"></path>
                        </g>
                        <path d="M32.2459454,64.8349221 L32.2459454,87.4296675 C29.1963288,87.229714 26.1467123,86.4299 23.397058,85.0302255 L4.19947195,75.3824692 C1.69978627,74.1327598 0.0999874275,71.5333643 0.0999874275,68.7340153 L0.0999874275,52.3878168 L29.3963037,65.4347826 L32.2459454,64.8349221 Z" id="Path" fill="#9A9A99" fill-rule="nonzero"></path>
                        <path d="M99.0375469,67.084399 C99.0375469,70.5835852 96.6378487,73.5828877 93.2882698,74.3327133 L39.0450904,86.8797954 C36.7953733,87.3796791 34.4956625,87.5796326 32.2459454,87.4296675 L32.2459454,64.8349221 L99.0375469,50.9881423 L99.0375469,67.084399 Z" id="Path" fill="#BBB9B8" fill-rule="nonzero"></path>
                        <path d="M3.04961654,57.2866775 L22.8471272,66.684492 C26.9966054,68.6340386 31.6460208,69.1839107 36.145455,68.2341316 L94.9380624,55.6370611 C99.8374463,54.5873053 100.537358,47.9388514 95.9879304,45.8393397 L72.7408535,35.2418042 C68.4413941,33.2922576 63.6419976,32.8423622 59.0425759,33.9920949 L3.9994971,47.5389444 C-0.699911992,48.7386654 -1.34983027,55.1871658 3.04961654,57.2866775 Z" id="Path" fill="#E1E1E0" fill-rule="nonzero"></path>
                        <polygon id="Path" fill="#EE433C" fill-rule="nonzero" points="24.6968946 42.4401302 63.7919787 62.285515 63.7919787 81.1811207 82.9395711 76.7321553 82.9395711 58.1864683 44.2444367 37.5912578"></polygon>
                        <polyline id="Path" fill="#C4372E" fill-rule="nonzero" points="63.7919787 62.285515 82.9395711 58.1864683 82.9395711 76.7321553 63.7919787 81.1811207 63.7919787 62.285515"></polyline>
                    </g>
                    <path d="M635.920039,34.3920019 C633.020403,32.9923274 629.770812,32.2924901 626.571214,32.2924901 C621.771818,32.2924901 617.022415,33.8421297 613.572849,36.7914439 C604.324012,44.6396187 601.774332,55.9869798 607.023672,65.884678 L621.821811,89.629156 C623.121648,91.7286678 626.221258,91.5787026 627.32112,89.3292258 L643.369102,56.4868635 C644.718932,53.887468 645.268863,51.3380609 645.268863,48.9386189 C645.218869,42.3401535 640.869416,36.8414322 635.920039,34.3920019 Z M635.070146,52.4877935 C634.070271,58.1864683 628.620957,62.8353871 622.921673,62.8353871 C617.22239,62.8353871 613.422868,58.1864683 614.422742,52.4877935 C615.422616,46.7891188 620.871931,42.1402 626.571214,42.1402 C632.270498,42.1901883 636.07002,46.7891188 635.070146,52.4877935 Z" id="Shape" fill="#A5331D" fill-rule="nonzero"></path>
                    <ellipse id="Oval" fill="#A5331D" fill-rule="nonzero" transform="translate(625.000942, 100.642555) rotate(-15.111898) translate(-625.000942, -100.642555) " cx="625.000942" cy="100.642555" rx="15.1476948" ry="3.5991201"></ellipse>
                    <path d="M641.569328,36.0416182 C638.669693,34.6419437 635.420102,33.9421065 632.220504,33.9421065 C627.421107,33.9421065 622.671705,35.4917461 619.222138,38.4410602 C609.973301,46.2892351 607.423622,57.6365961 612.672962,67.5342944 L627.471101,91.2787724 C628.770938,93.3782841 631.870548,93.228319 632.97041,90.9788421 L649.018392,58.1364799 C650.368222,55.5370844 650.918153,52.9876773 650.918153,50.5882353 C650.868159,43.9897698 646.518706,38.4910486 641.569328,36.0416182 Z M640.769429,54.1374099 C639.769555,59.8360846 634.32024,64.4850035 628.620957,64.4850035 C622.921673,64.4850035 619.122151,59.8360846 620.122025,54.1374099 C621.121899,48.4387352 626.571214,43.7898163 632.270498,43.7898163 C637.919787,43.8398047 641.769303,48.4387352 640.769429,54.1374099 Z" id="Shape" fill="#FFFFFF" fill-rule="nonzero"></path>
                    <ellipse id="Oval" fill="#FFFFFF" fill-rule="nonzero" transform="translate(630.649696, 102.296375) rotate(-15.111898) translate(-630.649696, -102.296375) " cx="630.649696" cy="102.296375" rx="15.1476948" ry="3.5991201"></ellipse>
                    <g transform="translate(825.396214, 189.455940)" fill-rule="nonzero" id="Path">
                        <path d="M47.2440595,15.8463148 L47.1940658,49.7884213 C47.1940658,50.1383399 46.9440972,50.4882585 46.5941412,50.5882353 L2.74965426,62.1355499 C1.54980513,62.4354801 0.349955996,61.5356894 0.349955996,60.28598 L0.349955996,27.6935596 C0.349955996,27.0936991 0.949880561,26.6937921 1.49981141,26.943734 L24.0469763,38.1911183 C24.3469386,38.3410835 24.7468883,38.2910951 24.9968569,37.9911648 L45.7942418,15.2464543 C46.3441726,14.7965589 47.2440595,15.1464776 47.2440595,15.8463148 Z" fill="#BC8836"></path>
                        <path d="M2.1997234,22.8446873 L23.1970832,0.649848872 C23.4470517,0.399906998 23.7970077,0.299930249 24.1469637,0.499883748 L46.1441978,11.597303 C46.7941161,11.9472216 46.7441223,12.8970007 45.9942166,13.0969542 L2.99962282,24.2443618 C2.24971712,24.3943269 1.64979255,23.4445478 2.1997234,22.8446873 Z" fill="#BC8836"></path>
                        <path d="M49.94372,18.545687 L49.8937263,52.4877935 C49.8937263,52.8377122 49.6437577,53.1876308 49.2938017,53.2876075 L5.4493148,64.8349221 C4.24946567,65.1348524 3.04961654,64.2350616 3.04961654,62.9853522 L3.04961654,30.3929319 C3.04961654,29.7930714 3.6495411,29.3931644 4.19947195,29.6431063 L26.7466368,40.8904906 C27.0465991,41.0404557 27.4465488,40.9904673 27.6965174,40.6905371 L48.4939023,17.9458266 C49.0438332,17.4459428 49.94372,17.7958614 49.94372,18.545687 Z" fill="#FFFFFF"></path>
                        <path d="M3.6495411,25.6440363 L24.6469009,3.44919786 C24.8968694,3.19925599 25.2468254,3.09927924 25.5967814,3.29923274 L47.5940155,14.3966519 C48.2439338,14.7465706 48.19394,15.6963497 47.4440343,15.8963032 L4.44944052,27.0437108 C3.69953482,27.2436643 3.09961025,26.2438968 3.6495411,25.6440363 Z" fill="#FFFFFF"></path>
                    </g>
                    <path d="M102.437119,406.705417 L89.938691,396.507789 C93.788207,391.808882 96.3878801,386.31016 97.3877544,380.511509 C98.8875658,372.16345 96.8878172,364.265287 91.8884458,358.266682 C86.9390682,352.368054 79.6899797,349.168798 71.4410169,349.168798 C63.4420227,349.168798 55.4430285,352.268077 48.8438583,357.816787 C42.2946818,363.365496 37.895235,370.813764 36.495411,378.761916 C34.9955996,387.109974 36.9953482,395.008138 41.9947195,401.006743 C46.9440972,406.905371 54.1931857,410.104627 62.4421485,410.104627 C68.991325,410.104627 75.5405015,408.055103 81.2897785,404.255987 L95.1380372,415.55336 C96.1879052,416.403162 97.4877418,416.853057 98.7875783,416.853057 C100.437371,416.853057 102.087163,416.15322 103.237019,414.753546 C105.286761,412.354104 104.886811,408.754941 102.437119,406.705417 Z M49.6937515,394.658219 C46.5941412,390.959079 45.4442858,385.960242 46.3941663,380.561497 C48.4939023,368.764241 59.6924942,359.216461 71.4410169,359.216461 C76.6903569,359.216461 81.1897911,361.166008 84.1894139,364.765171 C87.2890242,368.464311 88.4388796,373.463148 87.488999,378.861893 L87.488999,378.861893 C85.3892631,390.659149 74.1906712,400.206929 62.4421485,400.206929 C57.2428022,400.206929 52.6933743,398.207394 49.6937515,394.658219 Z" id="Shape" fill="#0B4B77" fill-rule="nonzero"></path>
                    <path d="M106.686585,410.204604 L94.1881567,400.006975 C98.0376726,395.308068 100.637346,389.809347 101.63722,384.010695 C103.137031,375.662637 101.137283,367.764473 96.1379115,361.765868 C91.1885339,355.86724 83.9394454,352.667984 75.6904826,352.667984 C67.6914884,352.667984 59.6924942,355.767263 53.093324,361.315973 C46.5441475,366.864683 42.1447007,374.31295 40.7448767,382.261102 C39.2450653,390.609161 41.2448138,398.507324 46.2441852,404.505929 C51.1935629,410.404557 58.4426514,413.603813 66.6916141,413.603813 C73.2407906,413.603813 79.7899671,411.55429 85.5392442,407.755173 L99.3875029,419.052546 C100.437371,419.902348 101.737207,420.352244 103.037044,420.352244 C104.686837,420.352244 106.336629,419.652406 107.486485,418.252732 C109.486233,415.85329 109.136277,412.254127 106.686585,410.204604 Z M53.9432171,398.157405 C50.8436069,394.458266 49.6937515,389.459428 50.643632,384.060684 C52.743368,372.263427 63.9419599,362.715648 75.6904826,362.715648 C80.9398225,362.715648 85.4392568,364.665194 88.4388796,368.264357 C91.5384899,371.963497 92.6883453,376.962334 91.7384647,382.361079 L91.7384647,382.361079 C89.6387287,394.158335 78.4401369,403.706115 66.6916141,403.706115 C61.4922679,403.706115 56.9428399,401.70658 53.9432171,398.157405 Z" id="Shape" fill="#FFFFFF" fill-rule="nonzero"></path>
                </g>
            </g>
        </g>
    </g>
</svg>