<?xml version="1.0" encoding="UTF-8"?>
<svg width="550px" height="628px" viewBox="0 0 550 628" version="1.1" xmlns="http://www.w3.org/2000/svg" xmlns:xlink="http://www.w3.org/1999/xlink">
    <!-- Generator: Sketch 58 (84663) - https://sketch.com -->
    <title>Artboard</title>
    <desc>Created with Sketch.</desc>
    <defs>
        <filter x="0.0%" y="0.0%" width="100.0%" height="100.0%" filterUnits="objectBoundingBox" id="filter-1">
            <feGaussianBlur stdDeviation="0" in="SourceGraphic"></feGaussianBlur>
        </filter>
    </defs>
    <g id="Artboard" stroke="none" stroke-width="1" fill="none" fill-rule="evenodd">
        <g id="Group" transform="translate(69.000000, -55.000000)">
            <path d="M77.5753049,274.523285 C80.2219459,222.482991 86.6750709,190.833864 96.9346799,179.575902 C129.386799,143.965898 185.99464,133.775647 206.075305,133.775647 C225.775347,133.775647 290.865558,145.303664 324.392665,179.575902 C335.628767,191.061723 341.618032,222.710851 342.360461,274.523285 C321.609078,335.770216 303.497099,376.830819 288.024524,397.705094 C272.551949,418.579369 245.449084,438.518766 206.71593,457.523285 C169.935137,441.292325 143.200762,421.352928 126.512805,397.705094 C109.824848,374.057259 93.5123479,332.996656 77.5753049,274.523285 Z" id="Path" stroke="#979797" fill="#B69052"></path>
            <path d="M234.246079,229.500374 L259.003695,220 L259.003695,220 L295.398844,229.671083 C296.932446,230.078599 298,231.466875 298,233.053697 L298,233.862274 C298,235.248659 296.876113,236.372546 295.489727,236.372546 C295.219071,236.372546 294.950196,236.328775 294.693516,236.242925 C278.219892,230.733301 266.855775,227.978489 260.601166,227.978489 C254.506641,227.978489 246.013044,230.594088 235.120373,235.825286 C234.036232,236.345928 232.735293,235.889137 232.214638,234.805003 C232.073354,234.510814 232,234.18863 232,233.862274 L232,232.768046 C232,231.318864 232.893092,230.019563 234.246079,229.500374 Z" id="Rectangle" fill="#5F4A3C" transform="translate(265.000000, 228.681137) scale(-1, 1) rotate(-24.000000) translate(-265.000000, -228.681137) "></path>
            <rect id="Rectangle" stroke="#979797" fill="#D8D8D8" x="177.075305" y="381.937345" width="62" height="12" rx="6"></rect>
            <path d="M206.075305,434.851408 C227.733604,434.851408 250.075305,413.082845 250.075305,394.456876 C250.075305,383.074267 235.48315,377.166309 206.072486,376.93733 C176.662959,377.166309 162.075305,383.074227 162.075305,394.456876 C162.075305,413.082845 184.417006,434.851408 206.075305,434.851408 Z" id="Oval" stroke="#979797" fill="#594747"></path>
            <path d="M182.227048,330 L230.723167,330 C232.298273,330 233.575149,331.276876 233.575149,332.851982 C233.575149,333.646342 233.243849,334.404711 232.661032,334.944463 L227.468833,339.753002 C227.369183,339.845288 227.266665,339.934428 227.16143,340.020292 C219.188784,346.525332 212.468307,349.777853 207,349.777853 C201.672405,349.777853 194.186149,346.690568 184.54123,340.515999 C183.904678,340.108477 183.344074,339.59306 182.884624,338.992911 L179.785289,334.944463 C178.752894,333.595917 179.009186,331.665783 180.357732,330.633388 C180.894317,330.2226 181.551274,330 182.227048,330 Z" id="Rectangle" fill-opacity="0.605031687" fill="#958D7F"></path>
            <path d="M168.917327,381.196321 C166.517506,381.598904 164.598482,383.411057 164.059193,385.783901 L163.542368,388.057922 C163.468061,388.384873 163.42724,388.718542 163.420538,389.053765 C163.366011,391.780909 165.532596,394.035899 168.25974,394.090425 L242.984751,395.584478 C243.437417,395.593528 243.889423,395.545578 244.330116,395.441756 C247.23114,394.758311 249.028844,391.852524 248.345398,388.951499 L247.594766,385.765285 C247.038514,383.404157 245.115253,381.610262 242.721167,381.219504 C225.228989,378.36445 212.776527,376.937345 205.379992,376.937345 C198.003935,376.937345 185.844557,378.356684 168.917327,381.196321 Z" id="Rectangle" stroke="#979797" fill="#EDE2E2"></path>
            <path d="M206.575305,433.937344 C214.389124,433.937344 223.673564,430.398168 231.749586,424.803624 C239.151652,419.675952 244.152693,413.699165 244.152693,409.985834 C244.152693,407.269528 242.313699,405.8865 238.017083,405.291335 C234.481172,404.801543 231.73345,404.819102 219.22079,405.204373 C213.056017,405.39419 208.87585,405.480314 204.159216,405.480314 C202.065407,405.480314 200.259644,405.475205 197.212295,405.462852 C183.570579,405.407549 179.88971,405.508039 176.44899,406.24366 C172.608494,407.064752 171.205297,408.640468 171.205297,412.038624 C171.205297,415.764306 175.679667,421.232887 182.499317,425.826331 C189.912354,430.819458 198.721672,433.937344 206.575305,433.937344 Z" id="Oval" stroke="#979797" fill="#E39595"></path>
            <path d="" id="Path-2" stroke="#979797"></path>
            <path d="" id="Path-3" stroke="#979797"></path>
            <path d="" id="Path-4" stroke="#979797"></path>
            <ellipse id="Oval" stroke="#979797" fill-opacity="0.742597247" fill="#372721" cx="161.5" cy="280.5" rx="15" ry="13"></ellipse>
            <ellipse id="Oval-Copy" stroke="#979797" fill="#5F4A3C" cx="251" cy="280.5" rx="16.5" ry="13"></ellipse>
            <path d="M145.595869,163.350275 C164.765267,163.350275 183.874809,172.640893 206.125396,189.820076 C211.069307,193.637159 230.723845,210.050275 234.566885,212.714573 C238.147909,215.197221 240.635263,216.295374 242.213861,216.047719 C243.800974,215.798729 244.631383,214.036051 244.631383,210.311524 C244.631383,196.261749 228.638273,167.101467 206.849451,142.013104 C181.519276,112.847113 153.673452,94.5 130.079127,94.5 C77.994171,94.5 35.8371765,116.995778 35.8371765,144.556115 C35.8371765,146.757704 34.944365,150.647555 33.1078441,156.878472 C32.0158353,160.583421 27.0566641,176.388279 27.1462959,176.098249 C26.2212976,179.091349 25.4176285,181.751401 24.6759759,184.288208 C17.9755729,207.206786 16.3682834,220.636144 21.4238061,224.210843 C25.5230499,227.109369 33.523813,225.099954 45.6627128,218.603613 C54.7520245,213.739311 60.6141077,209.969519 83.8195585,194.509031 C85.3326876,193.500918 86.6307998,192.637734 87.8719138,191.814827 C117.968254,171.859763 133.999695,163.350275 145.595869,163.350275 Z" id="Oval" stroke="#979797" fill="#333030" transform="translate(131.565692, 160.000000) scale(-1, 1) rotate(36.000000) translate(-131.565692, -160.000000) "></path>
            <path d="M396.972989,204.820064 C396.556753,201.61298 396.360152,198.944777 396.360152,194.556648 C396.360152,177.344236 381.579016,144.895327 360.845225,117.523566 C336.672621,85.6120488 309.049804,65.7625168 283.953015,65.7625168 C229.60244,65.7625168 127.499733,132.613759 127.499733,166.753392 C127.499733,172.918463 133.435304,183.595533 143.256654,196.184799 C151.564157,206.833575 161.897226,217.767172 168.574252,223.154534 C172.746383,226.520821 179.435664,224.141019 189.350598,216.361428 C193.484683,213.117685 198.112542,209.010759 204.104927,203.352382 C207.354237,200.284185 219.010828,189.035981 220.556569,187.559892 C228.025779,180.427247 233.839088,175.126517 239.492506,170.403824 C247.660874,163.580218 254.916516,158.49959 261.627013,155.098548 C268.681967,151.522927 291.204544,145.674598 297.238587,145.674598 C298.565514,145.674598 298.854694,145.55982 308.249511,141.549829 C309.031285,141.216144 309.72459,140.924017 310.386776,140.650103 C316.799959,137.99728 320.783846,136.882233 323.137324,137.507909 C325.663426,138.179478 328.283192,139.496908 331.02342,141.423771 C336.638878,145.372423 342.236736,151.320687 349.946376,160.904621 C350.84621,162.023214 351.761046,163.172104 352.943292,164.665405 C353.019753,164.761983 355.223778,167.54937 355.849511,168.337983 C358.163219,171.253954 359.790479,173.25926 361.33713,175.077631 C365.2434,179.670166 368.16838,182.461607 370.570187,183.718707 C384.431201,190.973527 392.186863,197.939397 396.966036,204.81006 C396.968314,204.813335 396.970632,204.816671 396.972989,204.820064 Z" id="Oval" stroke="#402D2D" fill="#3B3434" filter="url(#filter-1)" transform="translate(262.334048, 145.200750) rotate(36.000000) translate(-262.334048, -145.200750) "></path>
            <path d="M119.90534,255.961333 L141.321373,245 L141.321373,245 L172.669222,256.110454 C174.066313,256.605618 175,257.927136 175,259.409382 L175,260.96827 C175,262.408035 173.83284,263.575196 172.393074,263.575196 C172.0295,263.575196 171.669946,263.499146 171.3375,263.351951 C157.545487,257.244387 147.999989,254.190604 142.701007,254.190604 C137.560172,254.190604 130.442821,257.064827 121.348955,262.813271 C120.329987,263.457359 118.981809,263.153483 118.337703,262.134527 C118.117099,261.785538 118,261.381137 118,260.96827 L118,259.076948 C118,257.763112 118.735795,256.559939 119.90534,255.961333 Z" id="Rectangle" fill="#5F4A3C" transform="translate(146.500000, 255.000000) rotate(-24.000000) translate(-146.500000, -255.000000) "></path>
        </g>
        <path d="M245.411697,710.050998 C245.601893,710.111716 245.883266,710.174842 246.243703,710.2293 C247.571461,710.429912 249.846631,710.513157 252.953212,710.472828 C259.363293,710.389614 269.024779,709.787685 280.657668,708.729192 C307.646955,706.273399 341.063761,701.804431 373.827555,696.002938 C462.20018,680.354777 530.567841,658.398926 559.520752,631.581153 C564.052465,627.383631 563.337467,612.740984 558.707672,589.597462 C557.93027,585.711372 557.052786,581.627289 556.03691,577.122363 C555.016685,572.598156 551.853812,559.123666 551.551524,557.800961 C550.137766,551.614852 549.5,548.265072 549.5,546.666288 C549.5,519.653948 517.983832,493.301592 464.114711,472.482344 C413.17388,452.794817 346.70492,439.954064 284.120538,437.816961 C277.420713,437.588179 272.503305,437.499499 265.536098,437.499499 C189.93454,437.499499 132.902175,443.156099 89.2050787,457.233167 C36.4570952,474.225988 6.09041171,503.123281 0.495935261,546.729914 C0.114621316,549.702098 -0.970618848,554.203501 -2.95075499,561.312094 C-3.78653116,564.31249 -7.89312766,578.592192 -9.00879777,582.578658 C-10.3909013,587.517134 -11.5696287,591.896025 -12.6283044,596.066886 C-19.3748227,622.646126 -20.8029977,639.531238 -15.1704648,645.925102 C6.05920691,670.02432 48.6367964,685.81222 107.577023,695.351455 C129.758864,698.941496 153.179082,701.485862 179.06216,703.407976 C193.51983,704.481624 231.092903,706.623408 231.00629,706.617571 C236.616614,706.995662 240.285827,707.342121 242.585005,707.735112 C243.876876,707.955927 244.743298,708.192298 245.231455,708.47659 C245.935119,708.886388 245.998797,709.546291 245.411697,710.050998 Z" id="Oval" stroke="#979797" fill="#983B3B"></path>
        <path d="M213.5,370.387365 L213.5,438.497028 C245.19763,461.159008 266.072015,472.5 275.967883,472.5 C285.873379,472.5 306.428898,462.341623 337.5,442.037918 L337.5,367.5414 C337.5,367.471178 337.485208,367.401742 337.456587,367.337616 C337.344041,367.08545 337.048382,366.972266 336.796216,367.084813 L275.982841,394.227033 L213.5,370.387365 Z" id="Rectangle" stroke="#979797" fill="#B79358"></path>
        <path d="M391.097297,215.297277 C385.607188,217.418039 382.462248,223.204284 383.668735,228.96478 L391.757915,267.58739 C393.455745,275.69385 400.603923,281.5 408.886273,281.5 L412.132833,281.5 C413.369781,281.5 414.599876,281.316369 415.782895,280.955113 C422.38434,278.939241 426.101693,271.953522 424.085855,265.352056 C421.649247,257.372811 420.43468,252.394852 420.43468,250.330866 C420.43468,247.766345 415.49727,237.718548 405.72971,220.519944 C402.819112,215.395061 396.595083,213.173549 391.097297,215.297277 Z" id="Rectangle-Copy" stroke="#979797" fill="#B69052" transform="translate(405.500000, 246.500000) scale(-1, 1) translate(-405.500000, -246.500000) "></path>
        <path d="M134.155186,214.125568 C126.297789,217.310865 121.854348,225.670873 123.609977,233.965605 L130.733914,267.623701 C132.446045,275.712919 139.586201,281.5 147.854626,281.5 L151.132833,281.5 C152.376179,281.5 153.612521,281.313869 154.800755,280.947795 C161.376062,278.922059 165.064224,271.949534 163.038509,265.374214 C160.63347,257.567733 159.43468,252.692867 159.43468,250.662196 C159.43468,248.274525 156.931962,238.859891 151.958515,222.602624 C151.8435,222.226585 151.711905,221.855746 151.564117,221.491187 C148.790733,214.649884 140.996489,211.352184 134.155186,214.125568 Z" id="Rectangle" stroke="#979797" fill="#B79358"></path>
        <path d="M275.5,437 C310.017797,437 338,412.555506 338,382.401694 C338,352.247882 310.543007,382.401694 276.02521,382.401694 C241.507413,382.401694 213,352.247882 213,382.401694 C213,412.555506 240.982203,437 275.5,437 Z" id="Oval" fill-opacity="0.749781469" fill="#9E8B6B"></path>
        <path d="M273.601119,416 C340.998476,416 411.934472,254.940325 411.934472,220.191972 C411.934472,219.058549 412.081911,213.317554 411.934472,212.678544 C407.561738,193.72684 339.246551,390.294507 274.047563,390.294507 C206.650207,390.294507 144,180.130274 144,214.878627 C144,249.626981 206.203763,416 273.601119,416 Z" id="Oval" fill="#3B3434"></path>
        <path d="M204.285287,311.093216 L275.5,300 L275.5,300 L344.834418,310.537856 C347.453567,310.93593 349.952559,311.907239 352.153041,313.382463 C363.720512,321.137404 362.498979,326.439814 348.488441,329.289695 C340.951652,330.822751 320.724717,326.092171 309.575305,324.39807 C301.870991,323.227435 292.00185,321.448944 279.967883,319.062597 L217.329282,327.926777 C211.230176,328.789883 205.995969,332.711902 203.454648,338.323117 C203.24575,338.784362 203.000286,339.155772 202.718256,339.437345 C201.41447,340.739023 201.936814,331.29098 204.285287,311.093216 L204.285287,311.093216 Z" id="Rectangle" fill="#3B3434"></path>
        <ellipse id="Oval" stroke="#979797" fill="#D8D8D8" opacity="0.346168155" cx="275.5" cy="609.5" rx="278" ry="281"></ellipse>
        <path d="M24.8362935,500.511693 L21.2065429,511.088749 L43.1909803,631.444358 L499.395562,627.503618 L519.702669,511.057512 L517.745346,501.499183 C215.978405,500.894626 212.83345,500.888325 24.8362935,500.511693 Z M-62.630535,500.559339 C-62.6409751,500.560183 -62.6470793,500.560762 -62.6479864,500.560921 C-62.643759,500.572306 -62.640536,500.580986 -62.633119,500.581337 Z M-62.613292,499.566795 C-62.6251522,499.56347 -62.6318267,499.575856 -62.6409985,499.592877 C-62.6318481,499.594657 -62.6189968,499.596458 -62.6024466,499.598278 Z" id="Rectangle" stroke="#979797" fill="#464646"></path>
        <path d="M26.4484722,501.5 C25.2481761,501.5 24.163413,502.21544 23.6908076,503.318778 L21.5491002,508.318778 C21.3892083,508.692059 21.3067648,509.093916 21.3067648,509.5 C21.3067648,511.156854 22.6499105,512.5 24.3067648,512.5 L517.202693,512.5 C517.51351,512.5 517.82244,512.451698 518.118424,512.356823 C519.696203,511.851079 520.56526,510.162049 520.059516,508.584269 L518.456808,503.584269 C518.058751,502.342443 516.904049,501.5 515.599985,501.5 L26.4484722,501.5 Z" id="Rectangle" stroke="#979797" fill="#B0B0B0"></path>
        <ellipse id="Oval" stroke="#979797" fill="#D8D8D8" cx="276" cy="636" rx="58.5" ry="31.5"></ellipse>
        <ellipse id="Oval" fill-opacity="0.131337413" fill="#D8D8D8" cx="272.5" cy="629.5" rx="87.5" ry="45.5"></ellipse>
    </g>
</svg>