<?xml version="1.0" encoding="UTF-8"?>
<svg width="586px" height="529px" viewBox="0 0 586 529" version="1.1" xmlns="http://www.w3.org/2000/svg" xmlns:xlink="http://www.w3.org/1999/xlink">
    <!-- Generator: Sketch 60.1 (88133) - https://sketch.com -->
    <title>Nose</title>
    <desc>Created with Sketch.</desc>
    <g id="Page-2" stroke="none" stroke-width="1" fill="none" fill-rule="evenodd">
        <g id="Artboard" transform="translate(-59.000000, -30.000000)">
            <rect fill="#282C34" x="0" y="0" width="757" height="597"></rect>
            <path d="M143.268894,423.262484 C196.015087,375.88635 262.277058,352.198283 342.054807,352.198283 C421.832556,352.198283 492.951689,355.863022 555.412208,363.192498 C608.349507,409.263817 637.079558,441.855693 641.60236,460.968127 C646.125162,480.080561 646.125162,484.458465 641.60236,474.101837 C621.993615,438.188374 601.232544,412.50465 579.319145,397.050663 C515.31582,351.913598 370.079354,372.426342 331.366757,372.426342 C293.300292,372.426342 235.05834,379.619563 172.825847,423.262484 C149.565052,439.575008 111.644089,484.778417 59.0629552,558.872711 L143.268894,423.262484 Z" id="Rectangle" fill="#785C7A"></path>
            <path d="M318,322 L468,322 C461.974048,380.868507 452.259426,417.7399 438.856135,432.614178 C418.751199,454.925596 392.034528,435.840837 368.324981,425.847625 C352.518616,419.185484 335.743623,405.643845 318,385.222707 L318,322 Z" id="Rectangle" fill="#3E583C"></path>
            <path d="M334,347 L407,347 L407,443 C384.558701,433.027574 369.792425,426.328702 362.70117,422.903385 C355.609916,419.478068 347.81604,414.247985 339.31954,407.213137 C341.870257,403.080487 342.315947,397.59086 340.656608,390.744255 C338.997269,383.89765 336.7784,369.316231 334,347 Z" id="Rectangle" fill="#23341F"></path>
            <path d="M416.977591,407.837957 C450.399227,407.837957 458.5866,391.020274 472.471343,362.830957 C481.186651,345.136818 502,320.413517 502,300.5 C502,248.861376 457.900048,207 403.5,207 C349.099952,207 305,248.861376 305,300.5 C305,329.995693 349.34696,365.663321 371.824401,382.799918 C388.698608,395.66466 393.650546,407.837957 416.977591,407.837957 Z" id="Oval" fill="#11221B"></path>
            <path d="M399.408497,352 C469.144614,352 485.242475,231.055072 489.187273,150.601883 C489.522543,143.764142 501.497885,132.844126 501.497885,126.759537 C501.497885,49.0833785 501.993057,115.326526 501.497885,108.161992 C500.203872,89.4391823 497.435375,77.2298892 489.187273,72.7899482 C477.59342,66.5489939 455.8121,72.7899482 417.668863,72.7899482 C380.709724,72.7899482 323.405331,55.2625647 297.176908,72.7899482 C283.073493,82.2146846 273.902382,102.374486 276.900631,115.940681 C275.229146,125.020507 261.846897,112.205632 254.967954,126.759537 C253.001021,130.921014 246.220772,137.954677 247.073836,150.601883 C248.294918,168.705192 258.771579,202.812148 263.179015,208.995673 C271.220932,220.278285 269.640914,218.825222 276.900631,236.029981 C279.442224,242.053288 294.541203,257.718565 297.176908,264.006026 C320.471073,319.574143 355.854327,352 399.408497,352 Z" id="Oval" fill="#11221B"></path>
            <path d="M304.121735,307 C312.052995,307 312.348751,299.15358 312.949957,293.940247 C313.775156,286.784553 304.121735,280.57727 304.121735,266.754503 C304.121735,242.861057 291.052862,226 273.765872,226 C267.645659,226 263.191048,227.744721 260.402039,231.234163 C259.647056,232.226618 259.109475,232.956937 258.789297,233.425119 C257.424576,235.420687 256.805812,236.19507 256.083487,238.732446 C255.361162,241.269822 255,244.220926 255,247.585759 C255,254.462017 285.304222,307 304.121735,307 Z" id="Oval" fill="#3E583C"></path>
            <path d="M423.006266,377.954948 C427.167038,366.601196 428.880712,359.73396 428.14729,357.35324 C427.047156,353.782161 415.716312,348.687093 410.119914,347.979215 C403.192893,347.979215 425.344149,348.73247 434.743509,348.73247 C435.52939,348.73247 433.980141,348.733384 436.052955,348.73247 C436.515547,348.732267 436.761473,349.05794 437.689655,348.73247 C439.352629,348.149343 454.959272,344.610612 455.967849,344.732109 C460.557846,345.285037 444.31333,346.264748 439.650617,354.517307 C435.251595,362.303157 442.533742,377.385708 442.776897,377.954948 C443.208774,378.965998 457.745232,362.678585 462.267453,357.35324 C467.948842,350.662865 472.293612,344.9766 478.251777,335.284806 C489.845748,316.425579 506.877109,273.981418 506.877109,255.178267 C506.877109,237.840928 506.514531,253.539941 501.260031,239.663637 C498.939735,233.536103 508.158785,220.028269 506.877109,213.256066 C504.046922,198.301738 495.072686,174.001657 488.859498,160.194802 C486.532521,155.023829 475.6598,163.619569 478.251777,160.194802 C480.843754,156.770036 480.843754,153.794274 481.143676,151.421818 C482.058275,144.187107 483.490211,142.589613 478.251777,139.336747 C472.747918,135.919062 461.937937,136 452.413598,139.336747 C451.604343,139.620261 436.624039,143.942097 427.374452,151.421818 C425.878178,152.631787 426.144796,151.240631 425.326822,151.421818 C421.722393,152.220223 421.652436,146.477318 412.668174,142.805277 C401.053176,138.058004 370.436373,136 369.691437,136 C355.547192,136 306,142.800373 306,155.600189 C306,170.133758 347.135025,183.298052 337.801984,208.744327 C333.244872,221.169166 315.82904,213.681053 315.82904,227.788978 C315.82904,236.367762 314.315811,253.564811 315.82904,267.963104 C318.258797,291.082109 327.415388,317.935922 344.594911,335.284806 C354.354633,345.140741 373.636531,349.310251 378.451246,354.517307 C391.342005,368.458508 406.193679,376.271055 423.006266,377.954948 Z" id="Oval" fill="#3E583C"></path>
            <path d="M455.963335,230.474869 C466.103568,221.102789 474.642782,216.41675 481.580976,216.41675 C481.689525,216.416744 482.802644,216.372677 482.769524,216.41675 C482.769524,216.41675 482.505775,215.237651 484.896176,216.846046 C485.038709,216.94195 487.706731,217.773718 487.883925,217.881124 C488.923094,218.558377 489.451223,218.933823 489.468311,219.007463 L493,223.423921 C491.911633,225.624771 490.931835,225.624771 490.060606,223.423921 C488.728952,220.059971 485.041903,221.22857 483.918055,221.22857 C475.456585,221.22857 465.483901,226.31067 454,236.474869 L455.963335,230.474869 Z" id="Eyebrow-left" fill="#11221B"></path>
            <path d="M292,145.188426 L333.568808,136 C351.838941,136 363.649338,136 369,136 C374.350662,136 382.350662,136 393,136 C399.665525,164.637609 401.976859,191.304276 399.934,216 C398.939277,228.025011 378.465163,243.609425 374.358981,266.5 C372.596905,276.322976 434.668885,359.401537 421.980567,380.705196 C418.911036,385.858931 396.483998,375.206584 354.699451,348.748157 L323,307.418978 C317.106313,286.704715 313.77298,273.065056 313,266.5 C311.484298,253.62687 313.455414,232.180723 314.022587,226 C315.042185,214.889011 336.459054,209.831826 333.568808,201.408094 C328.397598,186.33641 316.791654,177.518009 306,165.735211 C304.575881,164.180295 299.909214,157.331367 292,145.188426 Z" id="Shadow" fill="#23341F"></path>
            <path d="M432.79455,326.871802 C440.875395,326.871802 456.53386,322.955241 463.075911,328.027969 C463.112154,328.056072 463.083525,328.040826 463.105678,328.045756 C463.170983,328.060289 462.999767,328.026947 463.075911,328.027969 C463.308318,328.03109 463.833798,327.992195 464.114659,328.027969 C464.973976,328.137424 465.783729,328.339356 466.591587,328.447564 C468.998372,328.769941 471.00621,329.231559 471.559927,330.518428 C473.238738,334.420082 477.024166,343.641913 477.024166,335.211999 C477.024166,324.741789 481.417646,324.227394 471.559927,318.967544 C469.325042,317.775061 469.325042,317.516369 464.114659,317.516369 C453.563943,317.516369 440.530077,317.516369 432.79455,317.516369 C418.939693,317.516369 401.741169,316.783594 393.538839,323.321798 C387.120255,328.438151 388.077175,339.71982 388.077175,347.92988 C388.077175,360.288684 386.336033,345.568349 399.394003,335.211999 C406.095757,329.896801 424.418351,326.871802 432.79455,326.871802 Z" id="Moustache" fill="#11221B"></path>
            <path d="M371.707044,236.566464 C389.950101,229.522155 403.854817,226 413.421194,226 C418.476216,226 421.966701,229.314754 426.440879,231.281688 C428.851256,232.341335 433.037629,234.102927 439,236.566464 L435.495827,236.566464 C427.719826,235.044309 421.855777,233.349076 417.903677,231.480763 C417.212409,231.153973 414.970755,231.281688 413.421194,231.281688 C401.754527,231.281688 386.947463,235.04328 369,242.566464 L371.707044,236.566464 Z" id="Eyebrow-Right" fill="#11221B"></path>
            <polygon id="Nose" fill="#FBF1F1" transform="translate(452.000000, 270.000000) rotate(-19.000000) translate(-452.000000, -270.000000) " points="452.548751 257.226264 454 235 454 305 450 305"></polygon>
        </g>
    </g>
</svg>