<?xml version="1.0" encoding="UTF-8"?>
<svg width="665px" height="529px" viewBox="0 0 665 529" version="1.1" xmlns="http://www.w3.org/2000/svg" xmlns:xlink="http://www.w3.org/1999/xlink">
    <!-- Generator: Sketch 60.1 (88133) - https://sketch.com -->
    <title>manwithpc2</title>
    <desc>Created with Sketch.</desc>
    <g id="Page-1" stroke="none" stroke-width="1" fill="none" fill-rule="evenodd">
        <g id="manwithpc2">
            <g id="Group-2">
                <path d="M410.226112,96.5720227 L421.209584,106.334126 C421.470253,106.5658 421.688526,106.841155 421.854602,107.147816 C428.11654,118.710565 432.371985,127.80066 434.620937,134.418101 C442.557631,157.771472 432.543527,197.551956 434.597259,214.488446 C434.597259,214.488446 434.597259,214.488446 434.597259,214.488446 C434.647601,214.903597 434.351864,215.280954 433.936712,215.331296 C433.533622,215.380175 433.163727,215.102409 433.098262,214.701678 C433.095359,214.683411 433.092378,214.665165 433.089397,214.646928 C427.492438,180.400534 418.250252,142.080523 405.362838,99.6868945 C404.880956,98.1016728 405.775374,96.4259459 407.360591,95.9440492 C408.359954,95.6402487 409.445393,95.8781207 410.226112,96.5720227 Z" id="Rectangle" fill="#FBF1F1" transform="translate(431.895521, 262.939882) rotate(6.000000) translate(-431.895521, -262.939882) "></path>
                <g id="Group" fill-rule="nonzero">
                    <path d="M84.2688938,358.262484 C137.015087,310.88635 203.277058,287.198283 283.054807,287.198283 C362.832556,287.198283 433.951689,290.863022 496.412208,298.192498 C549.349507,344.263817 578.079558,376.855693 582.60236,395.968127 C587.125162,415.080561 587.125162,419.458465 582.60236,409.101837 C562.993615,373.188374 542.232544,347.50465 520.319145,332.050663 C456.31582,286.913598 311.079354,307.426342 272.366757,307.426342 C234.300292,307.426342 176.05834,314.619563 113.825847,358.262484 C90.5650524,374.575008 52.6440886,419.778417 0.0629551914,493.872711 L84.2688938,358.262484 Z" id="Rectangle" fill="#5C7A5F"></path>
                    <path d="M259,257 L409,257 C402.974048,315.868507 393.259426,352.7399 379.856135,367.614178 C359.751199,389.925596 333.034528,370.840837 309.324981,360.847625 C293.518616,354.185484 276.743623,340.643845 259,320.222707 L259,257 Z" id="Rectangle" fill="#373669"></path>
                    <path d="M275,282 L348,282 L348,378 C325.558701,368.027574 310.792425,361.328702 303.70117,357.903385 C296.609916,354.478068 288.81604,349.247985 280.31954,342.213137 C282.870257,338.080487 283.315947,332.59086 281.656608,325.744255 C279.997269,318.89765 277.7784,304.316231 275,282 Z" id="Rectangle" fill="#291856"></path>
                    <path d="M357.977591,342.837957 C391.399227,342.837957 399.5866,326.020274 413.471343,297.830957 C422.186651,280.136818 443,255.413517 443,235.5 C443,183.861376 398.900048,142 344.5,142 C290.099952,142 246,183.861376 246,235.5 C246,264.995693 290.34696,300.663321 312.824401,317.799918 C329.698608,330.66466 334.650546,342.837957 357.977591,342.837957 Z" id="Oval" fill="#1B0044"></path>
                    <path d="M340.408497,287 C410.144614,287 426.242475,166.055072 430.187273,85.6018831 C430.522543,78.7641416 442.497885,67.8441265 442.497885,61.7595369 C442.497885,-15.9166215 442.993057,50.3265263 442.497885,43.1619923 C441.203872,24.4391823 438.435375,12.2298892 430.187273,7.7899482 C418.59342,1.54899387 396.8121,7.7899482 358.668863,7.7899482 C321.709724,7.7899482 264.405331,-9.73743525 238.176908,7.7899482 C224.073493,17.2146846 214.902382,37.374486 217.900631,50.940681 C216.229146,60.0205067 202.846897,47.2056318 195.967954,61.7595369 C194.001021,65.9210139 187.220772,72.9546767 188.073836,85.6018831 C189.294918,103.705192 199.771579,137.812148 204.179015,143.995673 C212.220932,155.278285 210.640914,153.825222 217.900631,171.029981 C220.442224,177.053288 235.541203,192.718565 238.176908,199.006026 C261.471073,254.574143 296.854327,287 340.408497,287 Z" id="Oval" fill="#1B0044"></path>
                    <path d="M245.121735,242 C253.052995,242 253.348751,234.15358 253.949957,228.940247 C254.775156,221.784553 245.121735,215.57727 245.121735,201.754503 C245.121735,177.861057 232.052862,161 214.765872,161 C208.645659,161 204.191048,162.744721 201.402039,166.234163 C200.647056,167.226618 200.109475,167.956937 199.789297,168.425119 C198.424576,170.420687 197.805812,171.19507 197.083487,173.732446 C196.361162,176.269822 196,179.220926 196,182.585759 C196,189.462017 226.304222,242 245.121735,242 Z" id="Oval" fill="#373669"></path>
                    <path d="M364.006266,312.954948 C368.167038,301.601196 369.880712,294.73396 369.14729,292.35324 C368.047156,288.782161 356.716312,283.687093 351.119914,282.979215 C344.192893,282.979215 366.344149,283.73247 375.743509,283.73247 C376.52939,283.73247 374.980141,283.733384 377.052955,283.73247 C377.515547,283.732267 377.761473,284.05794 378.689655,283.73247 C380.352629,283.149343 395.959272,279.610612 396.967849,279.732109 C401.557846,280.285037 385.31333,281.264748 380.650617,289.517307 C376.251595,297.303157 383.533742,312.385708 383.776897,312.954948 C384.208774,313.965998 398.745232,297.678585 403.267453,292.35324 C408.948842,285.662865 413.293612,279.9766 419.251777,270.284806 C430.845748,251.425579 447.877109,208.981418 447.877109,190.178267 C447.877109,172.840928 447.514531,188.539941 442.260031,174.663637 C439.939735,168.536103 449.158785,155.028269 447.877109,148.256066 C445.046922,133.301738 436.072686,109.001657 429.859498,95.1948025 C427.532521,90.0238288 416.6598,98.6195689 419.251777,95.1948025 C421.843754,91.770036 421.843754,88.7942739 422.143676,86.4218182 C423.058275,79.1871072 424.490211,77.589613 419.251777,74.3367472 C413.747918,70.9190623 402.937937,71 393.413598,74.3367472 C392.604343,74.6202606 377.624039,78.9420973 368.374452,86.4218182 C366.878178,87.6317874 367.144796,86.2406314 366.326822,86.4218182 C362.722393,87.2202231 362.652436,81.4773178 353.668174,77.8052771 C342.053176,73.0580042 311.436373,71 310.691437,71 C296.547192,71 247,77.8003735 247,90.6001889 C247,105.133758 288.135025,118.298052 278.801984,143.744327 C274.244872,156.169166 256.82904,148.681053 256.82904,162.788978 C256.82904,171.367762 255.315811,188.564811 256.82904,202.963104 C259.258797,226.082109 268.415388,252.935922 285.594911,270.284806 C295.354633,280.140741 314.636531,284.310251 319.451246,289.517307 C332.342005,303.458508 347.193679,311.271055 364.006266,312.954948 Z" id="Oval" fill="#373669"></path>
                    <path d="M396.963335,165.474869 C407.103568,156.102789 415.642782,151.41675 422.580976,151.41675 C422.689525,151.416744 423.802644,151.372677 423.769524,151.41675 C423.769524,151.41675 423.505775,150.237651 425.896176,151.846046 C426.038709,151.94195 428.706731,152.773718 428.883925,152.881124 C429.923094,153.558377 430.451223,153.933823 430.468311,154.007463 L434,158.423921 C432.911633,160.624771 431.931835,160.624771 431.060606,158.423921 C429.728952,155.059971 426.041903,156.22857 424.918055,156.22857 C416.456585,156.22857 406.483901,161.31067 395,171.474869 L396.963335,165.474869 Z" id="Eyebrow-left" fill="#1B0044"></path>
                    <path d="M233,80.1884263 L274.568808,71 C292.838941,71 304.649338,71 310,71 C315.350662,71 323.350662,71 334,71 C340.665525,99.6376095 342.976859,126.304276 340.934,151 C339.939277,163.025011 319.465163,178.609425 315.358981,201.5 C313.596905,211.322976 375.668885,294.401537 362.980567,315.705196 C359.911036,320.858931 337.483998,310.206584 295.699451,283.748157 L264,242.418978 C258.106313,221.704715 254.77298,208.065056 254,201.5 C252.484298,188.62687 254.455414,167.180723 255.022587,161 C256.042185,149.889011 277.459054,144.831826 274.568808,136.408094 C269.397598,121.33641 257.791654,112.518009 247,100.735211 C245.575881,99.1802955 240.909214,92.3313673 233,80.1884263 Z" id="Shadow" fill="#291856"></path>
                    <path d="M373.79455,261.871802 C381.875395,261.871802 397.53386,257.955241 404.075911,263.027969 C404.112154,263.056072 404.083525,263.040826 404.105678,263.045756 C404.170983,263.060289 403.999767,263.026947 404.075911,263.027969 C404.308318,263.03109 404.833798,262.992195 405.114659,263.027969 C405.973976,263.137424 406.783729,263.339356 407.591587,263.447564 C409.998372,263.769941 412.00621,264.231559 412.559927,265.518428 C414.238738,269.420082 418.024166,278.641913 418.024166,270.211999 C418.024166,259.741789 422.417646,259.227394 412.559927,253.967544 C410.325042,252.775061 410.325042,252.516369 405.114659,252.516369 C394.563943,252.516369 381.530077,252.516369 373.79455,252.516369 C359.939693,252.516369 342.741169,251.783594 334.538839,258.321798 C328.120255,263.438151 329.077175,274.71982 329.077175,282.92988 C329.077175,295.288684 327.336033,280.568349 340.394003,270.211999 C347.095757,264.896801 365.418351,261.871802 373.79455,261.871802 Z" id="Moustache" fill="#1B0044"></path>
                    <path d="M312.707044,171.566464 C330.950101,164.522155 344.854817,161 354.421194,161 C359.476216,161 362.966701,164.314754 367.440879,166.281688 C369.851256,167.341335 374.037629,169.102927 380,171.566464 L376.495827,171.566464 C368.719826,170.044309 362.855777,168.349076 358.903677,166.480763 C358.212409,166.153973 355.970755,166.281688 354.421194,166.281688 C342.754527,166.281688 327.947463,170.04328 310,177.566464 L312.707044,171.566464 Z" id="Eyebrow-Right" fill="#1B0044"></path>
                    <polygon id="Nose" fill="#FBF1F1" transform="translate(393.000000, 205.000000) rotate(-19.000000) translate(-393.000000, -205.000000) " points="393.548751 192.226264 395 170 395 240 391 240"></polygon>
                </g>
                <g transform="translate(176.000000, 380.000000)" fill-rule="nonzero">
                    <path d="M91.5127796,-1.42108547e-14 L240.349792,-1.42108547e-14 L470.936285,-1.42108547e-14 C480.87741,-1.42108547e-14 488.936285,8.058875 488.936285,18 C488.936285,19.674083 488.702744,21.339982 488.242414,22.949532 L456.885332,132.590141 C456.452736,134.102746 454.875835,134.978259 453.363233,134.545656 C451.969921,134.147171 451.097841,132.766138 451.336954,131.336826 C451.336954,131.336826 451.336954,131.336826 451.336954,131.336826 C455.246647,107.966417 400.198205,49.990667 391.307508,46.273556 C357.82836,32.276259 281.465821,37.095594 231.412826,37.095594 C177.354953,37.095594 123.891218,67.114539 76.3059526,95 C49.9724126,110.431729 20.3105206,121.302268 5.50677358,135.337549 C5.50677358,135.337549 5.50677358,135.337549 5.50677358,135.337549 C5.48762958,135.411436 5.41221258,135.455815 5.33832558,135.436671 C5.26443858,135.417527 5.22005958,135.342111 5.23475244,135.268223 C5.24031858,135.263921 5.24163958,135.259676 5.24320658,135.255517 L41.9574636,34.665775 C46.7629846,21.499603 49.4569066,17.0806 53.2767086,12.74107 C57.0965106,8.40154 61.6499056,5.216273 67.0360716,3.115888 C72.4222376,1.015503 77.4970346,-1.42108547e-14 91.5127796,-1.42108547e-14 Z" id="Rectangle" fill="#252424"></path>
                    <path d="M194.722956,36.253136 C239.576666,32.148463 269.535301,30.096126 284.598861,30.096126 C299.66242,30.096126 319.304006,30.096126 343.523619,30.096126 L343.523619,30.096126 C374.439239,35.384915 394.911248,42.607011 404.939647,51.762414 C412.168336,58.361829 430.753056,74.855246 445.095773,100.863328 C448.799114,107.578707 451.223881,120.270127 452.370074,138.937586 C433.532803,145.844787 420.526948,145.844787 413.352509,138.937586 C409.595642,135.320657 400.641824,138.766533 396.526895,138.937586 C394.217853,139.033571 392.021248,139.034583 389.937081,138.940623 C389.892073,138.938601 389.847024,138.937586 389.80197,138.937586 L325.035663,138.937586 L325.035663,138.937586 C286.301351,133.666386 253.079488,133.666386 225.370074,138.937586 C197.66066,144.208787 165.805953,146.844388 129.805953,146.844388 C69.8059526,141.573187 30.4788076,141.573187 11.8245186,146.844388 C-6.82977042,152.115589 -3.41238942,143.061872 22.0766626,119.683238 L22.0766626,119.683238 L115.166895,62.807385 L115.166895,62.807385 L194.722956,36.253136 Z" id="Rectangle" fill="#2D2C2C"></path>
                    <path d="M236.89582,135.161827 C237.915268,135.161827 240.858111,134.216033 248.261571,131.624674 C248.284694,131.61658 248.284694,131.61658 248.307818,131.608486 C256.358378,128.790585 258.95085,127.954638 260.052709,128.000431 C267.424614,128.306811 272.899514,128.075285 280.468664,127.366718 C288.087296,126.653518 288.540395,126.61738 291.300488,126.604538 C295.058083,126.587055 298.491667,127.005349 302.287217,128.016862 C305.416298,128.850762 306.220347,128.030127 305.198303,125.590211 C304.085432,122.933465 300.892112,119.024787 296.557001,115.098514 C285.782012,105.339698 271.991119,98.5 260.031946,98.5 C233.947478,98.5 216.305953,111.246155 216.305953,128.5 C216.305953,130.399064 216.22898,132.081487 216.08898,133.687425 C216.03677,134.286327 215.978947,134.843216 215.906246,135.473311 C215.894055,135.578969 215.778798,136.550056 215.753904,136.779352 C215.616727,138.042919 215.587353,137.977435 216.015369,137.904731 C216.07055,137.895358 219.808964,136.848587 221.970248,136.421079 C226.01971,135.620084 230.852949,135.161827 236.89582,135.161827 Z" id="Oval" stroke="#979797" fill="#D8D8D8"></path>
                </g>
            </g>
        </g>
    </g>
</svg>