<?xml version="1.0" encoding="UTF-8"?>
<svg width="1191px" height="506px" viewBox="0 0 1191 506" version="1.1" xmlns="http://www.w3.org/2000/svg" xmlns:xlink="http://www.w3.org/1999/xlink">
    <!-- Generator: Sketch 60.1 (88133) - https://sketch.com -->
    <title>Oval</title>
    <desc>Created with Sketch.</desc>
    <g id="Page-1" stroke="none" stroke-width="1" fill="none" fill-rule="evenodd">
        <g id="Artboard" transform="translate(-67.000000, -1527.000000)">
            <rect fill="#282C34" x="0" y="0" width="1326" height="2033"></rect>
            <ellipse id="Oval" stroke="#979797" fill="#FFDD92" cx="662.5" cy="2056" rx="595" ry="528.5"></ellipse>
            <ellipse id="Oval-Copy-6" fill="#E3A352" cx="312" cy="1982" rx="66" ry="40"></ellipse>
            <ellipse id="Oval" fill="#E3A352" cx="736" cy="1668" rx="48" ry="40"></ellipse>
            <ellipse id="Oval-Copy-5" fill="#E3A352" cx="939" cy="1740" rx="66" ry="40"></ellipse>
            <ellipse id="Oval-Copy-9" fill="#E3A352" cx="1168" cy="1982" rx="66" ry="40"></ellipse>
            <ellipse id="Oval-Copy" fill="#E3A352" cx="894.5" cy="1911" rx="110.5" ry="71"></ellipse>
            <ellipse id="Oval-Copy-4" fill="#E3A352" transform="translate(638.000000, 1831.000000) rotate(25.000000) translate(-638.000000, -1831.000000) " cx="638" cy="1831" rx="123" ry="78"></ellipse>
            <ellipse id="Oval-Copy-8" fill="#E3A352" cx="286.5" cy="1826.5" rx="110.5" ry="87.5"></ellipse>
            <path d="M266.214419,1740.00083 C239.248714,1789.40975 215.257126,1846.1139 217.080674,1895.65346 L217.096583,1895.65063 C190.885863,1879.65127 174,1854.54168 174,1826.3091 C174,1783.29992 213.187195,1747.53833 264.830849,1740.19119 Z" id="Combined-Shape-Copy" fill="#C77A2D"></path>
            <path d="M825.98577,2668.07483 C930.168874,2668.07483 821.008381,2724.68585 793.872724,2641.49655 C793.351249,2639.89788 837.185854,2597.43556 836.637514,2595.80521 C775.644421,2414.45758 646.341674,1968.44834 646.341674,1756.21921 C646.341674,1629.67399 736.048572,1610.43994 828.438524,1621.08069 C918.220708,1631.4211 1010.53662,1669.97365 1025.5253,1665.67571 C1034.365,1663.14097 982.512876,1618.58695 927.745133,1584.98552 C866.662855,1547.50997 760.944817,1511.41815 725.589387,1511.41815 C680.867985,1511.41815 640.045231,1504.15207 602.755403,1511.69266 C365.812188,1559.60635 274.525298,1765.37275 274.525298,2036.17571 C274.525298,2349.59731 497.100202,2668.07483 825.98577,2668.07483 Z" id="Oval" fill-opacity="0.5" fill="#E3A352" transform="translate(650.519888, 2097.577606) rotate(-74.000000) translate(-650.519888, -2097.577606) "></path>
            <path d="M249.57795,1969 C265.686336,1985.06717 288.958729,1998.30996 321.233467,2007.56459 C330.200976,2010.13598 339.671558,2012.59172 349.599894,2014.93627 L349.617624,2014.93288 C338.945527,2019.42732 325.980389,2022.06175 312,2022.06175 C275.549207,2022.06175 246,2004.15314 246,1982.06175 C246,1977.64347 247.181968,1973.3925 249.364724,1969.41866 Z" id="Combined-Shape" fill="#E3A352"></path>
            <path d="M662.5,1527 C694.323687,1527 725.564334,1529.21753 756.036811,1533.48812 L756.032979,1533.50202 C757.064944,1565.04354 679.419344,1601.31496 579.811704,1615.3139 C481.413739,1629.14283 397.62647,1616.17153 388.18107,1586.35184 C470.280942,1548.4286 563.573431,1527 662.5,1527 Z" id="Combined-Shape" fill="#E3A352"></path>
        </g>
    </g>
</svg>