<?xml version="1.0" encoding="UTF-8"?>
<svg width="586px" height="494px" viewBox="0 0 586 494" version="1.1" xmlns="http://www.w3.org/2000/svg" xmlns:xlink="http://www.w3.org/1999/xlink">
    <!-- Generator: Sketch 60.1 (88133) - https://sketch.com -->
    <title>Group</title>
    <desc>Created with Sketch.</desc>
    <g id="Page-1" stroke="none" stroke-width="1" fill="none" fill-rule="evenodd">
        <g id="Artboard" transform="translate(-109.000000, -63.000000)">
            <g id="Group" transform="translate(109.000000, 36.000000)">
                <path d="M84.2688938,385.262484 C137.015087,337.88635 203.277058,314.198283 283.054807,314.198283 C362.832556,314.198283 433.951689,317.863022 496.412208,325.192498 C549.349507,371.263817 578.079558,403.855693 582.60236,422.968127 C587.125162,442.080561 587.125162,446.458465 582.60236,436.101837 C562.993615,400.188374 542.232544,374.50465 520.319145,359.050663 C456.31582,313.913598 311.079354,334.426342 272.366757,334.426342 C234.300292,334.426342 176.05834,341.619563 113.825847,385.262484 C90.5650524,401.575008 52.6440886,446.778417 0.0629551914,520.872711 L84.2688938,385.262484 Z" id="Rectangle" fill="#5C7A5F"></path>
                <path d="M259,284 L409,284 C402.974048,342.868507 393.259426,379.7399 379.856135,394.614178 C359.751199,416.925596 333.034528,397.840837 309.324981,387.847625 C293.518616,381.185484 276.743623,367.643845 259,347.222707 L259,284 Z" id="Rectangle" fill="#373669"></path>
                <path d="M275,309 L348,309 L348,405 C325.558701,395.027574 310.792425,388.328702 303.70117,384.903385 C296.609916,381.478068 288.81604,376.247985 280.31954,369.213137 C282.870257,365.080487 283.315947,359.59086 281.656608,352.744255 C279.997269,345.89765 277.7784,331.316231 275,309 Z" id="Rectangle" fill="#291856"></path>
                <path d="M357.977591,369.837957 C391.399227,369.837957 399.5866,353.020274 413.471343,324.830957 C422.186651,307.136818 443,282.413517 443,262.5 C443,210.861376 398.900048,169 344.5,169 C290.099952,169 246,210.861376 246,262.5 C246,291.995693 290.34696,327.663321 312.824401,344.799918 C329.698608,357.66466 334.650546,369.837957 357.977591,369.837957 Z" id="Oval" fill="#1B0044"></path>
                <path d="M340.408497,314 C410.144614,314 426.242475,193.055072 430.187273,112.601883 C430.522543,105.764142 442.497885,94.8441265 442.497885,88.7595369 C442.497885,11.0833785 442.993057,77.3265263 442.497885,70.1619923 C441.203872,51.4391823 438.435375,39.2298892 430.187273,34.7899482 C418.59342,28.5489939 396.8121,34.7899482 358.668863,34.7899482 C321.709724,34.7899482 264.405331,17.2625647 238.176908,34.7899482 C224.073493,44.2146846 214.902382,64.374486 217.900631,77.940681 C216.229146,87.0205067 202.846897,74.2056318 195.967954,88.7595369 C194.001021,92.9210139 187.220772,99.9546767 188.073836,112.601883 C189.294918,130.705192 199.771579,164.812148 204.179015,170.995673 C212.220932,182.278285 210.640914,180.825222 217.900631,198.029981 C220.442224,204.053288 235.541203,219.718565 238.176908,226.006026 C261.471073,281.574143 296.854327,314 340.408497,314 Z" id="Oval" fill="#1B0044"></path>
                <path d="M245.121735,269 C253.052995,269 253.348751,261.15358 253.949957,255.940247 C254.775156,248.784553 245.121735,242.57727 245.121735,228.754503 C245.121735,204.861057 232.052862,188 214.765872,188 C208.645659,188 204.191048,189.744721 201.402039,193.234163 C200.647056,194.226618 200.109475,194.956937 199.789297,195.425119 C198.424576,197.420687 197.805812,198.19507 197.083487,200.732446 C196.361162,203.269822 196,206.220926 196,209.585759 C196,216.462017 226.304222,269 245.121735,269 Z" id="Oval" fill="#373669"></path>
                <path d="M364.006266,339.954948 C368.167038,328.601196 369.880712,321.73396 369.14729,319.35324 C368.047156,315.782161 356.716312,310.687093 351.119914,309.979215 C344.192893,309.979215 366.344149,310.73247 375.743509,310.73247 C376.52939,310.73247 374.980141,310.733384 377.052955,310.73247 C377.515547,310.732267 377.761473,311.05794 378.689655,310.73247 C380.352629,310.149343 395.959272,306.610612 396.967849,306.732109 C401.557846,307.285037 385.31333,308.264748 380.650617,316.517307 C376.251595,324.303157 383.533742,339.385708 383.776897,339.954948 C384.208774,340.965998 398.745232,324.678585 403.267453,319.35324 C408.948842,312.662865 413.293612,306.9766 419.251777,297.284806 C430.845748,278.425579 447.877109,235.981418 447.877109,217.178267 C447.877109,199.840928 447.514531,215.539941 442.260031,201.663637 C439.939735,195.536103 449.158785,182.028269 447.877109,175.256066 C445.046922,160.301738 436.072686,136.001657 429.859498,122.194802 C427.532521,117.023829 416.6598,125.619569 419.251777,122.194802 C421.843754,118.770036 421.843754,115.794274 422.143676,113.421818 C423.058275,106.187107 424.490211,104.589613 419.251777,101.336747 C413.747918,97.9190623 402.937937,98 393.413598,101.336747 C392.604343,101.620261 377.624039,105.942097 368.374452,113.421818 C366.878178,114.631787 367.144796,113.240631 366.326822,113.421818 C362.722393,114.220223 362.652436,108.477318 353.668174,104.805277 C342.053176,100.058004 311.436373,98 310.691437,98 C296.547192,98 247,104.800373 247,117.600189 C247,132.133758 288.135025,145.298052 278.801984,170.744327 C274.244872,183.169166 256.82904,175.681053 256.82904,189.788978 C256.82904,198.367762 255.315811,215.564811 256.82904,229.963104 C259.258797,253.082109 268.415388,279.935922 285.594911,297.284806 C295.354633,307.140741 314.636531,311.310251 319.451246,316.517307 C332.342005,330.458508 347.193679,338.271055 364.006266,339.954948 Z" id="Oval" fill="#373669"></path>
                <path d="M396.963335,192.474869 C407.103568,183.102789 415.642782,178.41675 422.580976,178.41675 C422.689525,178.416744 423.802644,178.372677 423.769524,178.41675 C423.769524,178.41675 423.505775,177.237651 425.896176,178.846046 C426.038709,178.94195 428.706731,179.773718 428.883925,179.881124 C429.923094,180.558377 430.451223,180.933823 430.468311,181.007463 L434,185.423921 C432.911633,187.624771 431.931835,187.624771 431.060606,185.423921 C429.728952,182.059971 426.041903,183.22857 424.918055,183.22857 C416.456585,183.22857 406.483901,188.31067 395,198.474869 L396.963335,192.474869 Z" id="Eyebrow-left" fill="#1B0044"></path>
                <path d="M233,107.188426 L274.568808,98 C292.838941,98 304.649338,98 310,98 C315.350662,98 323.350662,98 334,98 C340.665525,126.637609 342.976859,153.304276 340.934,178 C339.939277,190.025011 319.465163,205.609425 315.358981,228.5 C313.596905,238.322976 375.668885,321.401537 362.980567,342.705196 C359.911036,347.858931 337.483998,337.206584 295.699451,310.748157 L264,269.418978 C258.106313,248.704715 254.77298,235.065056 254,228.5 C252.484298,215.62687 254.455414,194.180723 255.022587,188 C256.042185,176.889011 277.459054,171.831826 274.568808,163.408094 C269.397598,148.33641 257.791654,139.518009 247,127.735211 C245.575881,126.180295 240.909214,119.331367 233,107.188426 Z" id="Shadow" fill="#291856"></path>
                <path d="M373.79455,288.871802 C381.875395,288.871802 397.53386,284.955241 404.075911,290.027969 C404.112154,290.056072 404.083525,290.040826 404.105678,290.045756 C404.170983,290.060289 403.999767,290.026947 404.075911,290.027969 C404.308318,290.03109 404.833798,289.992195 405.114659,290.027969 C405.973976,290.137424 406.783729,290.339356 407.591587,290.447564 C409.998372,290.769941 412.00621,291.231559 412.559927,292.518428 C414.238738,296.420082 418.024166,305.641913 418.024166,297.211999 C418.024166,286.741789 422.417646,286.227394 412.559927,280.967544 C410.325042,279.775061 410.325042,279.516369 405.114659,279.516369 C394.563943,279.516369 381.530077,279.516369 373.79455,279.516369 C359.939693,279.516369 342.741169,278.783594 334.538839,285.321798 C328.120255,290.438151 329.077175,301.71982 329.077175,309.92988 C329.077175,322.288684 327.336033,307.568349 340.394003,297.211999 C347.095757,291.896801 365.418351,288.871802 373.79455,288.871802 Z" id="Moustache" fill="#1B0044"></path>
                <path d="M312.707044,198.566464 C330.950101,191.522155 344.854817,188 354.421194,188 C359.476216,188 362.966701,191.314754 367.440879,193.281688 C369.851256,194.341335 374.037629,196.102927 380,198.566464 L376.495827,198.566464 C368.719826,197.044309 362.855777,195.349076 358.903677,193.480763 C358.212409,193.153973 355.970755,193.281688 354.421194,193.281688 C342.754527,193.281688 327.947463,197.04328 310,204.566464 L312.707044,198.566464 Z" id="Eyebrow-Right" fill="#1B0044"></path>
                <polygon id="Nose" fill="#FBF1F1" transform="translate(393.000000, 232.000000) rotate(-19.000000) translate(-393.000000, -232.000000) " points="393.548751 219.226264 395 197 395 267 391 267"></polygon>
            </g>
        </g>
    </g>
</svg>
