<?xml version="1.0" encoding="UTF-8"?>
<svg width="107px" height="78px" viewBox="0 0 107 78" version="1.1" xmlns="http://www.w3.org/2000/svg" xmlns:xlink="http://www.w3.org/1999/xlink">
    <!-- Generator: Sketch 60.1 (88133) - https://sketch.com -->
    <title>Rectangle</title>
    <desc>Created with Sketch.</desc>
    <g id="Page-1" stroke="none" stroke-width="1" fill="none" fill-rule="evenodd">
        <polygon id="Rectangle" fill="#242E4B" points="-0.409912236 26.957844 51.4802961 2.25303199 101.590088 28.6855441 51.4802961 45.1361554"></polygon>
        <path d="M18.0395665,28.2327905 C33.2028945,25.4021485 44.0805274,23.9868275 50.6724651,23.9868275 C57.2625443,23.9868275 68.0864057,25.4013505 83.1440495,28.2303965 C84.5624542,28.4968988 85.5900878,29.7355853 85.5900878,31.1788093 L85.5900878,47.4595234 C85.5900878,49.1163777 84.246942,50.4595234 82.5900878,50.4595234 C82.4287818,50.4595234 82.2677386,50.4465136 82.1085244,50.4206206 L50.6724651,45.3081725 L50.6724651,45.3081725 L19.0694475,50.4236363 C17.4338812,50.6883794 15.8933761,49.5771076 15.628633,47.9415413 C15.6029776,47.7830437 15.5900878,47.6227422 15.5900878,47.4621816 L15.5900878,31.1818509 C15.5900826,29.7373043 16.6195505,28.4978746 18.0395665,28.2327905 Z" id="Rectangle" fill="#1A2441"></path>
        <path d="M100.590088,28 C101.694657,28 102.590088,28.8954305 102.590088,30 L102.590088,47 C102.590088,48.1045695 101.694657,49 100.590088,49 C99.4855183,49 98.5900878,48.1045695 98.5900878,47 L98.5900878,30 C98.5900878,28.8954305 99.4855183,28 100.590088,28 Z" id="Rectangle" fill="#D98061"></path>
        <polygon id="Triangle" fill="#D98061" points="100.590088 50 106.590088 59 94.5900878 59"></polygon>
        <ellipse id="Oval" fill="#1A2441" cx="101.090088" cy="51" rx="3.5" ry="3"></ellipse>
        <path d="M18.8704837,54.8795908 C18.7773878,54.869083 18.6837748,54.8638166 18.5900878,54.8638166 C17.2093851,54.8638166 16.0900999,55.983098 16.0900878,57.3638021 L16.0900878,62.7569036 C16.0900878,62.8217764 16.0926129,62.8866246 16.0976573,62.951301 C16.2050201,64.3278324 17.4079539,65.3566968 18.7844852,65.249334 L50.711527,62.7652733 L82.3947786,65.2480727 C82.4597572,65.2531646 82.52491,65.2557135 82.5900878,65.2557135 C83.9707996,65.2557135 85.0900878,64.1364253 85.0900878,62.7557135 L85.0900878,57.3663223 C85.0900878,57.2720498 85.0847554,57.1778529 85.0741161,57.0841827 C84.9182948,55.7122996 83.6798447,54.726483 82.3079593,54.882294 C67.7772542,56.5327211 57.2352868,57.3581712 50.6724651,57.3581712 C44.1061236,57.3581712 33.5086975,56.5318239 18.8704837,54.8795908 Z" id="Rectangle" stroke="#979797" fill="#A9A8A8"></path>
        <polygon id="Rectangle-Copy" fill="#D98061" points="51.5900878 67.6018937 56.8101681 64.3340595 63.5900878 74.3981063 58.3700074 77.6659405"></polygon>
        <polygon id="Rectangle" fill="#D98061" points="47.481568 64.3481959 52.5900878 67.7033533 45.6986076 77.6518041 40.5900878 74.2966467"></polygon>
        <ellipse id="Oval" fill="#D98061" cx="52.5900878" cy="61.5" rx="12" ry="7.5"></ellipse>
        <ellipse id="Oval" stroke="#FFFAFA" fill="#D98061" cx="52.0900878" cy="61" rx="8" ry="5.5"></ellipse>
    </g>
</svg>