<?xml version="1.0" encoding="UTF-8"?>
<svg width="87px" height="56px" viewBox="0 0 87 56" version="1.1" xmlns="http://www.w3.org/2000/svg" xmlns:xlink="http://www.w3.org/1999/xlink">
    <!-- Generator: Sketch 60.1 (88133) - https://sketch.com -->
    <title>Group</title>
    <desc>Created with Sketch.</desc>
    <g id="Page-1" stroke="none" stroke-width="1" fill="none" fill-rule="evenodd">
        <g id="Group" transform="translate(-9.000000, 0.000000)">
            <path d="M12.0398786,15 L13.5,15 C14.8807119,15 16,16.1192881 16,17.5 C16,21 16,24.5 16,28 C16,31.8333333 16,35.6666667 16,39.5 C16,40.8807119 14.8807119,42 13.5,42 L12.0398786,42 C11.1234537,42 10.6863503,41.883968 10.2789429,41.6660841 C9.87153546,41.4482003 9.55179975,41.1284645 9.33391588,40.7210571 C9.11603201,40.3136497 9,39.8765463 9,38.9601214 L9,18.0398786 C9,17.1234537 9.11603201,16.6863503 9.33391588,16.2789429 C9.55179975,15.8715355 9.87153546,15.5517997 10.2789429,15.3339159 C10.6863503,15.116032 11.1234537,15 12.0398786,15 Z" id="Rectangle" fill="#D98061"></path>
            <path d="M28.0398786,6 L28.9601214,6 C29.8765463,6 30.3136497,6.11603201 30.7210571,6.33391588 C31.1284645,6.55179975 31.4482003,6.87153546 31.6660841,7.27894287 C31.883968,7.68635028 32,8.12345366 32,9.03987859 L32,47.9601214 C32,48.8765463 31.883968,49.3136497 31.6660841,49.7210571 C31.4482003,50.1284645 31.1284645,50.4482003 30.7210571,50.6660841 C30.3136497,50.883968 29.8765463,51 28.9601214,51 L28.0398786,51 C27.1234537,51 26.6863503,50.883968 26.2789429,50.6660841 C25.8715355,50.4482003 25.5517997,50.1284645 25.3339159,49.7210571 C25.116032,49.3136497 25,48.8765463 25,47.9601214 L25,9.03987859 C25,8.12345366 25.116032,7.68635028 25.3339159,7.27894287 C25.5517997,6.87153546 25.8715355,6.55179975 26.2789429,6.33391588 C26.6863503,6.11603201 27.1234537,6 28.0398786,6 Z" id="Rectangle-Copy-3" fill="#8B4949"></path>
            <path d="M44.0398786,22 L44.9601214,22 C45.8765463,22 46.3136497,22.116032 46.7210571,22.3339159 C47.1284645,22.5517997 47.4482003,22.8715355 47.6660841,23.2789429 C47.883968,23.6863503 48,24.1234537 48,25.0398786 L48,42.9601214 C48,43.8765463 47.883968,44.3136497 47.6660841,44.7210571 C47.4482003,45.1284645 47.1284645,45.4482003 46.7210571,45.6660841 C46.3136497,45.883968 45.8765463,46 44.9601214,46 L44.0398786,46 C43.1234537,46 42.6863503,45.883968 42.2789429,45.6660841 C41.8715355,45.4482003 41.5517997,45.1284645 41.3339159,44.7210571 C41.116032,44.3136497 41,43.8765463 41,42.9601214 L41,25.0398786 C41,24.1234537 41.116032,23.6863503 41.3339159,23.2789429 C41.5517997,22.8715355 41.8715355,22.5517997 42.2789429,22.3339159 C42.6863503,22.116032 43.1234537,22 44.0398786,22 Z" id="Rectangle-Copy-4" fill="#E2DDA5"></path>
            <path d="M60.0398786,16 L60.9601214,16 C61.8765463,16 62.3136497,16.116032 62.7210571,16.3339159 C63.1284645,16.5517997 63.4482003,16.8715355 63.6660841,17.2789429 C63.883968,17.6863503 64,18.1234537 64,19.0398786 L64,47.9601214 C64,48.8765463 63.883968,49.3136497 63.6660841,49.7210571 C63.4482003,50.1284645 63.1284645,50.4482003 62.7210571,50.6660841 C62.3136497,50.883968 61.8765463,51 60.9601214,51 L60.0398786,51 C59.1234537,51 58.6863503,50.883968 58.2789429,50.6660841 C57.8715355,50.4482003 57.5517997,50.1284645 57.3339159,49.7210571 C57.116032,49.3136497 57,48.8765463 57,47.9601214 L57,19.0398786 C57,18.1234537 57.116032,17.6863503 57.3339159,17.2789429 C57.5517997,16.8715355 57.8715355,16.5517997 58.2789429,16.3339159 C58.6863503,16.116032 59.1234537,16 60.0398786,16 Z" id="Rectangle-Copy-5" fill="#474F8D"></path>
            <path d="M76.0398786,-9.91740883e-17 L76.9601214,9.91740883e-17 C77.8765463,-6.91704411e-17 78.3136497,0.116032014 78.7210571,0.33391588 C79.1284645,0.551799746 79.4482003,0.871535463 79.6660841,1.27894287 C79.883968,1.68635028 80,2.12345366 80,3.03987859 L80,52.9601214 C80,53.8765463 79.883968,54.3136497 79.6660841,54.7210571 C79.4482003,55.1284645 79.1284645,55.4482003 78.7210571,55.6660841 C78.3136497,55.883968 77.8765463,56 76.9601214,56 L76.0398786,56 C75.1234537,56 74.6863503,55.883968 74.2789429,55.6660841 C73.8715355,55.4482003 73.5517997,55.1284645 73.3339159,54.7210571 C73.116032,54.3136497 73,53.8765463 73,52.9601214 L73,3.03987859 C73,2.12345366 73.116032,1.68635028 73.3339159,1.27894287 C73.5517997,0.871535463 73.8715355,0.551799746 74.2789429,0.33391588 C74.6863503,0.116032014 75.1234537,6.91704411e-17 76.0398786,-9.91740883e-17 Z" id="Rectangle-Copy-6" fill="#C180E7"></path>
            <path d="M92.0398786,30 L92.9601214,30 C93.8765463,30 94.3136497,30.116032 94.7210571,30.3339159 C95.1284645,30.5517997 95.4482003,30.8715355 95.6660841,31.2789429 C95.883968,31.6863503 96,32.1234537 96,33.0398786 L96,44.9601214 C96,45.8765463 95.883968,46.3136497 95.6660841,46.7210571 C95.4482003,47.1284645 95.1284645,47.4482003 94.7210571,47.6660841 C94.3136497,47.883968 93.8765463,48 92.9601214,48 L92.0398786,48 C91.1234537,48 90.6863503,47.883968 90.2789429,47.6660841 C89.8715355,47.4482003 89.5517997,47.1284645 89.3339159,46.7210571 C89.116032,46.3136497 89,45.8765463 89,44.9601214 L89,33.0398786 C89,32.1234537 89.116032,31.6863503 89.3339159,31.2789429 C89.5517997,30.8715355 89.8715355,30.5517997 90.2789429,30.3339159 C90.6863503,30.116032 91.1234537,30 92.0398786,30 Z" id="Rectangle-Copy-7" fill="#569256"></path>
        </g>
    </g>
</svg>