<?xml version="1.0" encoding="UTF-8"?>
<svg width="195px" height="123px" viewBox="0 0 195 123" version="1.1" xmlns="http://www.w3.org/2000/svg" xmlns:xlink="http://www.w3.org/1999/xlink">
    <!-- Generator: Sketch 60.1 (88133) - https://sketch.com -->
    <title>Rectangle</title>
    <desc>Created with Sketch.</desc>
    <g id="Page-1" stroke="none" stroke-width="1" fill="none" fill-rule="evenodd">
        <path d="M25.1013686,-5.69712169e-16 L170.898631,5.69712169e-16 C175.801984,-3.31019177e-16 177.580059,0.510540861 179.372651,1.46922987 C181.165244,2.42791888 182.572081,3.83475604 183.53077,5.62734863 C184.489459,7.41994122 185,9.19801553 185,14.1013686 L185,107 L185,107 L11,107 L11,14.1013686 C11,9.19801553 11.5105409,7.41994122 12.4692299,5.62734863 C13.4279189,3.83475604 14.834756,2.42791888 16.6273486,1.46922987 C18.4199412,0.510540861 20.1980155,3.31019177e-16 25.1013686,-5.69712169e-16 Z" id="Rectangle" fill="#262F34"></path>
        <path d="M34.4570581,10 L165.308344,10 C167.982901,10 168.952759,10.2784768 169.930537,10.8013981 C170.908315,11.3243194 171.675681,12.0916851 172.198602,13.0694629 C172.721523,14.0472407 173,15.0170994 173,17.6916556 L173,29.7180574 C173,30.1638168 172.953587,30.3254599 172.866434,30.4884229 C172.77928,30.6513858 172.651386,30.7792801 172.488423,30.8664336 C172.32546,30.9535872 172.163817,31 171.718057,31 L26.2819426,31 C25.8361832,31 25.6745401,30.9535872 25.5115771,30.8664336 C25.3486142,30.7792801 25.2207199,30.6513858 25.1335664,30.4884229 C25.0464128,30.3254599 25,30.1638168 25,29.7180574 L25,19.4570581 C25,16.8491624 25.3713024,15.3963209 26.0685308,14.0926172 C26.7657592,12.7889135 27.7889135,11.7657592 29.0926172,11.0685308 C30.3963209,10.3713024 31.8491624,10 34.4570581,10 Z" id="Rectangle" fill="#AF4D21"></path>
        <rect id="Rectangle" fill="#FFFFFF" x="25" y="31" width="148" height="68"></rect>
        <path d="M5.53659976,107 L191.918129,107 C193.574984,107 194.918129,108.343146 194.918129,110 C194.918129,110.611699 194.731139,111.20878 194.382225,111.711208 L189.747683,118.38483 C188.463048,120.234672 187.912424,120.826383 187.202063,121.39649 C186.491703,121.966598 185.726474,122.364093 184.851575,122.617444 C183.976677,122.870795 183.175955,122.981036 180.923835,122.96835 L15.0296083,122.033898 C12.6532671,122.020513 11.8037372,121.880476 10.8837855,121.578724 C9.96383384,121.276973 9.16744734,120.814599 8.44928911,120.165281 C7.73113089,119.515963 7.18832711,118.847626 5.99853149,116.790549 L2.93969527,111.502028 C2.1101483,110.067797 2.60034136,108.232642 4.0345721,107.403096 C4.49111151,107.139037 5.00919559,107 5.53659976,107 Z" id="Rectangle" fill="#ACA7A7"></path>
        <path d="M42.8458278,44 L82.1541722,44 C83.4914503,44 83.9763797,44.1392384 84.4652686,44.4006991 C84.9541574,44.6621597 85.3378403,45.0458426 85.5993009,45.5347314 C85.8607616,46.0236203 86,46.5085497 86,47.8458278 L86,82.1541722 C86,83.4914503 85.8607616,83.9763797 85.5993009,84.4652686 C85.3378403,84.9541574 84.9541574,85.3378403 84.4652686,85.5993009 C83.9763797,85.8607616 83.4914503,86 82.1541722,86 L42.8458278,86 C41.5085497,86 41.0236203,85.8607616 40.5347314,85.5993009 C40.0458426,85.3378403 39.6621597,84.9541574 39.4006991,84.4652686 C39.1392384,83.9763797 39,83.4914503 39,82.1541722 L39,47.8458278 C39,46.5085497 39.1392384,46.0236203 39.4006991,45.5347314 C39.6621597,45.0458426 40.0458426,44.6621597 40.5347314,44.4006991 C41.0236203,44.1392384 41.5085497,44 42.8458278,44 Z" id="Rectangle" fill="#66ABE8"></path>
        <path d="M106.5,42 L157.5,42 C158.880712,42 160,43.1192881 160,44.5 C160,45.8807119 158.880712,47 157.5,47 L106.5,47 C105.119288,47 104,45.8807119 104,44.5 C104,43.1192881 105.119288,42 106.5,42 Z" id="Rectangle" fill="#F08020"></path>
        <path d="M114.5,18 L120.5,18 C121.880712,18 123,19.1192881 123,20.5 C123,21.8807119 121.880712,23 120.5,23 L114.5,23 C113.119288,23 112,21.8807119 112,20.5 C112,19.1192881 113.119288,18 114.5,18 Z" id="Rectangle-Copy-34" fill="#D8D8D8"></path>
        <path d="M131.5,18 L137.5,18 C138.880712,18 140,19.1192881 140,20.5 C140,21.8807119 138.880712,23 137.5,23 L131.5,23 C130.119288,23 129,21.8807119 129,20.5 C129,19.1192881 130.119288,18 131.5,18 Z" id="Rectangle-Copy-36" fill="#D8D8D8"></path>
        <path d="M148.5,18 L154.5,18 C155.880712,18 157,19.1192881 157,20.5 C157,21.8807119 155.880712,23 154.5,23 L148.5,23 C147.119288,23 146,21.8807119 146,20.5 C146,19.1192881 147.119288,18 148.5,18 Z" id="Rectangle-Copy-37" fill="#D8D8D8"></path>
        <path d="M37.5,18 L88.5,18 C89.8807119,18 91,19.1192881 91,20.5 C91,21.8807119 89.8807119,23 88.5,23 L37.5,23 C36.1192881,23 35,21.8807119 35,20.5 C35,19.1192881 36.1192881,18 37.5,18 Z" id="Rectangle-Copy-35" fill="#FDE857"></path>
        <path d="M106.5,52 L129.5,52 C130.880712,52 132,53.1192881 132,54.5 C132,55.8807119 130.880712,57 129.5,57 L106.5,57 C105.119288,57 104,55.8807119 104,54.5 C104,53.1192881 105.119288,52 106.5,52 Z" id="Rectangle-Copy-31" fill="#DE3F3F"></path>
        <path d="M117.5,63 L145.5,63 C146.880712,63 148,64.1192881 148,65.5 C148,66.8807119 146.880712,68 145.5,68 L117.5,68 C116.119288,68 115,66.8807119 115,65.5 C115,64.1192881 116.119288,63 117.5,63 Z" id="Rectangle-Copy-32" fill="#D8D8D8"></path>
        <path d="M117.5,73 L145.5,73 C146.880712,73 148,74.1192881 148,75.5 C148,76.8807119 146.880712,78 145.5,78 L117.5,78 C116.119288,78 115,76.8807119 115,75.5 C115,74.1192881 116.119288,73 117.5,73 Z" id="Rectangle-Copy-33" fill="#D8D8D8"></path>
        <path d="M73,107 L126,107 C126,111.418278 122.418278,115 118,115 L81,115 C76.581722,115 73,111.418278 73,107 L73,107 L73,107 Z" id="Rectangle" fill="#4D4B4B"></path>
    </g>
</svg>