<?xml version="1.0" encoding="UTF-8"?>
<svg width="141px" height="117px" viewBox="0 0 141 117" version="1.1" xmlns="http://www.w3.org/2000/svg" xmlns:xlink="http://www.w3.org/1999/xlink">
    <!-- Generator: Sketch 60.1 (88133) - https://sketch.com -->
    <title>Group 5</title>
    <desc>Created with Sketch.</desc>
    <defs>
        <path d="M11.5374834,-4.66128138e-16 L121.462517,4.66128138e-16 C125.474351,-2.70833872e-16 126.929139,0.41771525 128.395806,1.20209717 C129.862472,1.98647908 131.013521,3.13752767 131.797903,4.60419433 C132.582285,6.070861 133,7.52564907 133,11.5374834 L133,46.4625166 C133,50.4743509 132.582285,51.929139 131.797903,53.3958057 C131.013521,54.8624723 129.862472,56.0135209 128.395806,56.7979028 C126.929139,57.5822847 125.474351,58 121.462517,58 L11.5374834,58 C7.52564907,58 6.070861,57.5822847 4.60419433,56.7979028 C3.13752767,56.0135209 1.98647908,54.8624723 1.20209717,53.3958057 C0.41771525,51.929139 1.80555915e-16,50.4743509 -3.10752092e-16,46.4625166 L3.10752092e-16,11.5374834 C-1.80555915e-16,7.52564907 0.41771525,6.070861 1.20209717,4.60419433 C1.98647908,3.13752767 3.13752767,1.98647908 4.60419433,1.20209717 C6.070861,0.41771525 7.52564907,2.70833872e-16 11.5374834,-4.66128138e-16 Z" id="path-1"></path>
        <filter x="-5.3%" y="-8.6%" width="110.5%" height="124.1%" filterUnits="objectBoundingBox" id="filter-2">
            <feOffset dx="0" dy="2" in="SourceAlpha" result="shadowOffsetOuter1"></feOffset>
            <feGaussianBlur stdDeviation="2" in="shadowOffsetOuter1" result="shadowBlurOuter1"></feGaussianBlur>
            <feColorMatrix values="0 0 0 0 0   0 0 0 0 0   0 0 0 0 0  0 0 0 0.5 0" type="matrix" in="shadowBlurOuter1"></feColorMatrix>
        </filter>
    </defs>
    <g id="Page-1" stroke="none" stroke-width="1" fill="none" fill-rule="evenodd">
        <g id="Group-5" transform="translate(4.000000, 33.000000)">
            <path d="M14.409713,45 L118.590287,45 C120.819084,45 121.627299,45.232064 122.442114,45.6678318 C123.256929,46.1035995 123.896401,46.7430709 124.332168,47.5578857 C124.767936,48.3727006 125,49.1809162 125,51.409713 L125,76.590287 C125,78.8190838 124.767936,79.6272994 124.332168,80.4421143 C123.896401,81.2569291 123.256929,81.8964005 122.442114,82.3321682 C121.627299,82.767936 120.819084,83 118.590287,83 L14.409713,83 C12.1809162,83 11.3727006,82.767936 10.5578857,82.3321682 C9.74307093,81.8964005 9.10359949,81.2569291 8.66783176,80.4421143 C8.23206403,79.6272994 8,78.8190838 8,76.590287 L8,51.409713 C8,49.1809162 8.23206403,48.3727006 8.66783176,47.5578857 C9.10359949,46.7430709 9.74307093,46.1035995 10.5578857,45.6678318 C11.3727006,45.232064 12.1809162,45 14.409713,45 Z" id="Rectangle" fill="#6B4A26"></path>
            <g id="Rectangle">
                <use fill="black" fill-opacity="1" filter="url(#filter-2)" xlink:href="#path-1"></use>
                <use fill="#422A1E" fill-rule="evenodd" xlink:href="#path-1"></use>
            </g>
        </g>
        <path d="M32.8458278,82 L49.1541722,82 C50.4914503,82 50.9763797,82.1392384 51.4652686,82.4006991 C51.9541574,82.6621597 52.3378403,83.0458426 52.5993009,83.5347314 C52.8607616,84.0236203 53,84.5085497 53,85.8458278 L53,92.1541722 C53,93.4914503 52.8607616,93.9763797 52.5993009,94.4652686 C52.3378403,94.9541574 51.9541574,95.3378403 51.4652686,95.5993009 C50.9763797,95.8607616 50.4914503,96 49.1541722,96 L32.8458278,96 C31.5085497,96 31.0236203,95.8607616 30.5347314,95.5993009 C30.0458426,95.3378403 29.6621597,94.9541574 29.4006991,94.4652686 C29.1392384,93.9763797 29,93.4914503 29,92.1541722 L29,85.8458278 C29,84.5085497 29.1392384,84.0236203 29.4006991,83.5347314 C29.6621597,83.0458426 30.0458426,82.6621597 30.5347314,82.4006991 C31.0236203,82.1392384 31.5085497,82 32.8458278,82 Z" id="Rectangle" fill="#ED912C"></path>
        <path d="M94.8458278,82 L111.154172,82 C112.49145,82 112.97638,82.1392384 113.465269,82.4006991 C113.954157,82.6621597 114.33784,83.0458426 114.599301,83.5347314 C114.860762,84.0236203 115,84.5085497 115,85.8458278 L115,92.1541722 C115,93.4914503 114.860762,93.9763797 114.599301,94.4652686 C114.33784,94.9541574 113.954157,95.3378403 113.465269,95.5993009 C112.97638,95.8607616 112.49145,96 111.154172,96 L94.8458278,96 C93.5085497,96 93.0236203,95.8607616 92.5347314,95.5993009 C92.0458426,95.3378403 91.6621597,94.9541574 91.4006991,94.4652686 C91.1392384,93.9763797 91,93.4914503 91,92.1541722 L91,85.8458278 C91,84.5085497 91.1392384,84.0236203 91.4006991,83.5347314 C91.6621597,83.0458426 92.0458426,82.6621597 92.5347314,82.4006991 C93.0236203,82.1392384 93.5085497,82 94.8458278,82 Z" id="Rectangle-Copy-24" fill="#ED912C"></path>
        <path d="M31.8466262,-6.36741994e-17 L112.153374,6.36741994e-17 C112.837896,-6.20704633e-17 113.31365,0.116032014 113.721057,0.33391588 C114.128465,0.551799746 114.4482,0.871535463 114.666084,1.27894287 C114.883968,1.68635028 115,2.16210414 115,2.8466262 L115,3.1533738 C115,3.83789586 114.883968,4.31364972 114.666084,4.72105713 C114.4482,5.12846454 114.128465,5.44820025 113.721057,5.66608412 C113.31365,5.88396799 112.837896,6 112.153374,6 L31.8466262,6 C31.1621041,6 30.6863503,5.88396799 30.2789429,5.66608412 C29.8715355,5.44820025 29.5517997,5.12846454 29.3339159,4.72105713 C29.116032,4.31364972 29,3.83789586 29,3.1533738 L29,2.8466262 C29,2.16210414 29.116032,1.68635028 29.3339159,1.27894287 C29.5517997,0.871535463 29.8715355,0.551799746 30.2789429,0.33391588 C30.6863503,0.116032014 31.1621041,6.20704633e-17 31.8466262,-6.36741994e-17 Z" id="Rectangle" fill="#6B4A26"></path>
        <rect id="Rectangle" fill="#6B4A26" x="4" y="45" width="133" height="13"></rect>
        <rect id="Rectangle-Copy-30" fill="#5E4020" x="4" y="50" width="133" height="8"></rect>
        <path d="M32.8458278,1 L37,1 L37,1 L37,33 L29,33 L29,4.8458278 C29,3.50854969 29.1392384,3.02362033 29.4006991,2.53473144 C29.6621597,2.04584256 30.0458426,1.66215969 30.5347314,1.40069906 C31.0236203,1.13923842 31.5085497,1 32.8458278,1 Z" id="Rectangle" fill="#6B4A26"></path>
        <path d="M107,1 L111.154172,1 C112.49145,1 112.97638,1.13923842 113.465269,1.40069906 C113.954157,1.66215969 114.33784,2.04584256 114.599301,2.53473144 C114.860762,3.02362033 115,3.50854969 115,4.8458278 L115,33 L115,33 L107,33 L107,1 Z" id="Rectangle-Copy-25" fill="#6B4A26"></path>
        <polygon id="Rectangle" fill="#ED912C" points="29 18 33 19.2151781 37 18 37 33 29 33"></polygon>
        <polygon id="Rectangle-Copy-26" fill="#ED912C" points="107 18 111 19.2193888 115 18 115 33 107 33"></polygon>
        <path d="M47.2819426,86 L51.7180574,86 C52.1638168,86 52.3254599,86.0464128 52.4884229,86.1335664 C52.6513858,86.2207199 52.7792801,86.3486142 52.8664336,86.5115771 C52.9535872,86.6745401 53,86.8361832 53,87.2819426 L53,94.7180574 C53,95.1638168 52.9535872,95.3254599 52.8664336,95.4884229 C52.7792801,95.6513858 52.6513858,95.7792801 52.4884229,95.8664336 C52.3254599,95.9535872 52.1638168,96 51.7180574,96 L47.2819426,96 C46.8361832,96 46.6745401,95.9535872 46.5115771,95.8664336 C46.3486142,95.7792801 46.2207199,95.6513858 46.1335664,95.4884229 C46.0464128,95.3254599 46,95.1638168 46,94.7180574 L46,87.2819426 C46,86.8361832 46.0464128,86.6745401 46.1335664,86.5115771 C46.2207199,86.3486142 46.3486142,86.2207199 46.5115771,86.1335664 C46.6745401,86.0464128 46.8361832,86 47.2819426,86 Z" id="Rectangle" fill="#C67824"></path>
        <path d="M94.2819426,92 L112.718057,92 C113.163817,92 113.32546,92.0464128 113.488423,92.1335664 C113.651386,92.2207199 113.77928,92.3486142 113.866434,92.5115771 C113.953587,92.6745401 114,92.8361832 114,93.2819426 L114,94.7180574 C114,95.1638168 113.953587,95.3254599 113.866434,95.4884229 C113.77928,95.6513858 113.651386,95.7792801 113.488423,95.8664336 C113.32546,95.9535872 113.163817,96 112.718057,96 L94.2819426,96 C93.8361832,96 93.6745401,95.9535872 93.5115771,95.8664336 C93.3486142,95.7792801 93.2207199,95.6513858 93.1335664,95.4884229 C93.0464128,95.3254599 93,95.1638168 93,94.7180574 L93,93.2819426 C93,92.8361832 93.0464128,92.6745401 93.1335664,92.5115771 C93.2207199,92.3486142 93.3486142,92.2207199 93.5115771,92.1335664 C93.6745401,92.0464128 93.8361832,92 94.2819426,92 Z" id="Rectangle-Copy-28" fill="#C67824"></path>
        <path d="M32.2819426,92 L50.7180574,92 C51.1638168,92 51.3254599,92.0464128 51.4884229,92.1335664 C51.6513858,92.2207199 51.7792801,92.3486142 51.8664336,92.5115771 C51.9535872,92.6745401 52,92.8361832 52,93.2819426 L52,94.7180574 C52,95.1638168 51.9535872,95.3254599 51.8664336,95.4884229 C51.7792801,95.6513858 51.6513858,95.7792801 51.4884229,95.8664336 C51.3254599,95.9535872 51.1638168,96 50.7180574,96 L32.2819426,96 C31.8361832,96 31.6745401,95.9535872 31.5115771,95.8664336 C31.3486142,95.7792801 31.2207199,95.6513858 31.1335664,95.4884229 C31.0464128,95.3254599 31,95.1638168 31,94.7180574 L31,93.2819426 C31,92.8361832 31.0464128,92.6745401 31.1335664,92.5115771 C31.2207199,92.3486142 31.3486142,92.2207199 31.5115771,92.1335664 C31.6745401,92.0464128 31.8361832,92 32.2819426,92 Z" id="Rectangle-Copy-29" fill="#C67824"></path>
        <path d="M109.281943,86 L113.718057,86 C114.163817,86 114.32546,86.0464128 114.488423,86.1335664 C114.651386,86.2207199 114.77928,86.3486142 114.866434,86.5115771 C114.953587,86.6745401 115,86.8361832 115,87.2819426 L115,94.7180574 C115,95.1638168 114.953587,95.3254599 114.866434,95.4884229 C114.77928,95.6513858 114.651386,95.7792801 114.488423,95.8664336 C114.32546,95.9535872 114.163817,96 113.718057,96 L109.281943,96 C108.836183,96 108.67454,95.9535872 108.511577,95.8664336 C108.348614,95.7792801 108.22072,95.6513858 108.133566,95.4884229 C108.046413,95.3254599 108,95.1638168 108,94.7180574 L108,87.2819426 C108,86.8361832 108.046413,86.6745401 108.133566,86.5115771 C108.22072,86.3486142 108.348614,86.2207199 108.511577,86.1335664 C108.67454,86.0464128 108.836183,86 109.281943,86 Z" id="Rectangle-Copy-27" fill="#C67824"></path>
    </g>
</svg>