<?xml version="1.0" encoding="UTF-8"?>
<svg width="118px" height="136px" viewBox="0 0 118 136" version="1.1" xmlns="http://www.w3.org/2000/svg" xmlns:xlink="http://www.w3.org/1999/xlink">
    <!-- Generator: Sketch 60.1 (88133) - https://sketch.com -->
    <title>Oval Copy</title>
    <desc>Created with Sketch.</desc>
    <defs>
        <polygon id="path-1" points="31.3468254 15.9880682 59.2003788 44.4126894 4.2003788 44.4126894"></polygon>
        <filter x="-28.2%" y="-38.0%" width="156.6%" height="185.5%" filterUnits="objectBoundingBox" id="filter-2">
            <feMorphology radius="1.5" operator="dilate" in="SourceAlpha" result="shadowSpreadOuter1"></feMorphology>
            <feOffset dx="0" dy="2" in="shadowSpreadOuter1" result="shadowOffsetOuter1"></feOffset>
            <feGaussianBlur stdDeviation="2" in="shadowOffsetOuter1" result="shadowBlurOuter1"></feGaussianBlur>
            <feColorMatrix values="0 0 0 0 0   0 0 0 0 0   0 0 0 0 0  0 0 0 0.5 0" type="matrix" in="shadowBlurOuter1"></feColorMatrix>
        </filter>
    </defs>
    <g id="Page-1" stroke="none" stroke-width="1" fill="none" fill-rule="evenodd">
        <path d="M5.8458278,40 L114.154172,40 C115.49145,40 115.97638,40.1392384 116.465269,40.4006991 C116.954157,40.6621597 117.33784,41.0458426 117.599301,41.5347314 C117.860762,42.0236203 118,42.5085497 118,43.8458278 L118,132.154172 C118,133.49145 117.860762,133.97638 117.599301,134.465269 C117.33784,134.954157 116.954157,135.33784 116.465269,135.599301 C115.97638,135.860762 115.49145,136 114.154172,136 L5.8458278,136 C4.50854969,136 4.02362033,135.860762 3.53473144,135.599301 C3.04584256,135.33784 2.66215969,134.954157 2.40069906,134.465269 C2.13923842,133.97638 2,133.49145 2,132.154172 L2,43.8458278 C2,42.5085497 2.13923842,42.0236203 2.40069906,41.5347314 C2.66215969,41.0458426 3.04584256,40.6621597 3.53473144,40.4006991 C4.02362033,40.1392384 4.50854969,40 5.8458278,40 Z" id="Rectangle" fill="#D8D8D8"></path>
        <path d="M45.8458278,-1.55376046e-16 L114.154172,1.55376046e-16 C115.49145,-9.02779573e-17 115.97638,0.139238417 116.465269,0.400699056 C116.954157,0.662159695 117.33784,1.04584256 117.599301,1.53473144 C117.860762,2.02362033 118,2.50854969 118,3.8458278 L118,107.154172 C118,108.49145 117.860762,108.97638 117.599301,109.465269 C117.33784,109.954157 116.954157,110.33784 116.465269,110.599301 C115.97638,110.860762 115.49145,111 114.154172,111 L45.8458278,111 C44.5085497,111 44.0236203,110.860762 43.5347314,110.599301 C43.0458426,110.33784 42.6621597,109.954157 42.4006991,109.465269 C42.1392384,108.97638 42,108.49145 42,107.154172 L42,3.8458278 C42,2.50854969 42.1392384,2.02362033 42.4006991,1.53473144 C42.6621597,1.04584256 43.0458426,0.662159695 43.5347314,0.400699056 C44.0236203,0.139238417 44.5085497,9.02779573e-17 45.8458278,-1.55376046e-16 Z" id="Rectangle-Copy-38" fill="#D8D8D8"></path>
        <g id="Triangle" transform="translate(31.700379, 30.200379) rotate(135.000000) translate(-31.700379, -30.200379) ">
            <use fill="black" fill-opacity="1" filter="url(#filter-2)" xlink:href="#path-1"></use>
            <use fill="#697ED7" fill-rule="evenodd" xlink:href="#path-1"></use>
        </g>
        <path d="M31,49 L97,49 C98.6568542,49 100,50.3431458 100,52 C100,53.6568542 98.6568542,55 97,55 L31,55 C29.3431458,55 28,53.6568542 28,52 C28,50.3431458 29.3431458,49 31,49 Z" id="Rectangle" fill="#777272"></path>
        <path d="M31,60 L97,60 C98.6568542,60 100,61.3431458 100,63 C100,64.6568542 98.6568542,66 97,66 L31,66 C29.3431458,66 28,64.6568542 28,63 C28,61.3431458 29.3431458,60 31,60 Z" id="Rectangle-Copy-39" fill="#777272"></path>
        <path d="M31,105 L97,105 C98.6568542,105 100,106.343146 100,108 C100,109.656854 98.6568542,111 97,111 L31,111 C29.3431458,111 28,109.656854 28,108 C28,106.343146 29.3431458,105 31,105 Z" id="Rectangle-Copy-43" fill="#777272"></path>
        <path d="M31,72 L86,72 C87.6568542,72 89,73.3431458 89,75 C89,76.6568542 87.6568542,78 86,78 L31,78 C29.3431458,78 28,76.6568542 28,75 C28,73.3431458 29.3431458,72 31,72 Z" id="Rectangle-Copy-40" fill="#777272"></path>
        <path d="M30.5,84 L72.5,84 C73.8807119,84 75,85.1192881 75,86.5 C75,87.8807119 73.8807119,89 72.5,89 L30.5,89 C29.1192881,89 28,87.8807119 28,86.5 C28,85.1192881 29.1192881,84 30.5,84 Z" id="Rectangle-Copy-41" fill="#777272"></path>
        <path d="M31,94 L86,94 C87.6568542,94 89,95.3431458 89,97 C89,98.6568542 87.6568542,100 86,100 L31,100 C29.3431458,100 28,98.6568542 28,97 C28,95.3431458 29.3431458,94 31,94 Z" id="Rectangle-Copy-42" fill="#777272"></path>
        <path d="M74.8458278,10 L96.1541722,10 C97.4914503,10 97.9763797,10.1392384 98.4652686,10.4006991 C98.9541574,10.6621597 99.3378403,11.0458426 99.5993009,11.5347314 C99.8607616,12.0236203 100,12.5085497 100,13.8458278 L100,36.1541722 C100,37.4914503 99.8607616,37.9763797 99.5993009,38.4652686 C99.3378403,38.9541574 98.9541574,39.3378403 98.4652686,39.5993009 C97.9763797,39.8607616 97.4914503,40 96.1541722,40 L74.8458278,40 C73.5085497,40 73.0236203,39.8607616 72.5347314,39.5993009 C72.0458426,39.3378403 71.6621597,38.9541574 71.4006991,38.4652686 C71.1392384,37.9763797 71,37.4914503 71,36.1541722 L71,13.8458278 C71,12.5085497 71.1392384,12.0236203 71.4006991,11.5347314 C71.6621597,11.0458426 72.0458426,10.6621597 72.5347314,10.4006991 C73.0236203,10.1392384 73.5085497,10 74.8458278,10 Z" id="Rectangle" fill="#7799C2"></path>
        <ellipse id="Oval" fill="#D8D8D8" cx="85.5" cy="24" rx="5.5" ry="5"></ellipse>
        <path d="M85.5,40 C88.5375661,40 92.4774576,34.439056 92.4774576,31.4014899 C92.4774576,28.3639237 88.5375661,29 85.5,29 C82.4624339,29 78.482773,28.3639237 78.482773,31.4014899 C78.482773,34.439056 82.4624339,40 85.5,40 Z" id="Oval-Copy" fill="#D8D8D8"></path>
    </g>
</svg>