<?xml version="1.0" encoding="UTF-8"?>
<svg width="62px" height="62px" viewBox="0 0 62 62" version="1.1" xmlns="http://www.w3.org/2000/svg" xmlns:xlink="http://www.w3.org/1999/xlink">
    <!-- Generator: Sketch 58 (84663) - https://sketch.com -->
    <title>Slice 1</title>
    <desc>Created with Sketch.</desc>
    <g id="Page-1" stroke="none" stroke-width="1" fill="none" fill-rule="evenodd">
        <path d="M31.0340203,1.86878559e-05 C48.1548172,0.0187284833 62.0188456,13.913007 62.0002551,31.0338191 C61.9815522,48.1546312 48.0872915,62.0186774 30.9664946,62.0000936 C22.7420318,62.0000936 14.8554043,58.7282833 9.04616942,52.9063732 C3.23693452,47.084463 -0.0176462762,39.1907193 7.19673639e-05,30.9662687 C0.0189517238,13.8454567 13.9132234,-0.0185785267 31.0340203,1.86878559e-05 Z M27.969565,62 C43.4334877,62.0186024 55.9831239,48.1545647 56,31.0337629 C56.0168082,13.9129612 43.4944786,0.0186910008 28.0305559,0 C12.5666333,-0.018615895 0.0169871487,13.8454109 0,30.9662126 C-0.0160691356,39.1906582 2.92354781,47.0843971 8.17059105,52.9063038 C13.4176342,58.7282105 20.541029,62 27.969565,62 L27.969565,62 Z" id="Shape" fill="#08382F" fill-rule="nonzero"></path>
    </g>
</svg>