<?xml version="1.0" encoding="UTF-8"?>
<svg width="722px" height="643px" viewBox="0 0 722 643" version="1.1" xmlns="http://www.w3.org/2000/svg" xmlns:xlink="http://www.w3.org/1999/xlink">
    <!-- Generator: Sketch 58 (84663) - https://sketch.com -->
    <title>Light</title>
    <desc>Created with Sketch.</desc>
    <defs>
        <filter x="-1.7%" y="-2.3%" width="103.4%" height="104.6%" filterUnits="objectBoundingBox" id="filter-1">
            <feOffset dx="0" dy="2" in="SourceAlpha" result="shadowOffsetOuter1"></feOffset>
            <feGaussianBlur stdDeviation="2" in="shadowOffsetOuter1" result="shadowBlurOuter1"></feGaussianBlur>
            <feColorMatrix values="0 0 0 0 0.478459013   0 0 0 0 0.320726174   0 0 0 0 0.320726174  0 0 0 0.2 0" type="matrix" in="shadowBlurOuter1" result="shadowMatrixOuter1"></feColorMatrix>
            <feMerge>
                <feMergeNode in="shadowMatrixOuter1"></feMergeNode>
                <feMergeNode in="SourceGraphic"></feMergeNode>
            </feMerge>
        </filter>
        <linearGradient x1="50%" y1="6.76461124%" x2="50%" y2="23.4318514%" id="linearGradient-2">
            <stop stop-color="#000000" stop-opacity="0.5" offset="0%"></stop>
            <stop stop-color="#FFFFFF" stop-opacity="0.41758632" offset="100%"></stop>
        </linearGradient>
        <linearGradient x1="50%" y1="6.76461124%" x2="50%" y2="22.2335416%" id="linearGradient-3">
            <stop stop-color="#FFFFFF" stop-opacity="0.41758632" offset="0%"></stop>
            <stop stop-color="#000000" stop-opacity="0.350770323" offset="100%"></stop>
        </linearGradient>
    </defs>
    <g id="Page-1" stroke="none" stroke-width="1" fill="none" fill-rule="evenodd">
        <g id="Light" transform="translate(-3.000000, -48.000000)">
            <g id="Group" transform="translate(156.000000, 0.000000)">
                <path d="M77.5753049,274.523285 C80.2219459,222.482991 86.6750709,190.833864 96.9346799,179.575902 C129.386799,143.965898 185.99464,133.775647 206.075305,133.775647 C225.775347,133.775647 290.865558,145.303664 324.392665,179.575902 C335.628767,191.061723 341.618032,222.710851 342.360461,274.523285 C321.609078,335.770216 303.497099,376.830819 288.024524,397.705094 C272.551949,418.579369 245.449084,438.518766 206.71593,457.523285 C169.935137,441.292325 143.200762,421.352928 126.512805,397.705094 C109.824848,374.057259 93.5123479,332.996656 77.5753049,274.523285 Z" id="Path" stroke="#979797" fill="#B69052" fill-rule="nonzero"></path>
                <path d="M234.447358,229.543157 L259.204974,220.042783 L259.204974,220.042783 L295.600123,229.713866 C297.133725,230.121382 298.201279,231.509658 298.201279,233.09648 L298.201279,233.905057 C298.201279,235.291442 297.077392,236.415329 295.691006,236.415329 C295.42035,236.415329 295.151475,236.371558 294.894795,236.285708 C278.421171,230.776084 267.057054,228.021272 260.802445,228.021272 C254.70792,228.021272 246.214323,230.636871 235.321652,235.868069 C234.237511,236.388711 232.936572,235.93192 232.415917,234.847786 C232.274633,234.553597 232.201279,234.231413 232.201279,233.905057 L232.201279,232.810829 C232.201279,231.361647 233.094371,230.062346 234.447358,229.543157 Z" id="Rectangle" fill="#5F4A3C" fill-rule="nonzero" transform="translate(265.201279, 228.229056) scale(-1, 1) rotate(-24.000000) translate(-265.201279, -228.229056) "></path>
                <rect id="Rectangle" stroke="#979797" fill="#D8D8D8" fill-rule="nonzero" x="177.075305" y="381.937345" width="62" height="12" rx="6"></rect>
                <path d="M206.075305,434.851408 C227.733604,434.851408 250.075305,413.082845 250.075305,394.456876 C250.075305,383.074267 235.48315,377.166309 206.072486,376.93733 C176.662959,377.166309 162.075305,383.074227 162.075305,394.456876 C162.075305,413.082845 184.417006,434.851408 206.075305,434.851408 Z" id="Oval" stroke="#979797" fill="#594747" fill-rule="nonzero"></path>
                <path d="M182.227048,330 L230.723167,330 C232.298273,330 233.575149,331.276876 233.575149,332.851982 C233.575149,333.646342 233.243849,334.404711 232.661032,334.944463 L227.468833,339.753002 C227.369183,339.845288 227.266665,339.934428 227.16143,340.020292 C219.188784,346.525332 212.468307,349.777853 207,349.777853 C201.672405,349.777853 194.186149,346.690568 184.54123,340.515999 C183.904678,340.108477 183.344074,339.59306 182.884624,338.992911 L179.785289,334.944463 C178.752894,333.595917 179.009186,331.665783 180.357732,330.633388 C180.894317,330.2226 181.551274,330 182.227048,330 Z" id="Rectangle" fill-opacity="0.605031687" fill="#958D7F" fill-rule="nonzero"></path>
                <path d="M168.917327,381.196321 C166.517506,381.598904 164.598482,383.411057 164.059193,385.783901 L163.542368,388.057922 C163.468061,388.384873 163.42724,388.718542 163.420538,389.053765 C163.366011,391.780909 165.532596,394.035899 168.25974,394.090425 L242.984751,395.584478 C243.437417,395.593528 243.889423,395.545578 244.330116,395.441756 C247.23114,394.758311 249.028844,391.852524 248.345398,388.951499 L247.594766,385.765285 C247.038514,383.404157 245.115253,381.610262 242.721167,381.219504 C225.228989,378.36445 212.776527,376.937345 205.379992,376.937345 C198.003935,376.937345 185.844557,378.356684 168.917327,381.196321 Z" id="Rectangle" stroke="#979797" fill="#EDE2E2" fill-rule="nonzero"></path>
                <path d="M206.575305,433.937344 C214.389124,433.937344 223.673564,430.398168 231.749586,424.803624 C239.151652,419.675952 244.152693,413.699165 244.152693,409.985834 C244.152693,407.269528 242.313699,405.8865 238.017083,405.291335 C234.481172,404.801543 231.73345,404.819102 219.22079,405.204373 C213.056017,405.39419 208.87585,405.480314 204.159216,405.480314 C202.065407,405.480314 200.259644,405.475205 197.212295,405.462852 C183.570579,405.407549 179.88971,405.508039 176.44899,406.24366 C172.608494,407.064752 171.205297,408.640468 171.205297,412.038624 C171.205297,415.764306 175.679667,421.232887 182.499317,425.826331 C189.912354,430.819458 198.721672,433.937344 206.575305,433.937344 Z" id="Oval" stroke="#979797" fill="#E39595" fill-rule="nonzero"></path>
                <g id="Path-2"></g>
                <g id="Path-3"></g>
                <g id="Path-4"></g>
                <ellipse id="Oval" stroke="#979797" fill-opacity="0.742597247" fill="#372721" fill-rule="nonzero" cx="161.5" cy="280.5" rx="15" ry="13"></ellipse>
                <ellipse id="Oval-Copy" stroke="#979797" fill="#5F4A3C" fill-rule="nonzero" cx="251" cy="280.5" rx="16.5" ry="13"></ellipse>
                <path d="M145.638445,163.336441 C164.807843,163.336441 183.917385,172.627059 206.167972,189.806242 C211.111883,193.623325 230.766421,210.036441 234.609461,212.700739 C238.190485,215.183387 240.677839,216.28154 242.256437,216.033885 C243.84355,215.784895 244.673959,214.022217 244.673959,210.29769 C244.673959,196.247915 228.680849,167.087633 206.892027,141.99927 C181.561852,112.833279 153.716028,94.4861663 130.121703,94.4861663 C78.0367467,94.4861663 35.8797522,116.981944 35.8797522,144.542281 C35.8797522,146.74387 34.9869407,150.633721 33.1504198,156.864638 C32.058411,160.569587 27.0992398,176.374445 27.1888716,176.084415 C26.2638733,179.077515 25.4602042,181.737567 24.7185516,184.274374 C18.0181486,207.192952 16.4108591,220.62231 21.4663818,224.197009 C25.5656256,227.095535 33.5663887,225.08612 45.7052885,218.589779 C54.7946002,213.725477 60.6566834,209.955685 83.8621342,194.495197 C85.3752633,193.487084 86.6733755,192.6239 87.9144895,191.800993 C118.01083,171.845929 134.042271,163.336441 145.638445,163.336441 Z" id="Oval" stroke="#979797" fill="#333030" fill-rule="nonzero" transform="translate(131.585667, 159.989042) scale(-1, 1) rotate(36.000000) translate(-131.585667, -159.989042) "></path>
                <path d="M396.990632,204.762316 C396.574396,201.555232 396.377795,198.887029 396.377795,194.4989 C396.377795,177.286488 381.596659,144.837579 360.862868,117.465818 C336.690264,85.5543004 309.067447,65.7047684 283.970658,65.7047684 C229.620083,65.7047684 127.517376,132.556011 127.517376,166.695644 C127.517376,172.860715 133.452947,183.537785 143.274297,196.127051 C151.5818,206.775827 161.914869,217.709424 168.591895,223.096786 C172.764026,226.463073 179.453307,224.083271 189.368241,216.30368 C193.502326,213.059937 198.130185,208.953011 204.12257,203.294634 C207.37188,200.226437 219.028471,188.978233 220.574212,187.502144 C228.043422,180.369499 233.856731,175.068769 239.510149,170.346076 C247.678517,163.52247 254.934159,158.441842 261.644656,155.0408 C268.69961,151.465179 291.222187,145.61685 297.25623,145.61685 C298.583157,145.61685 298.872337,145.502072 308.267154,141.492081 C309.048928,141.158396 309.742233,140.866269 310.404419,140.592355 C316.817602,137.939532 320.801489,136.824485 323.154967,137.450161 C325.681069,138.12173 328.300835,139.43916 331.041063,141.366023 C336.656521,145.314675 342.254379,151.262939 349.964019,160.846873 C350.863853,161.965466 351.778689,163.114356 352.960935,164.607657 C353.037396,164.704235 355.241421,167.491622 355.867154,168.280235 C358.180862,171.196206 359.808122,173.201512 361.354773,175.019883 C365.261043,179.612418 368.186023,182.403859 370.58783,183.660959 C384.448844,190.915779 392.204506,197.881649 396.983679,204.752312 C396.985957,204.755587 396.990632,204.758923 396.990632,204.762316 Z" id="Oval" stroke="#402D2D" fill="#3B3434" fill-rule="nonzero" transform="translate(262.254004, 145.144727) rotate(36.000000) translate(-262.254004, -145.144727) "></path>
                <path d="M119.61558,256.022923 L141.031613,245.06159 L141.031613,245.06159 L172.379462,256.172044 C173.776553,256.667208 174.71024,257.988726 174.71024,259.470972 L174.71024,261.02986 C174.71024,262.469625 173.54308,263.636786 172.103314,263.636786 C171.73974,263.636786 171.380186,263.560736 171.04774,263.413541 C157.255727,257.305977 147.710229,254.252194 142.411247,254.252194 C137.270412,254.252194 130.153061,257.126417 121.059195,262.874861 C120.040227,263.518949 118.692049,263.215073 118.047943,262.196117 C117.827339,261.847128 117.71024,261.442727 117.71024,261.02986 L117.71024,259.138538 C117.71024,257.824702 118.446035,256.621529 119.61558,256.022923 Z" id="Rectangle" fill="#5F4A3C" fill-rule="nonzero" transform="translate(146.210240, 254.349188) rotate(-24.000000) translate(-146.210240, -254.349188) "></path>
            </g>
            <path d="M336.411697,772.050998 C336.601893,772.111716 336.883266,772.174842 337.243703,772.2293 C338.571461,772.429912 340.846631,772.513157 343.953212,772.472828 C350.363293,772.389614 360.024779,771.787685 371.657668,770.729192 C398.646955,768.273399 432.063761,763.804431 464.827555,758.002938 C553.20018,742.354777 621.567841,720.398926 650.520752,693.581153 C655.052465,689.383631 654.337467,674.740984 649.707672,651.597462 C648.93027,647.711372 648.052786,643.627289 647.03691,639.122363 C646.016685,634.598156 642.853812,621.123666 642.551524,619.800961 C641.137766,613.614852 640.5,610.265072 640.5,608.666288 C640.5,581.653948 608.983832,555.301592 555.114711,534.482344 C504.17388,514.794817 437.70492,501.954064 375.120538,499.816961 C368.420713,499.588179 363.503305,499.499499 356.536098,499.499499 C280.93454,499.499499 223.902175,505.156099 180.205079,519.233167 C127.457095,536.225988 97.0904117,565.123281 91.4959353,608.729914 C91.1146213,611.702098 90.0293812,616.203501 88.049245,623.312094 C87.2134688,626.31249 83.1068723,640.592192 81.9912022,644.578658 C80.6090987,649.517134 79.4303713,653.896025 78.3716956,658.066886 C71.6251773,684.646126 70.1970023,701.531238 75.8295352,707.925102 C97.0592069,732.02432 139.636796,747.81222 198.577023,757.351455 C220.758864,760.941496 244.179082,763.485862 270.06216,765.407976 C284.51983,766.481624 322.092903,768.623408 322.00629,768.617571 C327.616614,768.995662 331.285827,769.342121 333.585005,769.735112 C334.876876,769.955927 335.743298,770.192298 336.231455,770.47659 C336.935119,770.886388 336.998797,771.546291 336.411697,772.050998 Z" id="Oval" stroke="#979797" fill="#983B3B" fill-rule="nonzero"></path>
            <path d="M304.5,432.387365 L304.5,500.497028 C336.19763,523.159008 357.072015,534.5 366.967883,534.5 C376.873379,534.5 397.428898,524.341623 428.5,504.037918 L428.5,429.5414 C428.5,429.471178 428.485208,429.401742 428.456587,429.337616 C428.344041,429.08545 428.048382,428.972266 427.796216,429.084813 L366.982841,456.227033 L304.5,432.387365 Z" id="Rectangle" stroke="#979797" fill="#B79358" fill-rule="nonzero"></path>
            <path d="M485.051028,277.297277 C479.560919,279.418039 476.415979,285.204284 477.622466,290.96478 L485.711646,329.58739 C487.409476,337.69385 494.557654,343.5 502.840004,343.5 L506.086564,343.5 C507.323512,343.5 508.553607,343.316369 509.736626,342.955113 C516.338071,340.939241 520.055424,333.953522 518.039586,327.352056 C515.602978,319.372811 514.388411,314.394852 514.388411,312.330866 C514.388411,309.766345 509.451001,299.718548 499.683441,282.519944 C496.772843,277.395061 490.548814,275.173549 485.051028,277.297277 Z" id="Rectangle-Copy" stroke="#979797" fill="#B69052" fill-rule="nonzero" transform="translate(497.976866, 309.998182) scale(-1, 1) translate(-497.976866, -309.998182) "></path>
            <path d="M225.155186,276.125568 C217.297789,279.310865 212.854348,287.670873 214.609977,295.965605 L221.733914,329.623701 C223.446045,337.712919 230.586201,343.5 238.854626,343.5 L242.132833,343.5 C243.376179,343.5 244.612521,343.313869 245.800755,342.947795 C252.376062,340.922059 256.064224,333.949534 254.038509,327.374214 C251.63347,319.567733 250.43468,314.692867 250.43468,312.662196 C250.43468,310.274525 247.931962,300.859891 242.958515,284.602624 C242.8435,284.226585 242.711905,283.855746 242.564117,283.491187 C239.790733,276.649884 231.996489,273.352184 225.155186,276.125568 Z" id="Rectangle" stroke="#979797" fill="#B79358" fill-rule="nonzero"></path>
            <path d="M366.5,499 C401.017797,499 429,474.555506 429,444.401694 C429,414.247882 401.543007,444.401694 367.02521,444.401694 C332.507413,444.401694 304,414.247882 304,444.401694 C304,474.555506 331.982203,499 366.5,499 Z" id="Oval" fill-opacity="0.749781469" fill="#9E8B6B" fill-rule="nonzero"></path>
            <path d="M364.601119,478 C431.998476,478 502.934472,316.940325 502.934472,282.191972 C502.934472,281.058549 503.081911,275.317554 502.934472,274.678544 C498.561738,255.72684 430.246551,452.294507 365.047563,452.294507 C297.650207,452.294507 235,242.130274 235,276.878627 C235,311.626981 297.203763,478 364.601119,478 Z" id="Oval" fill="#3B3434" fill-rule="nonzero"></path>
            <path d="M295.285287,373.093216 L366.5,362 L366.5,362 L435.834418,372.537856 C438.453567,372.93593 440.952559,373.907239 443.153041,375.382463 C454.720512,383.137404 453.498979,388.439814 439.488441,391.289695 C431.951652,392.822751 411.724717,388.092171 400.575305,386.39807 C392.870991,385.227435 383.00185,383.448944 370.967883,381.062597 L308.329282,389.926777 C302.230176,390.789883 296.995969,394.711902 294.454648,400.323117 C294.24575,400.784362 294.000286,401.155772 293.718256,401.437345 C292.41447,402.739023 292.936814,393.29098 295.285287,373.093216 L295.285287,373.093216 Z" id="Rectangle" fill="#3B3434" fill-rule="nonzero"></path>
            <g id="Oval" filter="url(#filter-1)" opacity="0.31905692" transform="translate(361.319508, 311.476608) rotate(-179.000000) translate(-361.319508, -311.476608) translate(5.319508, 49.976608)" fill="url(#linearGradient-3)" fill-rule="nonzero">
                <g id="path-3-link" transform="translate(0.101348, 0.806225)">
                    <path d="M357.694081,521.457337 C403.438402,521.457337 614.227069,508.266019 650.983878,494.345722 C723.995306,466.695314 701.926358,503.20114 706.774738,408.168631 C710.857739,328.13822 731.407324,76.7385948 596.963312,5.41265047 C571.761115,-7.95775172 160.465588,12.4197131 138.900269,12.4197131 C2.2922862,12.4197131 0.151040204,344.072184 0.151040204,431.914212 C0.151040204,519.756239 221.086097,521.457337 357.694081,521.457337 Z" id="path-3"></path>
                </g>
            </g>
            <path d="M115.836294,562.511693 L112.206543,573.088749 L134.19098,693.444358 L590.395562,689.503618 L610.702669,573.057512 L608.745346,563.499183 C306.978405,562.894626 303.83345,562.888325 115.836294,562.511693 Z" id="Rectangle" stroke="#979797" fill="#464646" fill-rule="nonzero"></path>
            <path d="M117.448472,563.5 C116.248176,563.5 115.163413,564.21544 114.690808,565.318778 L112.5491,570.318778 C112.389208,570.692059 112.306765,571.093916 112.306765,571.5 C112.306765,573.156854 113.649911,574.5 115.306765,574.5 L608.202693,574.5 C608.51351,574.5 608.82244,574.451698 609.118424,574.356823 C610.696203,573.851079 611.56526,572.162049 611.059516,570.584269 L609.456808,565.584269 C609.058751,564.342443 607.904049,563.5 606.599985,563.5 L117.448472,563.5 Z" id="Rectangle" stroke="#979797" fill="#B0B0B0" fill-rule="nonzero"></path>
            <ellipse id="Oval" stroke="#979797" fill="#D8D8D8" fill-rule="nonzero" cx="367" cy="698" rx="58.5" ry="31.5"></ellipse>
            <ellipse id="Oval" fill-opacity="0.131337413" fill="#D8D8D8" fill-rule="nonzero" cx="363.5" cy="691.5" rx="87.5" ry="45.5"></ellipse>
        </g>
    </g>
</svg>