
<svg width="332px" height="298px" viewBox="0 0 332 298" version="1.1" xmlns="http://www.w3.org/2000/svg" xmlns:xlink="http://www.w3.org/1999/xlink">
    <g id="Page-1" stroke="none" stroke-width="1" fill="none" fill-rule="evenodd">
        <path d="M332,149.219187 C332,125.901166 304.700811,105.22292 262.725363,92.5993762 C272.823707,49.7199378 268.414097,15.6059095 248.318393,4.06535035 C243.390896,1.31383703 237.830448,-0.0867145964 232.194704,0.00415650319 C213.445446,0.00415650319 189.748,13.1691932 165.814926,35.945722 C141.881851,13.3384096 118.251727,0.241059477 99.5361305,0.241059477 C93.8130267,0.113919114 88.1616628,1.54025044 83.1768138,4.36993989 C63.1820935,15.9443423 59.0417727,49.855311 69.0054717,92.5316896 C27.2319903,105.087547 0.0674460686,125.596576 0,148.813068 C-0.0671985127,172.029559 27.3329738,192.809334 69.308422,205.399035 C59.2100784,248.312317 63.5860273,282.392502 83.7153922,293.933061 C88.6246435,296.699907 94.178468,298.101717 99.8054196,297.994255 C118.588339,297.994255 142.285785,284.829218 166.218859,262.052689 C190.118273,284.660002 213.748397,297.757352 232.497654,297.757352 C238.218338,297.863027 243.864172,296.438091 248.856971,293.628472 C268.851691,282.054069 272.958351,248.1431 263.028313,205.635938 C304.801795,192.910864 331.966339,172.401835 332,149.219187 Z M180.999698,43.363053 C208.760312,18.6695571 226.114933,16.0081844 232.283958,16.0081844 L232.283958,16.0081844 C235.145018,15.9168278 237.978167,16.5916906 240.486728,17.9621036 C250.180911,23.4532903 254.045026,42.8240408 250.960513,68.4944964 C250.170423,75.0501583 249.039048,81.5607231 247.570939,88 C233.525245,84.7552939 219.28131,82.4258455 204.930093,81.0265298 C196.383986,69.1072953 187.053567,57.7632508 177,47.0687618 C178.254143,45.8222961 179.609972,44.5758305 180.999698,43.363053 Z M97.6556122,169 C100.242347,174.13245 102.994898,179.264901 105.846939,184.431567 C108.69898,189.598234 111.683673,194.833333 115,200 C106.012755,198.665563 97.2908163,196.988962 89,195.004415 C91.3214286,186.313466 94.2729592,177.759382 97.6556122,169 Z M89,102.968167 C97.295082,100.960483 105.983607,99.2930845 115,98 C111.721311,103.036224 108.901639,108.208562 105.95082,113.6191 C103,119.029638 100.409836,123.827662 97.8852459,129 C94.5409836,120.15258 91.579235,111.475302 89,102.968167 Z M105,149.602755 C109.177428,140.714523 113.770354,131.82629 118.778776,122.938057 C123.832117,114.049825 129.256036,105.399064 134.8484,97.1214732 C144.651881,96.3751331 154.758563,95.9680385 165.168445,96.001963 C175.578327,96.0358876 185.381808,96.4090576 195.117911,97.1893223 C200.710275,105.399064 206.066816,114.151598 211.120157,122.802359 C216.173498,131.45312 220.822572,140.510975 225,149.365283 C220.856261,158.253516 216.240876,167.175673 211.254913,175.996057 C206.26895,184.81644 200.777653,193.568975 195.185289,201.846565 C185.381808,202.62683 175.275126,203 164.865244,203 C154.455362,203 144.651881,202.558981 134.915778,201.778716 C129.323414,193.568975 123.933184,185.019987 118.879843,176.165679 C113.826502,167.311371 109.345873,158.457063 105.134756,149.602755 L105,149.602755 Z M217,98 C226.020408,99.3088889 234.742347,100.996667 243,102.994444 C240.545918,111.502222 237.627551,120.216667 234.244898,129 C231.625,123.833333 228.905612,118.666667 226.020408,113.465556 C223.135204,108.264444 220.084184,103.028889 217.132653,98 L217,98 Z M226.060606,183.414929 C228.883838,178.265276 231.575758,173.126967 234.136364,168 C237.419192,176.84742 240.70202,185.558727 243,194.065862 C234.727273,196.073546 226.027778,197.706915 217,199 C220.173401,193.963776 223.237374,188.768752 226.191919,183.414929 L226.060606,183.414929 Z M165.433712,59 C171.399621,65.4719101 177.266098,72.4831461 183,80 C177.332386,79.7640449 171.532197,79.5955056 165.66572,79.5955056 C159.799242,79.5955056 153.800189,79.5955056 148,80 C153.667614,72.5168539 159.467803,65.4719101 165.433712,59 Z M91.3290288,17.9147409 C93.8944444,16.5459126 96.7779784,15.8900372 99.6809831,16.0150436 C105.773117,16.2697526 111.747374,17.7825927 117.230231,20.4589783 C129.621951,26.3203003 141.029505,34.079688 151.043811,43.4588842 L155,47.0886629 C145.073278,57.77898 135.856198,69.1110277 127.408119,81.011828 C113.014426,82.4107463 98.7263601,84.7450392 84.63394,88 C83.1461424,81.418906 81.9288536,74.9735046 81.252582,68.7655654 C77.7359696,43.1535757 81.7935992,23.6138326 91.2952152,18.0504335 L91.3290288,17.9147409 Z M73.8298466,190 C67.4531409,188.052302 61.1780945,185.785825 55.0283589,183.20911 C30.9325895,173.022774 16,159.950311 16,148.779296 C16,137.608282 31.0004649,124.603727 55.0622966,114.587164 C61.1024252,112.084103 67.2641979,109.885622 73.5244073,108 C77.7669621,122.06724 82.9368252,135.837659 89,149.220704 C83.0658613,162.470741 77.9984699,176.092532 73.8298466,190 L73.8298466,190 Z M151.034198,253.657489 C123.273584,278.362349 105.918963,280.991243 99.7160419,280.991243 C96.8546406,281.08598 94.0206152,280.410597 91.5132719,279.036424 C81.8190892,273.542711 77.9549744,254.163046 81.0394871,228.480776 C81.8267329,221.932826 82.9581389,215.430338 84.4290615,209 C98.4788347,212.218125 112.721666,214.537208 127.069907,215.942976 C135.605632,227.875575 144.936602,239.22551 155,249.916371 L151.034198,253.657489 Z M165.582781,239 C159.622517,232.52809 153.761589,225.516854 148,218 C153.695364,218.269663 159.490066,218.404494 165.350993,218.404494 C171.211921,218.404494 177.205298,218.404494 183,218.033708 C177.271523,225.516854 171.443709,232.52809 165.549669,239 L165.582781,239 Z M240.664468,279.989838 C238.096441,281.399364 235.197092,282.090427 232.270641,281.990517 C226.110655,281.990517 208.578388,279.277732 180.959991,254.523574 L177,250.895225 C186.925005,240.208388 196.139637,228.880802 204.584551,216.98542 C219.00578,215.606649 233.32011,213.273075 247.433683,210 C248.92291,216.578502 250.107523,223.021365 250.81829,229.22686 C254.169052,254.794853 250.276753,274.326901 240.630621,279.854199 L240.664468,279.989838 Z M276.955828,183.444076 C271.155182,185.821872 265.015317,188.029826 258.502311,190 C254.24497,175.928039 249.066316,162.152273 243,148.76222 C248.958585,135.521684 254.046413,121.905243 258.230936,108 C264.604673,109.948504 270.876799,112.215921 277.023672,114.793703 C301.074304,124.984258 316.033864,138.062138 316,149.23778 C315.966021,160.413422 301.00646,173.28749 276.921906,183.308202 L276.955828,183.444076 Z M165.966277,180 C183.087074,180.018621 196.981334,166.154575 197,149.033763 C197.018628,131.912951 183.1546,118.018672 166.033803,118 C148.913006,117.981365 135.018734,131.8454 135,148.966213 C134.982136,157.190663 138.236717,165.084407 144.045952,170.906317 C149.855187,176.728227 157.741814,180 165.966277,180 L165.966277,180 Z M69.3084154,205.35695 C59.2100727,248.289735 63.5860212,282.385409 83.7153842,293.931213 C88.6246351,296.699316 94.1784591,298.101763 99.8054102,297.994252 C118.588328,297.994252 142.285772,284.823232 166.218844,262.036352 C190.118255,284.653939 213.748376,297.757242 232.497633,297.757242 C238.218316,297.862965 243.864149,296.437382 248.856948,293.626485 C268.851666,282.046822 272.958326,248.120442 263.028289,205.593961 C304.801766,192.998538 331.966308,172.480188 332,149.287004 C332.03363,126.09382 304.700783,105.270742 262.725338,92.6414606 C272.823681,49.7425345 268.414071,15.6130021 248.318369,4.06719796 C243.390873,1.31443414 237.830426,-0.0867540063 232.194682,0.00415839224 C213.445426,0.00415839224 189.747982,13.1751783 165.81491,35.9620586 C141.881838,13.3444717 118.251716,0.241169034 99.5361211,0.241169034 C93.8130178,0.113970887 88.1616544,1.54095046 83.176806,4.37192593 C63.1820875,15.9515887 59.041767,49.8779691 69.0054651,92.5737433 C27.2319876,105.135307 0.0674459109,125.653657 0,148.8807 C-0.0671986579,172.107743 27.3666322,192.69381 69.3420765,205.35695 L69.3084154,205.35695 Z M151.034198,253.657489 C123.273584,278.362349 105.918963,280.991243 99.7160419,280.991243 C96.8546406,281.08598 94.0206152,280.410597 91.5132719,279.036424 C81.8190892,273.542711 77.9549744,254.163046 81.0394871,228.480776 C81.8267329,221.932826 82.9581389,215.430338 84.4290615,209 C98.4788347,212.218125 112.721666,214.537208 127.069907,215.942976 C135.605632,227.875575 144.936602,239.22551 155,249.916371 L151.034198,253.657489 Z M234.244898,129 C231.625,123.833333 228.905612,118.666667 226.020408,113.465556 C223.135204,108.264444 220.05102,103.132222 217,98 C226.020408,99.3088889 234.742347,100.996667 243,102.994444 C240.579082,111.502222 237.660714,120.216667 234.278061,129 L234.244898,129 Z M243,194.065862 C234.727273,196.073546 226.027778,197.706915 217,199 C220.085859,193.963776 223.106061,188.768752 226.060606,183.414929 C229.015152,178.061105 231.707071,172.922795 234.136364,168 C237.583333,177.017563 240.570707,185.660812 242.934343,194.236004 L243,194.065862 Z M224.966321,149.365283 C220.823744,158.253516 216.209655,167.175673 211.225091,175.996057 C206.240528,184.81644 200.750772,193.568975 195.159978,201.846565 C185.359248,202.62683 175.255403,203 164.848442,203 C154.441482,203 144.640752,202.558981 134.907381,201.778716 C129.316587,193.568975 123.92787,185.019987 118.875947,176.165679 C113.824025,167.311371 109.209935,158.457063 105,149.602755 C109.176256,140.714523 113.767892,131.82629 118.774909,122.938057 C123.826831,114.049825 129.249228,105.399064 134.840022,97.1214732 C144.640752,96.3751331 154.744597,95.9680385 165.151558,96.001963 C175.558518,96.0358876 185.359248,96.4090576 195.092619,97.1893223 C200.683413,105.399064 206.038451,114.151598 211.090373,122.802359 C216.142296,131.45312 220.823744,140.680598 225,149.534906 L224.966321,149.365283 Z M115,200 C106.012755,198.658158 97.2908163,196.972253 89,194.976693 C91.4540816,186.512764 94.4056122,177.773585 97.7882653,169 C100.375,174.160932 103.127551,179.321865 105.979592,184.517203 C108.831633,189.712542 111.683673,194.804661 115,200 Z M106.081967,113.568282 C103.229508,118.689427 100.540984,123.810573 98.0163934,129 C94.5846995,120.19163 91.579235,111.519824 89,102.984581 C97.295082,100.970264 105.983607,99.2973568 115,98 C111.95082,103.052863 109.032787,108.276432 106.081967,113.568282 Z M165.582781,239 C159.622517,232.52809 153.761589,225.516854 148,218 C153.695364,218.269663 159.490066,218.404494 165.350993,218.404494 C171.211921,218.404494 177.205298,218.404494 183,218.033708 C177.304636,225.516854 171.476821,232.52809 165.582781,239 Z M240.648463,279.989838 C238.081082,281.399364 235.182462,282.090427 232.256746,281.990517 C226.098309,281.990517 208.57045,279.277732 180.958995,254.523574 L177,250.895225 C186.92251,240.208388 196.134826,228.880802 204.577617,216.98542 C218.99522,215.606649 233.305952,213.273075 247.415976,210 C248.904829,216.578502 250.089144,223.021365 250.799733,229.22686 C254.18349,254.794853 250.292169,274.326901 240.648463,279.854199 L240.648463,279.989838 Z M258.230936,108.135425 C264.604673,110.077494 270.876799,112.337421 277.023672,114.906689 C301.074304,125.063584 316.033864,138.098266 316,149.236994 C315.966021,160.375723 301.040382,173.478117 276.955828,183.465731 C271.155182,185.835673 265.015317,188.036334 258.502311,190 C254.24497,175.974519 249.066316,162.244255 243,148.898431 C248.96967,135.613555 254.057625,121.951271 258.230936,108 L258.230936,108.135425 Z M180.999698,44.363053 C208.760312,19.6695571 226.114933,17.0081844 232.283958,17.0081844 L232.283958,17.0081844 C235.145018,16.9168278 237.978167,17.5916906 240.486728,18.9621036 C250.180911,24.4532903 254.045026,43.8240408 250.960513,69.4944964 C250.170423,76.0501583 249.039048,82.5607231 247.570939,89 C233.525245,85.7552939 219.28131,83.4258455 204.930093,82.0265298 C196.383986,70.1072953 187.053567,58.7632508 177,48.0687618 C178.288038,46.6875431 179.643868,45.4410774 181.033594,44.2283 L180.999698,44.363053 Z M165.433712,59 C171.399621,65.4719101 177.266098,72.4831461 183,80 C177.332386,79.7640449 171.532197,79.5955056 165.66572,79.5955056 C159.799242,79.5955056 153.800189,79.5955056 148,80 C153.667614,72.5168539 159.467803,65.4719101 165.433712,59 Z M91.3290288,17.9147409 C93.8944444,16.5459126 96.7779784,15.8900372 99.6809831,16.0150436 C105.773117,16.2697526 111.747374,17.7825927 117.230231,20.4589783 C129.621951,26.3203003 141.029505,34.079688 151.043811,43.4588842 L155,47.0886629 C145.073278,57.77898 135.856198,69.1110277 127.408119,81.011828 C113.014426,82.4107463 98.7263601,84.7450392 84.63394,88 C83.1461424,81.418906 81.9288536,74.9735046 81.252582,68.7655654 C77.7359696,43.1535757 81.7935992,23.6138326 91.2952152,18.0504335 L91.3290288,17.9147409 Z M55.0938226,114.589892 C61.1283403,112.085795 67.2843891,109.886403 73.5387831,108 C77.7773969,122.073067 82.9424575,135.849191 89,149.23778 C83.0496896,162.48059 77.9643576,176.096666 73.7761263,190 C67.4053442,188.051496 61.136127,185.784079 54.992104,183.206297 C30.9187181,173.015742 16,159.937862 16,148.76222 C16,137.586578 31.0543428,124.610605 55.0938226,114.589892 Z M166.033308,118.168387 C148.91274,118.149797 135.018665,131.976194 135,149.050513 C134.981372,166.124831 148.845215,179.981378 165.965783,180 C183.086351,180.018584 196.980436,166.192198 196.999097,149.11788 C197.062102,140.886658 193.82748,132.970967 188.013426,127.128356 C182.199371,121.285745 174.287066,118 166.033308,118 L166.033308,118.168387 Z M166.033308,118.168387 C148.91274,118.149797 135.018665,131.976194 135,149.050513 C134.981372,166.124831 148.845215,179.981378 165.965783,180 C183.086351,180.018584 196.980436,166.192198 196.999097,149.11788 C197.062102,140.886658 193.82748,132.970967 188.013426,127.128356 C182.199371,121.285745 174.287066,118 166.033308,118 L166.033308,118.168387 Z M166.033308,118.168387 C148.91274,118.149797 135.018665,131.976194 135,149.050513 C134.981372,166.124831 148.845215,179.981378 165.965783,180 C183.086351,180.018584 196.980436,166.192198 196.999097,149.11788 C197.062102,140.886658 193.82748,132.970967 188.013426,127.128356 C182.199371,121.285745 174.287066,118 166.033308,118 L166.033308,118.168387 Z M332,149.219187 C332,125.901166 304.700811,105.22292 262.725363,92.5993762 C272.823707,49.7199378 268.414097,15.6059095 248.318393,4.06535035 C243.390896,1.31383703 237.830448,-0.0867145964 232.194704,0.00415650319 C213.445446,0.00415650319 189.748,13.1691932 165.814926,35.945722 C141.881851,13.3384096 118.251727,0.241059477 99.5361305,0.241059477 C93.8130267,0.113919114 88.1616628,1.54025044 83.1768138,4.36993989 C63.1820935,15.9443423 59.0417727,49.855311 69.0054717,92.5316896 C27.2319903,105.087547 0.0674460686,125.596576 0,148.813068 C-0.0671985127,172.029559 27.3329738,192.809334 69.308422,205.399035 C59.2100784,248.312317 63.5860273,282.392502 83.7153922,293.933061 C88.6246435,296.699907 94.178468,298.101717 99.8054196,297.994255 C118.588339,297.994255 142.285785,284.829218 166.218859,262.052689 C190.118273,284.660002 213.748397,297.757352 232.497654,297.757352 C238.218338,297.863027 243.864172,296.438091 248.856971,293.628472 C268.851691,282.054069 272.958351,248.1431 263.028313,205.635938 C304.801795,192.843178 331.966339,172.334149 332,149.1515 L332,149.219187 Z M180.999698,43.363053 C208.760312,18.6695571 226.114933,16.0081844 232.283958,16.0081844 L232.283958,16.0081844 C235.145018,15.9168278 237.978167,16.5916906 240.486728,17.9621036 C250.180911,23.4532903 254.045026,42.8240408 250.960513,68.4944964 C250.170423,75.0501583 249.039048,81.5607231 247.570939,88 C233.525245,84.7552939 219.28131,82.4258455 204.930093,81.0265298 C196.383986,69.1072953 187.053567,57.7632508 177,47.0687618 C178.254143,45.8222961 179.609972,44.5758305 180.999698,43.363053 Z M97.6556122,169 C100.242347,174.13245 102.994898,179.264901 105.846939,184.431567 C108.69898,189.598234 111.683673,194.833333 115,200 C106.012755,198.665563 97.2908163,196.988962 89,195.004415 C91.3214286,186.313466 94.2729592,177.759382 97.6556122,169 Z M89,102.968167 C97.295082,100.960483 105.983607,99.2930845 115,98 C111.721311,103.036224 108.901639,108.208562 105.95082,113.6191 C103,119.029638 100.409836,123.827662 97.8852459,129 C94.5409836,120.15258 91.579235,111.475302 89,102.968167 Z M105,149.602755 C109.177428,140.714523 113.770354,131.82629 118.778776,122.938057 C123.832117,114.049825 129.256036,105.399064 134.8484,97.1214732 C144.651881,96.3751331 154.758563,95.9680385 165.168445,96.001963 C175.578327,96.0358876 185.381808,96.4090576 195.117911,97.1893223 C200.710275,105.399064 206.066816,114.151598 211.120157,122.802359 C216.173498,131.45312 220.822572,140.510975 225,149.365283 C220.856261,158.253516 216.240876,167.175673 211.254913,175.996057 C206.26895,184.81644 200.777653,193.568975 195.185289,201.846565 C185.381808,202.62683 175.275126,203 164.865244,203 C154.455362,203 144.651881,202.558981 134.915778,201.778716 C129.323414,193.568975 123.933184,185.019987 118.879843,176.165679 C113.826502,167.311371 109.345873,158.457063 105.134756,149.602755 L105,149.602755 Z M217,98 C226.020408,99.3088889 234.742347,100.996667 243,102.994444 C240.545918,111.502222 237.627551,120.216667 234.244898,129 C231.625,123.833333 228.905612,118.666667 226.020408,113.465556 C223.135204,108.264444 220.084184,103.028889 217.132653,98 L217,98 Z M226.060606,183.414929 C228.883838,178.265276 231.575758,173.126967 234.136364,168 C237.419192,176.84742 240.70202,185.558727 243,194.065862 C234.727273,196.073546 226.027778,197.706915 217,199 C220.173401,193.963776 223.237374,188.768752 226.191919,183.414929 L226.060606,183.414929 Z M165.433712,59 C171.399621,65.4719101 177.266098,72.4831461 183,80 C177.332386,79.7640449 171.532197,79.5955056 165.66572,79.5955056 C159.799242,79.5955056 153.800189,79.5955056 148,80 C153.667614,72.5168539 159.467803,65.4719101 165.433712,59 Z M91.3290288,17.9147409 C93.8944444,16.5459126 96.7779784,15.8900372 99.6809831,16.0150436 C105.773117,16.2697526 111.747374,17.7825927 117.230231,20.4589783 C129.621951,26.3203003 141.029505,34.079688 151.043811,43.4588842 L155,47.0886629 C145.073278,57.77898 135.856198,69.1110277 127.408119,81.011828 C113.014426,82.4107463 98.7263601,84.7450392 84.63394,88 C83.1461424,81.418906 81.9288536,74.9735046 81.252582,68.7655654 C77.7359696,43.1535757 81.7935992,23.6138326 91.2952152,18.0504335 L91.3290288,17.9147409 Z M73.8298466,190 C67.4531409,188.052302 61.1780945,185.785825 55.0283589,183.20911 C30.9325895,173.022774 16,159.950311 16,148.779296 C16,137.608282 31.0004649,124.603727 55.0622966,114.587164 C61.1024252,112.084103 67.2641979,109.885622 73.5244073,108 C77.7669621,122.06724 82.9368252,135.837659 89,149.220704 C83.0658613,162.470741 77.9984699,176.092532 73.8298466,190 L73.8298466,190 Z M151.034198,253.657489 C123.273584,278.362349 105.918963,280.991243 99.7160419,280.991243 C96.8546406,281.08598 94.0206152,280.410597 91.5132719,279.036424 C81.8190892,273.542711 77.9549744,254.163046 81.0394871,228.480776 C81.8267329,221.932826 82.9581389,215.430338 84.4290615,209 C98.4788347,212.218125 112.721666,214.537208 127.069907,215.942976 C135.605632,227.875575 144.936602,239.22551 155,249.916371 L151.034198,253.657489 Z M165.582781,239 C159.622517,232.52809 153.761589,225.516854 148,218 C153.695364,218.269663 159.490066,218.404494 165.350993,218.404494 C171.211921,218.404494 177.205298,218.404494 183,218.033708 C177.271523,225.516854 171.443709,232.52809 165.549669,239 L165.582781,239 Z M240.664468,279.989838 C238.096441,281.399364 235.197092,282.090427 232.270641,281.990517 C226.110655,281.990517 208.578388,279.277732 180.959991,254.523574 L177,250.895225 C186.925005,240.208388 196.139637,228.880802 204.584551,216.98542 C219.00578,215.606649 233.32011,213.273075 247.433683,210 C248.92291,216.578502 250.107523,223.021365 250.81829,229.22686 C254.169052,254.794853 250.276753,274.326901 240.630621,279.854199 L240.664468,279.989838 Z M276.955828,183.444076 C271.155182,185.821872 265.015317,188.029826 258.502311,190 C254.24497,175.928039 249.066316,162.152273 243,148.76222 C248.958585,135.521684 254.046413,121.905243 258.230936,108 C264.604673,109.948504 270.876799,112.215921 277.023672,114.793703 C301.074304,124.984258 316.033864,138.062138 316,149.23778 C315.966021,160.413422 301.00646,173.28749 276.921906,183.308202 L276.955828,183.444076 Z M165.966277,180 C183.087074,180.018621 196.981334,166.154575 197,149.033763 C197.018628,131.912951 183.1546,118.018672 166.033803,118 C148.913006,117.981365 135.018734,131.8454 135,148.966213 C134.982136,157.190663 138.236717,165.084407 144.045952,170.906317 C149.855187,176.728227 157.741814,180 165.966277,180 L165.966277,180 Z" id="Shape" fill="#09D3AC" fill-rule="nonzero"></path>
    </g>
</svg>
