<?xml version="1.0" encoding="UTF-8"?>
<svg width="119px" height="119px" viewBox="0 0 119 119" version="1.1" xmlns="http://www.w3.org/2000/svg" xmlns:xlink="http://www.w3.org/1999/xlink">
    <!-- Generator: Sketch 58 (84663) - https://sketch.com -->
    <title>Rectangle 2</title>
    <desc>Created with Sketch.</desc>
    <g id="Page-1" stroke="none" stroke-width="1" fill="none" fill-rule="evenodd">
        <path d="M71.371927,79.5353052 L53.371927,79.5353052 C52.5434999,79.5353052 51.871927,80.206878 51.871927,81.0353052 L51.871927,130.035305 C51.871927,130.863732 52.5434999,131.535305 53.371927,131.535305 L71.371927,131.535305 C72.2003541,131.535305 72.871927,130.863732 72.871927,130.035305 L72.871927,81.0353052 C72.871927,80.206878 72.2003541,79.5353052 71.371927,79.5353052 Z M62.371927,-6.46469484 C38.8998251,-6.46469484 19.871927,12.5632033 19.871927,36.0353052 C19.871927,59.507407 38.8998251,78.5353052 62.371927,78.5353052 C85.8440289,78.5353052 104.871927,59.507407 104.871927,36.0353052 C104.871927,12.5632033 85.8440289,-6.46469484 62.371927,-6.46469484 Z M62.371927,6.53530516 C79.2147483,6.53530516 92.871927,19.9648642 92.871927,36.5353052 C92.871927,53.1057461 79.2147483,66.5353052 62.371927,66.5353052 C45.5291056,66.5353052 31.871927,53.1057461 31.871927,36.5353052 C31.871927,19.9648642 45.5291056,6.53530516 62.371927,6.53530516 Z" id="Rectangle-2" stroke="#979797" fill="#D8D8D8" transform="translate(62.371927, 62.535305) rotate(-45.000000) translate(-62.371927, -62.535305) "></path>
    </g>
</svg>